<svg width="1920" height="678" viewBox="0 0 1920 678" fill="none" xmlns="http://www.w3.org/2000/svg">
<path d="M98.6108 465.042C-18.2377 455.489 -43.0636 394.719 -40.8705 365.529L-40.8705 0L1961.87 0V365.529C1964.06 394.719 1939.24 455.489 1822.39 465.042C1676.33 476.983 1680.28 518.779 1657.91 552.614C1635.54 586.448 1600.01 620.282 1475 593.414C1350 566.545 1227.62 557.589 1134.19 621.278C1059.45 672.228 987.102 678 960.5 678C933.898 678 861.547 672.228 786.806 621.278C693.38 557.589 571.005 566.545 445.998 593.414C320.991 620.282 285.463 586.448 263.093 552.614C240.724 518.779 244.671 476.983 98.6108 465.042Z" fill="#1D1534"/>
</svg>
