<svg width="77" height="28" viewBox="0 0 77 28" fill="none" xmlns="http://www.w3.org/2000/svg">
<path d="M0.756 26.928L9.036 16.488C10.524 14.616 11.58 13.116 12.204 11.988C12.828 10.836 13.14 9.744 13.14 8.712C13.14 7.416 12.732 6.42 11.916 5.724C11.1 5.028 10.008 4.68 8.64 4.68C6.576 4.68 4.584 5.388 2.664 6.804V2.412C4.512 1.164 6.624 0.539999 9 0.539999C11.52 0.539999 13.608 1.248 15.264 2.664C16.92 4.056 17.748 5.952 17.748 8.352C17.748 9.888 17.376 11.4 16.632 12.888C15.912 14.376 14.772 16.104 13.212 18.072L9.396 22.86L9.432 22.932H18.684V27H0.792L0.756 26.928ZM28.7016 6.264C27.6696 7.68 27.1536 10.248 27.1536 13.968C27.1536 17.688 27.6696 20.256 28.7016 21.672C29.4936 22.728 30.5376 23.256 31.8336 23.256C33.1296 23.256 34.1736 22.728 34.9656 21.672C35.9976 20.256 36.5136 17.688 36.5136 13.968C36.5136 10.248 35.9976 7.68 34.9656 6.264C34.1736 5.208 33.1296 4.68 31.8336 4.68C30.5376 4.68 29.4936 5.208 28.7016 6.264ZM25.0296 24.048C23.3976 21.816 22.5816 18.456 22.5816 13.968C22.5816 9.48 23.3976 6.12 25.0296 3.888C26.6856 1.656 28.9536 0.539999 31.8336 0.539999C34.7136 0.539999 36.9816 1.656 38.6376 3.888C40.2696 6.12 41.0856 9.48 41.0856 13.968C41.0856 18.456 40.2696 21.816 38.6376 24.048C36.9816 26.28 34.7136 27.396 31.8336 27.396C28.9536 27.396 26.6856 26.28 25.0296 24.048ZM43.8224 26.928L52.1024 16.488C53.5904 14.616 54.6464 13.116 55.2704 11.988C55.8944 10.836 56.2064 9.744 56.2064 8.712C56.2064 7.416 55.7984 6.42 54.9824 5.724C54.1664 5.028 53.0744 4.68 51.7064 4.68C49.6424 4.68 47.6504 5.388 45.7304 6.804V2.412C47.5784 1.164 49.6904 0.539999 52.0664 0.539999C54.5864 0.539999 56.6744 1.248 58.3304 2.664C59.9864 4.056 60.8144 5.952 60.8144 8.352C60.8144 9.888 60.4424 11.4 59.6984 12.888C58.9784 14.376 57.8384 16.104 56.2784 18.072L52.4624 22.86L52.4984 22.932H61.7504V27H43.8584L43.8224 26.928ZM71.876 27V6.552L66.224 8.64V4.356L76.448 0.539999V27H71.876Z" fill="#191B21"/>
</svg>
