<svg width="962" height="50" viewBox="0 0 962 50" fill="none" xmlns="http://www.w3.org/2000/svg">
<g clip-path="url(#clip0_0_1)">
<path d="M10.4078 19.4497H0L10.986 41.9999H21.3937L10.4078 19.4497Z" fill="url(#paint0_linear_0_1)"/>
<path d="M31.8016 13.6675H21.3938L33.1507 41.9997H43.5585L31.8016 13.6675Z" fill="url(#paint1_linear_0_1)"/>
<path d="M21.3937 13.6675H31.8015L21.3937 41.9997H10.9859L21.3937 13.6675Z" fill="url(#paint2_linear_0_1)"/>
<path fill-rule="evenodd" clip-rule="evenodd" d="M15.4601 29.8201L10.986 41.9996H21.3938L15.4601 29.8201Z" fill="url(#paint3_linear_0_1)"/>
<path fill-rule="evenodd" clip-rule="evenodd" d="M10.986 41.9996H21.3938L15.4601 29.8201L10.986 41.9996Z" fill="url(#paint4_linear_0_1)"/>
<path d="M44.9076 7.5H55.3154L43.3658 41.9998H32.958L44.9076 7.5Z" fill="url(#paint5_linear_0_1)"/>
<path fill-rule="evenodd" clip-rule="evenodd" d="M37.7807 28.0764L33.0457 41.7468L33.1507 42H43.5585L43.4534 41.7468L37.7807 28.0764Z" fill="url(#paint6_linear_0_1)"/>
<path fill-rule="evenodd" clip-rule="evenodd" d="M43.3657 42L43.4534 41.7468L37.7807 28.0764L33.0457 41.7468L32.958 42H43.3657Z" fill="url(#paint7_linear_0_1)"/>
<path d="M72.4464 22.2879H64.3915V17.7706H86.3267V22.2879H78.2718V41.7261H72.4464V22.2879Z" fill="white"/>
<path d="M96.3046 41.9999C94.2669 41.9999 92.4329 41.6007 90.8028 40.8021C89.1966 39.9808 87.938 38.8515 87.0271 37.4141C86.1161 35.9768 85.6606 34.3455 85.6606 32.5204C85.6606 30.6952 86.1161 29.0639 87.0271 27.6266C87.938 26.1893 89.1966 25.0713 90.8028 24.2728C92.4329 23.4515 94.2669 23.0408 96.3046 23.0408C98.3423 23.0408 100.164 23.4515 101.77 24.2728C103.377 25.0713 104.635 26.1893 105.546 27.6266C106.457 29.0639 106.913 30.6952 106.913 32.5204C106.913 34.3455 106.457 35.9768 105.546 37.4141C104.635 38.8515 103.377 39.9808 101.77 40.8021C100.164 41.6007 98.3423 41.9999 96.3046 41.9999ZM96.3046 37.6195C97.7429 37.6195 98.9176 37.1632 99.8286 36.2506C100.764 35.3152 101.231 34.0718 101.231 32.5204C101.231 30.969 100.764 29.737 99.8286 28.8244C98.9176 27.889 97.7429 27.4213 96.3046 27.4213C94.8662 27.4213 93.6795 27.889 92.7446 28.8244C91.8096 29.737 91.3422 30.969 91.3422 32.5204C91.3422 34.0718 91.8096 35.3152 92.7446 36.2506C93.6795 37.1632 94.8662 37.6195 96.3046 37.6195Z" fill="white"/>
<path d="M118.969 34.5053L116.272 37.0377V41.7261H110.662V16.3333H116.272V30.7066L124.471 23.3146H131.159L123.104 31.1173L131.878 41.7261H125.082L118.969 34.5053Z" fill="white"/>
<path d="M146.019 23.0408C148.416 23.0408 150.346 23.7253 151.809 25.0941C153.295 26.463 154.038 28.4935 154.038 31.1857V41.7261H148.428V32.007C148.428 30.5469 148.093 29.4632 147.422 28.7559C146.75 28.0258 145.779 27.6608 144.509 27.6608C143.094 27.6608 141.968 28.0829 141.129 28.927C140.29 29.7484 139.87 30.9804 139.87 32.623V41.7261H134.26V23.3146H139.618V25.4706C140.362 24.6949 141.285 24.1017 142.387 23.691C143.49 23.2575 144.701 23.0408 146.019 23.0408Z" fill="white"/>
<path d="M178.284 32.5888C178.284 32.6573 178.248 33.1364 178.176 34.0261H163.541C163.805 35.1669 164.428 36.0681 165.411 36.7297C166.394 37.3913 167.616 37.7221 169.079 37.7221C170.085 37.7221 170.972 37.5853 171.74 37.3115C172.531 37.0149 173.262 36.5586 173.933 35.9426L176.918 39.0226C175.096 41.0075 172.435 41.9999 168.935 41.9999C166.753 41.9999 164.823 41.6007 163.145 40.8021C161.467 39.9808 160.173 38.8515 159.262 37.4141C158.351 35.9768 157.895 34.3455 157.895 32.5204C157.895 30.718 158.339 29.0981 159.226 27.6608C160.137 26.2007 161.371 25.0713 162.93 24.2728C164.512 23.4515 166.274 23.0408 168.216 23.0408C170.109 23.0408 171.824 23.4287 173.358 24.2044C174.892 24.9801 176.091 26.098 176.954 27.5581C177.841 28.9955 178.284 30.6724 178.284 32.5888ZM168.252 27.079C166.981 27.079 165.914 27.4213 165.051 28.1057C164.188 28.7901 163.661 29.7255 163.469 30.9119H172.998C172.806 29.7484 172.279 28.8244 171.416 28.1399C170.553 27.4327 169.498 27.079 168.252 27.079Z" fill="white"/>
<path d="M187.377 25.7444C188.048 24.8546 188.947 24.1815 190.074 23.7253C191.224 23.269 192.543 23.0408 194.029 23.0408V27.9688C193.406 27.9232 192.986 27.9004 192.771 27.9004C191.165 27.9004 189.906 28.3338 188.995 29.2008C188.084 30.045 187.629 31.3226 187.629 33.0337V41.7261H182.019V23.3146H187.377V25.7444Z" fill="white"/>
<path d="M203.944 41.9999C202.338 41.9999 200.767 41.8174 199.233 41.4524C197.699 41.0645 196.476 40.5854 195.565 40.015L197.435 36.1821C198.298 36.7069 199.341 37.1404 200.564 37.4826C201.786 37.802 202.985 37.9617 204.159 37.9617C206.533 37.9617 207.719 37.4027 207.719 36.2848C207.719 35.7601 207.396 35.3836 206.749 35.1555C206.101 34.9273 205.106 34.7334 203.764 34.5737C202.182 34.3455 200.875 34.0832 199.844 33.7866C198.813 33.49 197.915 32.9653 197.147 32.2124C196.404 31.4595 196.033 30.3872 196.033 28.9955C196.033 27.8319 196.38 26.8053 197.075 25.9155C197.795 25.0029 198.825 24.2956 200.168 23.7937C201.534 23.2918 203.141 23.0408 204.987 23.0408C206.353 23.0408 207.707 23.1891 209.05 23.4857C210.416 23.7595 211.543 24.1473 212.43 24.6493L210.56 28.4479C208.858 27.5353 207 27.079 204.987 27.079C203.788 27.079 202.889 27.2387 202.29 27.5581C201.69 27.8775 201.391 28.2882 201.391 28.7901C201.391 29.3605 201.714 29.7598 202.361 29.9879C203.009 30.2161 204.04 30.4328 205.454 30.6381C207.036 30.8891 208.331 31.1629 209.338 31.4595C210.344 31.7333 211.219 32.2466 211.963 32.9995C212.706 33.7524 213.077 34.8018 213.077 36.1479C213.077 37.2887 212.718 38.3039 211.999 39.1937C211.279 40.0835 210.225 40.7793 208.834 41.2813C207.468 41.7604 205.838 41.9999 203.944 41.9999Z" fill="white"/>
</g>
<circle opacity="0.05" cx="757" cy="25" r="24" stroke="white" stroke-width="2"/>
<circle opacity="0.05" cx="817" cy="25" r="24" stroke="white" stroke-width="2"/>
<circle opacity="0.05" cx="877" cy="25" r="24" stroke="white" stroke-width="2"/>
<circle opacity="0.05" cx="697" cy="25" r="24" stroke="white" stroke-width="2"/>
<circle opacity="0.05" cx="637" cy="25" r="24" stroke="white" stroke-width="2"/>
<g clip-path="url(#clip1_0_1)">
<path d="M761.167 16.6667H752.833C750.532 16.6667 748.667 18.5322 748.667 20.8334V29.1667C748.667 31.4679 750.532 33.3334 752.833 33.3334H761.167C763.468 33.3334 765.333 31.4679 765.333 29.1667V20.8334C765.333 18.5322 763.468 16.6667 761.167 16.6667Z" stroke="white" stroke-width="2" stroke-linecap="round" stroke-linejoin="round"/>
<path d="M760.333 24.475C760.436 25.1685 760.318 25.8769 759.995 26.4992C759.672 27.1215 759.161 27.6262 758.535 27.9414C757.908 28.2566 757.199 28.3663 756.506 28.2549C755.814 28.1436 755.175 27.8167 754.679 27.321C754.183 26.8252 753.856 26.1857 753.745 25.4935C753.634 24.8013 753.743 24.0916 754.059 23.4653C754.374 22.8391 754.878 22.3281 755.501 22.0052C756.123 21.6823 756.831 21.5638 757.525 21.6667C758.232 21.7716 758.887 22.1012 759.393 22.6069C759.899 23.1126 760.228 23.7676 760.333 24.475Z" stroke="white" stroke-width="2" stroke-linecap="round" stroke-linejoin="round"/>
<path d="M761.583 20.4167H761.592" stroke="white" stroke-width="2" stroke-linecap="round" stroke-linejoin="round"/>
</g>
<g clip-path="url(#clip2_0_1)">
<path d="M877 15.4167C871.475 15.4167 867 19.8167 867 25.2434C867 29.5859 869.865 33.2684 873.837 34.5667C874.337 34.6592 874.521 34.3551 874.521 34.0942C874.521 33.8609 874.512 33.2426 874.508 32.4234C871.727 33.0159 871.14 31.1051 871.14 31.1051C870.685 29.9709 870.027 29.6676 870.027 29.6676C869.122 29.0584 870.097 29.0709 870.097 29.0709C871.102 29.1392 871.629 30.0834 871.629 30.0834C872.521 31.5859 873.97 31.1517 874.542 30.9009C874.632 30.2651 874.889 29.8326 875.175 29.5867C872.954 29.3409 870.62 28.4959 870.62 24.7309C870.62 23.6584 871.007 22.7817 871.649 22.0942C871.537 21.8459 871.199 20.8467 871.737 19.4934C871.737 19.4934 872.574 19.2301 874.487 20.5009C875.287 20.2826 876.137 20.1742 876.987 20.1692C877.837 20.1742 878.687 20.2826 879.487 20.5009C881.387 19.2301 882.224 19.4934 882.224 19.4934C882.762 20.8467 882.424 21.8459 882.324 22.0942C882.962 22.7817 883.349 23.6584 883.349 24.7309C883.349 28.5059 881.012 29.3367 878.787 29.5784C879.137 29.8734 879.462 30.4759 879.462 31.3967C879.462 32.7118 879.449 33.7684 879.449 34.0876C879.449 34.3451 879.624 34.6526 880.137 34.5542C884.137 33.2642 887 29.5792 887 25.2434C887 19.8167 882.522 15.4167 877 15.4167Z" fill="white"/>
</g>
<path d="M646.167 17.5001C645.369 18.063 644.485 18.4935 643.55 18.7751C643.048 18.198 642.381 17.789 641.639 17.6034C640.897 17.4177 640.116 17.4644 639.402 17.7371C638.687 18.0098 638.074 18.4954 637.644 19.1282C637.215 19.7609 636.99 20.5104 637 21.2751V22.1084C635.536 22.1464 634.084 21.8216 632.776 21.163C631.467 20.5043 630.342 19.5323 629.5 18.3334C629.5 18.3334 626.167 25.8334 633.667 29.1667C631.95 30.3317 629.906 30.9159 627.833 30.8334C635.333 35.0001 644.5 30.8334 644.5 21.2501C644.499 21.018 644.477 20.7864 644.433 20.5584C645.284 19.7197 645.884 18.6607 646.167 17.5001Z" fill="white"/>
<path d="M694.848 27.9848L694.517 32.6382C694.99 32.6382 695.195 32.4349 695.441 32.1907L697.66 30.0698L702.259 33.4374C703.102 33.9074 703.696 33.6599 703.924 32.6615L706.942 18.5179L706.943 18.517C707.211 17.2703 706.492 16.7828 705.671 17.0887L687.929 23.8813C686.718 24.3513 686.736 25.0264 687.723 25.3322L692.259 26.7431L702.795 20.1504C703.291 19.8221 703.741 20.0037 703.371 20.3321L694.848 27.9848Z" fill="white"/>
<circle opacity="0.05" cx="937" cy="25" r="24" stroke="white" stroke-width="2"/>
<g clip-path="url(#clip3_0_1)">
<path d="M944.771 22.7567C944.139 22.7567 943.583 23.0226 943.174 23.4367C941.67 22.3801 939.642 21.7001 937.394 21.6276L938.562 16.2892L942.279 17.1359C942.279 18.0592 943.021 18.8134 943.931 18.8134C944.858 18.8134 945.604 18.0392 945.604 17.1151C945.604 16.1909 944.863 15.4167 943.932 15.4167C943.282 15.4167 942.722 15.8142 942.443 16.3576L938.337 15.4342C938.131 15.3784 937.928 15.5284 937.873 15.7384L936.592 21.6234C934.362 21.7176 932.355 22.3967 930.846 23.4542C930.437 23.0226 929.859 22.7567 929.227 22.7567C926.884 22.7567 926.117 25.9476 928.262 27.0384C928.187 27.3759 928.152 27.7359 928.152 28.0951C928.152 31.6792 932.132 34.5834 937.017 34.5834C941.924 34.5834 945.903 31.6792 945.903 28.0951C945.903 27.7359 945.866 27.3592 945.773 27.0209C947.876 25.9259 947.102 22.7584 944.771 22.7567ZM931.667 27.2651C931.667 26.3242 932.409 25.5667 933.341 25.5667C934.251 25.5667 934.993 26.3192 934.993 27.2651C934.993 28.1892 934.252 28.9426 933.341 28.9426C932.413 28.9467 931.667 28.1892 931.667 27.2651ZM940.7 31.2634C939.166 32.8201 934.837 32.8201 933.302 31.2634C933.132 31.1134 933.132 30.8484 933.302 30.6776C933.449 30.5276 933.711 30.5276 933.858 30.6776C935.03 31.8967 938.917 31.9176 940.139 30.6776C940.287 30.5276 940.548 30.5276 940.696 30.6776C940.868 30.8492 940.868 31.1142 940.7 31.2634ZM940.666 28.9459C939.756 28.9459 939.014 28.1934 939.014 27.2701C939.014 26.3292 939.756 25.5717 940.666 25.5717C941.593 25.5717 942.339 26.3242 942.339 27.2701C942.335 28.1892 941.593 28.9459 940.666 28.9459Z" fill="white"/>
</g>
<g clip-path="url(#clip4_0_1)">
<path d="M825.404 18.9441L827 17.4174V17.0833H821.472L817.532 26.8899L813.049 17.0833H807.252V17.4174L809.117 19.6616C809.298 19.8274 809.393 20.0699 809.369 20.3141V29.1333C809.427 29.4508 809.323 29.7774 809.1 30.0083L807 32.5533V32.8833H812.954V32.5491L810.854 30.0083C810.627 29.7766 810.519 29.4558 810.565 29.1333V21.5049L815.792 32.8874H816.399L820.893 21.5049V30.5724C820.893 30.8116 820.893 30.8608 820.737 31.0174L819.12 32.5816V32.9166H826.963V32.5824L825.405 31.0566C825.268 30.9533 825.198 30.7799 825.227 30.6116V19.3891C825.198 19.2199 825.267 19.0466 825.404 18.9441Z" fill="white"/>
</g>
<defs>
<linearGradient id="paint0_linear_0_1" x1="10.6969" y1="19.4497" x2="10.6969" y2="41.9999" gradientUnits="userSpaceOnUse">
<stop stop-color="#6275F6"/>
<stop offset="1" stop-color="#82E8FE"/>
</linearGradient>
<linearGradient id="paint1_linear_0_1" x1="32.4761" y1="13.6675" x2="32.4761" y2="41.9997" gradientUnits="userSpaceOnUse">
<stop stop-color="#C31A62"/>
<stop offset="1" stop-color="#EF0820"/>
</linearGradient>
<linearGradient id="paint2_linear_0_1" x1="21.3937" y1="13.6675" x2="21.3937" y2="41.9997" gradientUnits="userSpaceOnUse">
<stop stop-color="#8C31A2"/>
<stop offset="1" stop-color="#BF1B66"/>
</linearGradient>
<linearGradient id="paint3_linear_0_1" x1="16.1899" y1="29.8201" x2="16.1899" y2="41.9996" gradientUnits="userSpaceOnUse">
<stop stop-color="#6270F4"/>
<stop offset="1" stop-color="#84EBFD"/>
</linearGradient>
<linearGradient id="paint4_linear_0_1" x1="16.1899" y1="29.8201" x2="16.1899" y2="41.9996" gradientUnits="userSpaceOnUse">
<stop stop-color="#6270F4"/>
<stop offset="1" stop-color="#84EBFD"/>
</linearGradient>
<linearGradient id="paint5_linear_0_1" x1="44.1367" y1="7.5" x2="44.1367" y2="41.9998" gradientUnits="userSpaceOnUse">
<stop stop-color="#F8E64C"/>
<stop offset="1" stop-color="#EB3E49"/>
</linearGradient>
<linearGradient id="paint6_linear_0_1" x1="38.2582" y1="28.0764" x2="38.2582" y2="42" gradientUnits="userSpaceOnUse">
<stop stop-color="#FF344C"/>
<stop offset="1" stop-color="#FF6F5B"/>
</linearGradient>
<linearGradient id="paint7_linear_0_1" x1="38.2582" y1="28.0764" x2="38.2582" y2="42" gradientUnits="userSpaceOnUse">
<stop stop-color="#FF344C"/>
<stop offset="1" stop-color="#FF6F5B"/>
</linearGradient>
<clipPath id="clip0_0_1">
<rect width="219" height="35" fill="white" transform="translate(0 7)"/>
</clipPath>
<clipPath id="clip1_0_1">
<rect width="20" height="20" fill="white" transform="translate(747 15)"/>
</clipPath>
<clipPath id="clip2_0_1">
<rect width="20" height="20" fill="white" transform="translate(867 15)"/>
</clipPath>
<clipPath id="clip3_0_1">
<rect width="20" height="20" fill="white" transform="translate(927 15)"/>
</clipPath>
<clipPath id="clip4_0_1">
<rect width="20" height="20" fill="white" transform="translate(807 15)"/>
</clipPath>
</defs>
</svg>
