<svg width="809" height="19" viewBox="0 0 809 19" fill="none" xmlns="http://www.w3.org/2000/svg">
<path d="M427.56 8.224C427.56 6.528 428.147 5.10933 429.32 3.968C430.504 2.816 432.019 2.24 433.864 2.24C435.027 2.24 436.099 2.48 437.08 2.96V5.536C436.088 4.864 435.021 4.528 433.88 4.528C432.771 4.528 431.864 4.87467 431.16 5.568C430.456 6.26133 430.104 7.136 430.104 8.192C430.104 9.248 430.456 10.128 431.16 10.832C431.875 11.536 432.813 11.888 433.976 11.888C435.117 11.888 436.211 11.5307 437.256 10.816V13.408C436.296 13.92 435.165 14.176 433.864 14.176C432.019 14.176 430.504 13.6107 429.32 12.48C428.147 11.3493 427.56 9.93067 427.56 8.224ZM441.667 10.816C442.339 11.52 443.171 11.872 444.163 11.872C445.155 11.872 445.987 11.52 446.659 10.816C447.331 10.1013 447.667 9.232 447.667 8.208C447.667 7.184 447.331 6.32 446.659 5.616C445.987 4.90133 445.155 4.544 444.163 4.544C443.171 4.544 442.339 4.90133 441.667 5.616C440.995 6.32 440.659 7.184 440.659 8.208C440.659 9.232 440.995 10.1013 441.667 10.816ZM448.467 12.464C447.315 13.6053 445.88 14.176 444.163 14.176C442.445 14.176 441.005 13.6053 439.843 12.464C438.691 11.312 438.115 9.89333 438.115 8.208C438.115 6.52267 438.691 5.10933 439.843 3.968C441.005 2.816 442.445 2.24 444.163 2.24C445.88 2.24 447.315 2.816 448.467 3.968C449.629 5.10933 450.211 6.52267 450.211 8.208C450.211 9.89333 449.629 11.312 448.467 12.464ZM459.59 14L456.118 9.328C455.51 8.50667 454.785 7.50933 453.942 6.336L453.91 6.352C453.931 7.824 453.942 8.93867 453.942 9.696V14H451.494V2.416H453.894L457.366 7.088C457.974 7.90933 458.699 8.90667 459.542 10.08L459.574 10.064C459.553 8.592 459.542 7.47733 459.542 6.72V2.416H461.99V14H459.59ZM471.88 14L468.408 9.328C467.8 8.50667 467.074 7.50933 466.232 6.336L466.2 6.352C466.221 7.824 466.232 8.93867 466.232 9.696V14H463.784V2.416H466.184L469.656 7.088C470.264 7.90933 470.989 8.90667 471.832 10.08L471.864 10.064C471.842 8.592 471.832 7.47733 471.832 6.72V2.416H474.28V14H471.88ZM476.073 14V2.416H483.225V4.64H478.617V6.912H482.585V9.024H478.617V11.776H483.401V14H476.073ZM484.226 8.224C484.226 6.528 484.812 5.10933 485.986 3.968C487.17 2.816 488.684 2.24 490.53 2.24C491.692 2.24 492.764 2.48 493.746 2.96V5.536C492.754 4.864 491.687 4.528 490.546 4.528C489.436 4.528 488.53 4.87467 487.826 5.568C487.122 6.26133 486.77 7.136 486.77 8.192C486.77 9.248 487.122 10.128 487.826 10.832C488.54 11.536 489.479 11.888 490.642 11.888C491.783 11.888 492.876 11.5307 493.922 10.816V13.408C492.962 13.92 491.831 14.176 490.53 14.176C488.684 14.176 487.17 13.6107 485.986 12.48C484.812 11.3493 484.226 9.93067 484.226 8.224ZM498.22 14V4.64H494.476V2.416H504.508V4.64H500.764V14H498.22ZM511.557 14L508.021 2.416H510.693L512.165 7.392C512.453 8.352 512.73 9.34933 512.997 10.384H513.029C513.306 9.37067 513.599 8.368 513.909 7.376L515.445 2.416H517.301L518.821 7.376C519.173 8.51733 519.466 9.52 519.701 10.384H519.733C519.999 9.36 520.287 8.34667 520.597 7.344L522.085 2.416H524.645L521.077 14H518.389L517.141 9.92C516.831 8.93867 516.559 8.016 516.325 7.152H516.293C516.058 7.99467 515.781 8.93333 515.461 9.968L514.213 14H511.557ZM523.277 14L527.981 2.416H530.445L535.149 14H532.429L531.501 11.568H526.829L525.885 14H523.277ZM528.077 8.336L527.613 9.568H530.733L530.253 8.272C529.837 7.14133 529.485 6.16 529.197 5.328H529.165C528.824 6.29867 528.461 7.30133 528.077 8.336ZM535.934 14V2.416H538.478V11.776H543.55V14H535.934ZM544.489 14V2.416H547.033V11.776H552.105V14H544.489ZM553.044 14V2.416H560.196V4.64H555.588V6.912H559.556V9.024H555.588V11.776H560.372V14H553.044ZM564.621 14V4.64H560.877V2.416H570.909V4.64H567.165V14H564.621Z" fill="white"/>
<path d="M427 17.52H571.149V18.32H427V17.52Z" fill="white"/>
<path d="M226.984 14V4.64H223.24V2.416H233.272V4.64H229.528V14H226.984ZM236.87 10.816C237.542 11.52 238.374 11.872 239.366 11.872C240.358 11.872 241.19 11.52 241.862 10.816C242.534 10.1013 242.87 9.232 242.87 8.208C242.87 7.184 242.534 6.32 241.862 5.616C241.19 4.90133 240.358 4.544 239.366 4.544C238.374 4.544 237.542 4.90133 236.87 5.616C236.198 6.32 235.862 7.184 235.862 8.208C235.862 9.232 236.198 10.1013 236.87 10.816ZM243.67 12.464C242.518 13.6053 241.083 14.176 239.366 14.176C237.648 14.176 236.208 13.6053 235.046 12.464C233.894 11.312 233.318 9.89333 233.318 8.208C233.318 6.52267 233.894 5.10933 235.046 3.968C236.208 2.816 237.648 2.24 239.366 2.24C241.083 2.24 242.518 2.816 243.67 3.968C244.832 5.10933 245.414 6.52267 245.414 8.208C245.414 9.89333 244.832 11.312 243.67 12.464ZM246.697 14V2.416H249.241V7.536L249.273 7.552L253.321 2.416H256.345L251.961 7.792L256.713 14H253.577L249.273 8.208L249.241 8.224V14H246.697ZM257.159 14V2.416H264.311V4.64H259.703V6.912H263.671V9.024H259.703V11.776H264.487V14H257.159ZM273.903 14L270.431 9.328C269.823 8.50667 269.098 7.50933 268.255 6.336L268.223 6.352C268.245 7.824 268.255 8.93867 268.255 9.696V14H265.807V2.416H268.207L271.679 7.088C272.287 7.90933 273.013 8.90667 273.855 10.08L273.887 10.064C273.866 8.592 273.855 7.47733 273.855 6.72V2.416H276.303V14H273.903ZM278.017 13.36V10.8C278.603 11.1733 279.227 11.4613 279.889 11.664C280.561 11.856 281.147 11.952 281.649 11.952C282.139 11.952 282.529 11.8507 282.817 11.648C283.115 11.4453 283.265 11.136 283.265 10.72C283.265 10.5493 283.233 10.3947 283.169 10.256C283.105 10.1173 283.03 10.0053 282.945 9.92C282.859 9.83467 282.721 9.74933 282.529 9.664C282.337 9.57867 282.171 9.51467 282.033 9.472C281.894 9.42933 281.675 9.36533 281.377 9.28C281.089 9.19467 280.859 9.12533 280.689 9.072C279.739 8.76267 278.993 8.36267 278.449 7.872C277.915 7.37067 277.649 6.66133 277.649 5.744C277.649 4.66667 278.017 3.81333 278.753 3.184C279.499 2.55467 280.486 2.24 281.713 2.24C283.046 2.24 284.225 2.51733 285.249 3.072V5.584C284.673 5.22133 284.059 4.944 283.409 4.752C282.758 4.56 282.187 4.464 281.697 4.464C280.705 4.464 280.209 4.82667 280.209 5.552C280.209 5.75467 280.241 5.92533 280.305 6.064C280.379 6.20267 280.507 6.32533 280.689 6.432C280.881 6.528 281.046 6.60267 281.185 6.656C281.323 6.70933 281.563 6.78933 281.905 6.896C282.246 6.992 282.502 7.06667 282.673 7.12C283.686 7.45067 284.465 7.872 285.009 8.384C285.553 8.896 285.825 9.62133 285.825 10.56C285.825 11.68 285.435 12.5653 284.657 13.216C283.889 13.856 282.875 14.176 281.617 14.176C280.305 14.176 279.105 13.904 278.017 13.36Z" fill="white"/>
<path d="M223 17.52H286.257V18.32H223V17.52Z" fill="white"/>
<path d="M4.096 10.816C4.768 11.52 5.6 11.872 6.592 11.872C7.584 11.872 8.416 11.52 9.088 10.816C9.76 10.1013 10.096 9.232 10.096 8.208C10.096 7.184 9.76 6.32 9.088 5.616C8.416 4.90133 7.584 4.544 6.592 4.544C5.6 4.544 4.768 4.90133 4.096 5.616C3.424 6.32 3.088 7.184 3.088 8.208C3.088 9.232 3.424 10.1013 4.096 10.816ZM10.896 12.464C9.744 13.6053 8.30933 14.176 6.592 14.176C4.87467 14.176 3.43467 13.6053 2.272 12.464C1.12 11.312 0.544 9.89333 0.544 8.208C0.544 6.52267 1.12 5.10933 2.272 3.968C3.43467 2.816 4.87467 2.24 6.592 2.24C8.30933 2.24 9.744 2.816 10.896 3.968C12.0587 5.10933 12.64 6.52267 12.64 8.208C12.64 9.89333 12.0587 11.312 10.896 12.464ZM14.6755 12.288C14.0995 11.4347 13.8115 10.1547 13.8115 8.448V2.416H16.3555V8.352C16.3555 9.62133 16.5368 10.528 16.8995 11.072C17.2728 11.616 17.9448 11.888 18.9155 11.888C19.8328 11.888 20.4835 11.616 20.8675 11.072C21.2622 10.528 21.4595 9.62667 21.4595 8.368V2.416H23.9075V8.384C23.9075 10.1653 23.6088 11.4773 23.0115 12.32C22.5955 12.9067 22.0248 13.3653 21.2995 13.696C20.5848 14.016 19.7688 14.176 18.8515 14.176C17.9235 14.176 17.0968 14.0107 16.3715 13.68C15.6462 13.3493 15.0808 12.8853 14.6755 12.288ZM25.5879 14V2.416H29.2199C32.5479 2.416 34.2119 3.57867 34.2119 5.904C34.2119 6.66133 34.0092 7.32267 33.6039 7.888C33.1985 8.45333 32.6172 8.85867 31.8599 9.104L35.1239 14H32.1959L29.2679 9.424H28.1319V14H25.5879ZM28.1319 7.52H29.4119C30.1585 7.52 30.7185 7.408 31.0919 7.184C31.4759 6.96 31.6679 6.592 31.6679 6.08C31.6679 5.568 31.4705 5.2 31.0759 4.976C30.6919 4.752 30.0359 4.64 29.1079 4.64H28.1319V7.52ZM42.1259 14V4.64H38.3819V2.416H48.4139V4.64H44.6699V14H42.1259ZM49.3935 14V2.416H56.5455V4.64H51.9375V6.912H55.9055V9.024H51.9375V11.776H56.7215V14H49.3935ZM57.0343 14L61.7383 2.416H64.2023L68.9063 14H66.1863L65.2583 11.568H60.5863L59.6423 14H57.0343ZM61.8343 8.336L61.3703 9.568H64.4903L64.0103 8.272C63.5943 7.14133 63.2423 6.16 62.9543 5.328H62.9223C62.5809 6.29867 62.2183 7.30133 61.8343 8.336ZM75.515 11.328L73.835 8.944C73.323 8.21867 72.7577 7.392 72.139 6.464L72.107 6.48C72.1283 7.58933 72.139 8.54933 72.139 9.36V14H69.691V2.416H72.139L75.579 7.312L79.019 2.416H81.435V14H78.891V9.36C78.891 8.54933 78.9017 7.58933 78.923 6.48L78.891 6.464C78.2723 7.392 77.707 8.21867 77.195 8.944L75.515 11.328Z" fill="white"/>
<path d="M0 17.52H82.491V18.32H0V17.52Z" fill="white"/>
<path opacity="0.16" d="M149.096 14.608L154.504 1.808H156.36L150.952 14.608H149.096Z" fill="white"/>
<path opacity="0.16" d="M353.096 14.608L358.504 1.808H360.36L354.952 14.608H353.096Z" fill="white"/>
<path opacity="0.16" d="M638.096 14.608L643.504 1.808H645.36L639.952 14.608H638.096Z" fill="white"/>
<path d="M713.056 14V2.416H715.6V11.776H720.672V14H713.056ZM721.611 14V2.416H724.155V14H721.611ZM727.227 12.512C726.043 11.392 725.451 9.97333 725.451 8.256C725.451 6.53867 726.049 5.10933 727.243 3.968C728.438 2.816 729.953 2.24 731.787 2.24C733.099 2.24 734.283 2.53333 735.339 3.12V5.68C734.219 4.912 733.051 4.528 731.835 4.528C730.694 4.528 729.766 4.88533 729.051 5.6C728.347 6.304 727.995 7.184 727.995 8.24C727.995 9.28533 728.342 10.1653 729.035 10.88C729.739 11.5947 730.667 11.952 731.819 11.952C732.363 11.952 732.838 11.8667 733.243 11.696V9.952H731.227V7.84H735.707V13.216C734.555 13.856 733.243 14.176 731.771 14.176C729.926 14.176 728.411 13.6213 727.227 12.512ZM737.409 14V2.416H739.953V6.896H744.961V2.416H747.505V14H744.961V9.12H739.953V14H737.409ZM752.22 14V4.64H748.476V2.416H758.508V4.64H754.764V14H752.22ZM759.487 14V2.416H762.927C766.469 2.416 768.239 3.648 768.239 6.112C768.239 7.41333 767.781 8.36267 766.863 8.96C765.957 9.55733 764.613 9.856 762.831 9.856H762.031V14H759.487ZM762.031 7.792H762.959C763.983 7.792 764.693 7.67467 765.087 7.44C765.493 7.19467 765.695 6.79467 765.695 6.24C765.695 5.62133 765.477 5.2 765.039 4.976C764.613 4.752 763.898 4.64 762.895 4.64H762.031V7.792ZM767.753 14L772.457 2.416H774.921L779.625 14H776.905L775.977 11.568H771.305L770.361 14H767.753ZM772.553 8.336L772.089 9.568H775.209L774.729 8.272C774.313 7.14133 773.961 6.16 773.673 5.328H773.641C773.3 6.29867 772.937 7.30133 772.553 8.336ZM780.41 14V2.416H783.85C787.391 2.416 789.162 3.648 789.162 6.112C789.162 7.41333 788.703 8.36267 787.786 8.96C786.879 9.55733 785.535 9.856 783.754 9.856H782.954V14H780.41ZM782.954 7.792H783.882C784.906 7.792 785.615 7.67467 786.01 7.44C786.415 7.19467 786.618 6.79467 786.618 6.24C786.618 5.62133 786.399 5.2 785.962 4.976C785.535 4.752 784.82 4.64 783.818 4.64H782.954V7.792ZM790.309 14V2.416H797.461V4.64H792.853V6.912H796.821V9.024H792.853V11.776H797.637V14H790.309ZM798.957 14V2.416H802.589C805.917 2.416 807.581 3.57867 807.581 5.904C807.581 6.66133 807.379 7.32267 806.973 7.888C806.568 8.45333 805.987 8.85867 805.229 9.104L808.493 14H805.565L802.637 9.424H801.501V14H798.957ZM801.501 7.52H802.781C803.528 7.52 804.088 7.408 804.461 7.184C804.845 6.96 805.037 6.592 805.037 6.08C805.037 5.568 804.84 5.2 804.445 4.976C804.061 4.752 803.405 4.64 802.477 4.64H801.501V7.52Z" fill="white"/>
<path d="M712 17.52H808.349V18.32H712V17.52Z" fill="white"/>
</svg>
