<svg width="345" height="139" viewBox="0 0 345 139" fill="none" xmlns="http://www.w3.org/2000/svg">
<path opacity="0.7" d="M42.704 18.454L39.86 14.386C39.464 13.822 38.882 12.964 38.114 11.812L38.078 11.83C38.102 12.862 38.114 13.804 38.114 14.656V22H36.458V8.968H38.114L42.74 15.592L47.366 8.968H49.004V22H47.294V14.656C47.294 13.804 47.306 12.862 47.33 11.83L47.294 11.812C46.526 12.964 45.944 13.822 45.548 14.386L42.704 18.454ZM54.3388 22.198C53.4868 22.198 52.7848 21.988 52.2328 21.568C51.6088 21.1 51.2968 20.446 51.2968 19.606C51.2968 18.67 51.6868 17.95 52.4668 17.446C53.0788 17.05 53.9068 16.852 54.9508 16.852C55.5868 16.852 56.2168 16.93 56.8408 17.086V16.348C56.8408 15.7 56.6728 15.214 56.3368 14.89C55.9768 14.566 55.4308 14.404 54.6988 14.404C53.6908 14.404 52.7848 14.698 51.9808 15.286V13.702C52.8088 13.198 53.7928 12.946 54.9328 12.946C56.1088 12.946 56.9908 13.216 57.5788 13.756C58.1668 14.284 58.4608 15.058 58.4608 16.078V19.84C58.4608 20.464 58.6888 20.776 59.1448 20.776C59.3248 20.776 59.4988 20.734 59.6668 20.65V22C59.4028 22.108 59.1148 22.162 58.8028 22.162C57.9988 22.162 57.4288 21.85 57.0928 21.226H57.0568C56.7688 21.49 56.3788 21.718 55.8868 21.91C55.4068 22.102 54.8908 22.198 54.3388 22.198ZM54.6268 20.758C55.4548 20.758 56.1928 20.5 56.8408 19.984V18.328C56.3128 18.172 55.7368 18.094 55.1128 18.094C54.4888 18.094 53.9668 18.202 53.5468 18.418C53.1388 18.634 52.9348 18.982 52.9348 19.462C52.9348 19.882 53.0908 20.206 53.4028 20.434C53.7148 20.65 54.1228 20.758 54.6268 20.758ZM61.4708 10.912C61.2548 10.684 61.1468 10.414 61.1468 10.102C61.1468 9.79 61.2548 9.526 61.4708 9.31C61.6988 9.082 61.9688 8.968 62.2808 8.968C62.5928 8.968 62.8568 9.082 63.0728 9.31C63.3008 9.526 63.4148 9.79 63.4148 10.102C63.4148 10.414 63.3008 10.684 63.0728 10.912C62.8568 11.128 62.5928 11.236 62.2808 11.236C61.9688 11.236 61.6988 11.128 61.4708 10.912ZM61.4708 22V13.144H63.0908V22H61.4708ZM65.9357 22V13.144H67.5557V14.26L67.5917 14.278C68.4797 13.39 69.5117 12.946 70.6877 12.946C71.6837 12.946 72.4697 13.27 73.0457 13.918C73.5377 14.482 73.7837 15.352 73.7837 16.528V22H72.1637V16.834C72.1637 15.958 72.0257 15.358 71.7497 15.034C71.4257 14.65 70.9517 14.458 70.3277 14.458C69.8237 14.458 69.3137 14.596 68.7977 14.872C68.2937 15.148 67.8797 15.502 67.5557 15.934V22H65.9357ZM76.354 21.496V19.804C77.35 20.428 78.472 20.74 79.72 20.74C81.064 20.74 81.736 20.332 81.736 19.516C81.736 19.372 81.712 19.246 81.664 19.138C81.628 19.018 81.556 18.916 81.448 18.832C81.34 18.748 81.232 18.682 81.124 18.634C81.028 18.574 80.884 18.526 80.692 18.49C80.5 18.442 80.344 18.406 80.224 18.382C80.104 18.358 79.918 18.328 79.666 18.292C79.414 18.256 79.222 18.226 79.09 18.202C78.106 18.034 77.356 17.77 76.84 17.41C76.324 17.05 76.066 16.468 76.066 15.664C76.078 14.776 76.414 14.104 77.074 13.648C77.746 13.18 78.622 12.946 79.702 12.946C80.926 12.946 81.982 13.18 82.87 13.648V15.268C81.886 14.692 80.806 14.404 79.63 14.404C78.346 14.404 77.704 14.782 77.704 15.538C77.704 15.682 77.722 15.808 77.758 15.916C77.806 16.024 77.878 16.114 77.974 16.186C78.082 16.258 78.184 16.324 78.28 16.384C78.388 16.432 78.532 16.474 78.712 16.51C78.892 16.546 79.048 16.576 79.18 16.6C79.312 16.624 79.492 16.654 79.72 16.69C79.96 16.726 80.146 16.756 80.278 16.78C80.758 16.864 81.16 16.96 81.484 17.068C81.82 17.164 82.138 17.308 82.438 17.5C82.75 17.68 82.984 17.926 83.14 18.238C83.296 18.55 83.374 18.928 83.374 19.372C83.374 20.332 83.014 21.046 82.294 21.514C81.586 21.97 80.704 22.198 79.648 22.198C78.364 22.198 77.266 21.964 76.354 21.496ZM86.9204 21.37C86.4764 20.866 86.2544 20.05 86.2544 18.922V14.602H84.6164V13.144H86.2544V10.732L87.8744 10.462V13.144H90.5384V14.602H87.8744V18.616C87.8744 19.276 87.9644 19.792 88.1444 20.164C88.3244 20.536 88.6784 20.722 89.2064 20.722C89.6984 20.722 90.1424 20.596 90.5384 20.344V21.874C90.1064 22.09 89.5724 22.198 88.9364 22.198C88.0724 22.198 87.4004 21.922 86.9204 21.37ZM92.5665 22V13.144H94.1865V14.44L94.2225 14.458C94.8825 13.534 95.7585 13.072 96.8505 13.072C97.0545 13.072 97.2465 13.096 97.4265 13.144V14.746C97.2345 14.698 97.0245 14.674 96.7965 14.674C95.6685 14.674 94.7985 15.196 94.1865 16.24V22H92.5665ZM106.741 18.04H99.973C100.093 18.892 100.447 19.558 101.035 20.038C101.623 20.506 102.361 20.74 103.249 20.74C104.317 20.74 105.337 20.374 106.309 19.642V21.37C105.445 21.922 104.389 22.198 103.141 22.198C101.749 22.198 100.603 21.772 99.703 20.92C98.803 20.068 98.353 18.952 98.353 17.572C98.353 16.216 98.779 15.106 99.631 14.242C100.495 13.378 101.539 12.946 102.763 12.946C103.903 12.946 104.857 13.33 105.625 14.098C106.405 14.854 106.795 15.898 106.795 17.23C106.795 17.554 106.777 17.824 106.741 18.04ZM102.727 14.404C102.091 14.404 101.509 14.608 100.981 15.016C100.465 15.412 100.141 15.994 100.009 16.762H105.229C105.169 15.958 104.893 15.364 104.401 14.98C103.909 14.596 103.351 14.404 102.727 14.404ZM111.556 22.198C110.704 22.198 110.002 21.988 109.45 21.568C108.826 21.1 108.514 20.446 108.514 19.606C108.514 18.67 108.904 17.95 109.684 17.446C110.296 17.05 111.124 16.852 112.168 16.852C112.804 16.852 113.434 16.93 114.058 17.086V16.348C114.058 15.7 113.89 15.214 113.554 14.89C113.194 14.566 112.648 14.404 111.916 14.404C110.908 14.404 110.002 14.698 109.198 15.286V13.702C110.026 13.198 111.01 12.946 112.15 12.946C113.326 12.946 114.208 13.216 114.796 13.756C115.384 14.284 115.678 15.058 115.678 16.078V19.84C115.678 20.464 115.906 20.776 116.362 20.776C116.542 20.776 116.716 20.734 116.884 20.65V22C116.62 22.108 116.332 22.162 116.02 22.162C115.216 22.162 114.646 21.85 114.31 21.226H114.274C113.986 21.49 113.596 21.718 113.104 21.91C112.624 22.102 112.108 22.198 111.556 22.198ZM111.844 20.758C112.672 20.758 113.41 20.5 114.058 19.984V18.328C113.53 18.172 112.954 18.094 112.33 18.094C111.706 18.094 111.184 18.202 110.764 18.418C110.356 18.634 110.152 18.982 110.152 19.462C110.152 19.882 110.308 20.206 110.62 20.434C110.932 20.65 111.34 20.758 111.844 20.758ZM130.874 22V16.762C130.874 15.934 130.724 15.346 130.424 14.998C130.112 14.638 129.662 14.458 129.074 14.458C128.582 14.458 128.09 14.596 127.598 14.872C127.106 15.136 126.698 15.46 126.374 15.844C126.386 15.976 126.392 16.186 126.392 16.474V22H124.772V16.762C124.772 15.922 124.634 15.34 124.358 15.016C124.034 14.644 123.584 14.458 123.008 14.458C122.516 14.458 122.024 14.59 121.532 14.854C121.04 15.118 120.632 15.448 120.308 15.844V22H118.688V13.144H120.308V14.224L120.344 14.242C121.208 13.378 122.21 12.946 123.35 12.946C123.926 12.946 124.454 13.078 124.934 13.342C125.426 13.594 125.804 13.972 126.068 14.476C127.148 13.456 128.27 12.946 129.434 12.946C130.43 12.946 131.204 13.258 131.756 13.882C132.248 14.422 132.494 15.286 132.494 16.474V22H130.874ZM141.278 21.73V25.96H139.658V13.144H141.278V13.72L141.314 13.738C142.058 13.21 142.898 12.946 143.834 12.946C145.046 12.946 146.06 13.378 146.876 14.242C147.704 15.094 148.118 16.192 148.118 17.536C148.118 18.928 147.674 20.056 146.786 20.92C145.898 21.772 144.8 22.198 143.492 22.198C142.712 22.198 141.986 22.036 141.314 21.712L141.278 21.73ZM141.278 20.164C142.022 20.572 142.772 20.776 143.528 20.776C144.404 20.776 145.112 20.488 145.652 19.912C146.204 19.324 146.48 18.574 146.48 17.662C146.48 16.738 146.21 15.964 145.67 15.34C145.13 14.716 144.428 14.404 143.564 14.404C142.688 14.404 141.926 14.674 141.278 15.214V20.164ZM152.811 22.198C151.959 22.198 151.257 21.988 150.705 21.568C150.081 21.1 149.769 20.446 149.769 19.606C149.769 18.67 150.159 17.95 150.939 17.446C151.551 17.05 152.379 16.852 153.423 16.852C154.059 16.852 154.689 16.93 155.313 17.086V16.348C155.313 15.7 155.145 15.214 154.809 14.89C154.449 14.566 153.903 14.404 153.171 14.404C152.163 14.404 151.257 14.698 150.453 15.286V13.702C151.281 13.198 152.265 12.946 153.405 12.946C154.581 12.946 155.463 13.216 156.051 13.756C156.639 14.284 156.933 15.058 156.933 16.078V19.84C156.933 20.464 157.161 20.776 157.617 20.776C157.797 20.776 157.971 20.734 158.139 20.65V22C157.875 22.108 157.587 22.162 157.275 22.162C156.471 22.162 155.901 21.85 155.565 21.226H155.529C155.241 21.49 154.851 21.718 154.359 21.91C153.879 22.102 153.363 22.198 152.811 22.198ZM153.099 20.758C153.927 20.758 154.665 20.5 155.313 19.984V18.328C154.785 18.172 154.209 18.094 153.585 18.094C152.961 18.094 152.439 18.202 152.019 18.418C151.611 18.634 151.407 18.982 151.407 19.462C151.407 19.882 151.563 20.206 151.875 20.434C152.187 20.65 152.595 20.758 153.099 20.758ZM159.943 22V13.144H161.563V14.44L161.599 14.458C162.259 13.534 163.135 13.072 164.227 13.072C164.431 13.072 164.623 13.096 164.803 13.144V14.746C164.611 14.698 164.401 14.674 164.173 14.674C163.045 14.674 162.175 15.196 161.563 16.24V22H159.943ZM168.008 21.37C167.564 20.866 167.342 20.05 167.342 18.922V14.602H165.704V13.144H167.342V10.732L168.962 10.462V13.144H171.626V14.602H168.962V18.616C168.962 19.276 169.052 19.792 169.232 20.164C169.412 20.536 169.766 20.722 170.294 20.722C170.786 20.722 171.23 20.596 171.626 20.344V21.874C171.194 22.09 170.66 22.198 170.024 22.198C169.16 22.198 168.488 21.922 168.008 21.37ZM173.654 22V13.144H175.274V14.26L175.31 14.278C176.198 13.39 177.23 12.946 178.406 12.946C179.402 12.946 180.188 13.27 180.764 13.918C181.256 14.482 181.502 15.352 181.502 16.528V22H179.882V16.834C179.882 15.958 179.744 15.358 179.468 15.034C179.144 14.65 178.67 14.458 178.046 14.458C177.542 14.458 177.032 14.596 176.516 14.872C176.012 15.148 175.598 15.502 175.274 15.934V22H173.654ZM192.083 18.04H185.315C185.435 18.892 185.789 19.558 186.377 20.038C186.965 20.506 187.703 20.74 188.591 20.74C189.659 20.74 190.679 20.374 191.651 19.642V21.37C190.787 21.922 189.731 22.198 188.483 22.198C187.091 22.198 185.945 21.772 185.045 20.92C184.145 20.068 183.695 18.952 183.695 17.572C183.695 16.216 184.121 15.106 184.973 14.242C185.837 13.378 186.881 12.946 188.105 12.946C189.245 12.946 190.199 13.33 190.967 14.098C191.747 14.854 192.137 15.898 192.137 17.23C192.137 17.554 192.119 17.824 192.083 18.04ZM188.069 14.404C187.433 14.404 186.851 14.608 186.323 15.016C185.807 15.412 185.483 15.994 185.351 16.762H190.571C190.511 15.958 190.235 15.364 189.743 14.98C189.251 14.596 188.693 14.404 188.069 14.404ZM194.449 22V13.144H196.069V14.44L196.105 14.458C196.765 13.534 197.641 13.072 198.733 13.072C198.937 13.072 199.129 13.096 199.309 13.144V14.746C199.117 14.698 198.907 14.674 198.679 14.674C197.551 14.674 196.681 15.196 196.069 16.24V22H194.449ZM200.825 21.496V19.804C201.821 20.428 202.943 20.74 204.191 20.74C205.535 20.74 206.207 20.332 206.207 19.516C206.207 19.372 206.183 19.246 206.135 19.138C206.099 19.018 206.027 18.916 205.919 18.832C205.811 18.748 205.703 18.682 205.595 18.634C205.499 18.574 205.355 18.526 205.163 18.49C204.971 18.442 204.815 18.406 204.695 18.382C204.575 18.358 204.389 18.328 204.137 18.292C203.885 18.256 203.693 18.226 203.561 18.202C202.577 18.034 201.827 17.77 201.311 17.41C200.795 17.05 200.537 16.468 200.537 15.664C200.549 14.776 200.885 14.104 201.545 13.648C202.217 13.18 203.093 12.946 204.173 12.946C205.397 12.946 206.453 13.18 207.341 13.648V15.268C206.357 14.692 205.277 14.404 204.101 14.404C202.817 14.404 202.175 14.782 202.175 15.538C202.175 15.682 202.193 15.808 202.229 15.916C202.277 16.024 202.349 16.114 202.445 16.186C202.553 16.258 202.655 16.324 202.751 16.384C202.859 16.432 203.003 16.474 203.183 16.51C203.363 16.546 203.519 16.576 203.651 16.6C203.783 16.624 203.963 16.654 204.191 16.69C204.431 16.726 204.617 16.756 204.749 16.78C205.229 16.864 205.631 16.96 205.955 17.068C206.291 17.164 206.609 17.308 206.909 17.5C207.221 17.68 207.455 17.926 207.611 18.238C207.767 18.55 207.845 18.928 207.845 19.372C207.845 20.332 207.485 21.046 206.765 21.514C206.057 21.97 205.175 22.198 204.119 22.198C202.835 22.198 201.737 21.964 200.825 21.496ZM210.041 22V8.248H211.661V14.26L211.697 14.278C212.585 13.39 213.617 12.946 214.793 12.946C215.789 12.946 216.575 13.27 217.151 13.918C217.643 14.482 217.889 15.352 217.889 16.528V22H216.269V16.834C216.269 15.958 216.125 15.358 215.837 15.034C215.501 14.65 215.051 14.458 214.487 14.458C213.971 14.458 213.455 14.596 212.939 14.872C212.435 15.148 212.009 15.502 211.661 15.934V22H210.041ZM220.693 10.912C220.477 10.684 220.369 10.414 220.369 10.102C220.369 9.79 220.477 9.526 220.693 9.31C220.921 9.082 221.191 8.968 221.503 8.968C221.815 8.968 222.079 9.082 222.295 9.31C222.523 9.526 222.637 9.79 222.637 10.102C222.637 10.414 222.523 10.684 222.295 10.912C222.079 11.128 221.815 11.236 221.503 11.236C221.191 11.236 220.921 11.128 220.693 10.912ZM220.693 22V13.144H222.313V22H220.693ZM226.778 21.73V25.96H225.158V13.144H226.778V13.72L226.814 13.738C227.558 13.21 228.398 12.946 229.334 12.946C230.546 12.946 231.56 13.378 232.376 14.242C233.204 15.094 233.618 16.192 233.618 17.536C233.618 18.928 233.174 20.056 232.286 20.92C231.398 21.772 230.3 22.198 228.992 22.198C228.212 22.198 227.486 22.036 226.814 21.712L226.778 21.73ZM226.778 20.164C227.522 20.572 228.272 20.776 229.028 20.776C229.904 20.776 230.612 20.488 231.152 19.912C231.704 19.324 231.98 18.574 231.98 17.662C231.98 16.738 231.71 15.964 231.17 15.34C230.63 14.716 229.928 14.404 229.064 14.404C228.188 14.404 227.426 14.674 226.778 15.214V20.164ZM235.629 21.496V19.804C236.625 20.428 237.747 20.74 238.995 20.74C240.339 20.74 241.011 20.332 241.011 19.516C241.011 19.372 240.987 19.246 240.939 19.138C240.903 19.018 240.831 18.916 240.723 18.832C240.615 18.748 240.507 18.682 240.399 18.634C240.303 18.574 240.159 18.526 239.967 18.49C239.775 18.442 239.619 18.406 239.499 18.382C239.379 18.358 239.193 18.328 238.941 18.292C238.689 18.256 238.497 18.226 238.365 18.202C237.381 18.034 236.631 17.77 236.115 17.41C235.599 17.05 235.341 16.468 235.341 15.664C235.353 14.776 235.689 14.104 236.349 13.648C237.021 13.18 237.897 12.946 238.977 12.946C240.201 12.946 241.257 13.18 242.145 13.648V15.268C241.161 14.692 240.081 14.404 238.905 14.404C237.621 14.404 236.979 14.782 236.979 15.538C236.979 15.682 236.997 15.808 237.033 15.916C237.081 16.024 237.153 16.114 237.249 16.186C237.357 16.258 237.459 16.324 237.555 16.384C237.663 16.432 237.807 16.474 237.987 16.51C238.167 16.546 238.323 16.576 238.455 16.6C238.587 16.624 238.767 16.654 238.995 16.69C239.235 16.726 239.421 16.756 239.553 16.78C240.033 16.864 240.435 16.96 240.759 17.068C241.095 17.164 241.413 17.308 241.713 17.5C242.025 17.68 242.259 17.926 242.415 18.238C242.571 18.55 242.649 18.928 242.649 19.372C242.649 20.332 242.289 21.046 241.569 21.514C240.861 21.97 239.979 22.198 238.923 22.198C237.639 22.198 236.541 21.964 235.629 21.496ZM36.008 55.334L36.134 53.552C37.094 54.26 38.144 54.614 39.284 54.614C40.148 54.614 40.85 54.41 41.39 54.002C41.93 53.582 42.2 53.018 42.2 52.31C42.2 51.83 42.068 51.416 41.804 51.068C41.552 50.72 41.21 50.456 40.778 50.276C40.346 50.096 39.902 49.97 39.446 49.898C38.99 49.814 38.51 49.772 38.006 49.772C37.502 49.772 37.016 49.808 36.548 49.88L37.07 42.968H43.55L43.424 44.516H38.654L38.384 48.278C39.104 48.278 39.776 48.35 40.4 48.494C41.024 48.626 41.606 48.842 42.146 49.142C42.686 49.43 43.112 49.844 43.424 50.384C43.748 50.912 43.91 51.53 43.91 52.238C43.91 53.438 43.484 54.398 42.632 55.118C41.78 55.838 40.664 56.198 39.284 56.198C38.012 56.198 36.92 55.91 36.008 55.334ZM53.557 54.614C52.777 55.67 51.709 56.198 50.353 56.198C48.997 56.198 47.929 55.67 47.149 54.614C46.321 53.486 45.907 51.776 45.907 49.484C45.907 47.192 46.321 45.482 47.149 44.354C47.929 43.298 48.997 42.77 50.353 42.77C51.709 42.77 52.777 43.298 53.557 44.354C54.385 45.482 54.799 47.192 54.799 49.484C54.799 51.776 54.385 53.486 53.557 54.614ZM48.553 53.732C49.021 54.32 49.621 54.614 50.353 54.614C51.085 54.614 51.685 54.32 52.153 53.732C52.777 52.928 53.089 51.512 53.089 49.484C53.089 47.456 52.777 46.04 52.153 45.236C51.685 44.648 51.085 44.354 50.353 44.354C49.621 44.354 49.021 44.648 48.553 45.236C47.929 46.04 47.617 47.456 47.617 49.484C47.617 51.512 47.929 52.928 48.553 53.732ZM64.684 54.614C63.904 55.67 62.836 56.198 61.48 56.198C60.124 56.198 59.056 55.67 58.276 54.614C57.448 53.486 57.034 51.776 57.034 49.484C57.034 47.192 57.448 45.482 58.276 44.354C59.056 43.298 60.124 42.77 61.48 42.77C62.836 42.77 63.904 43.298 64.684 44.354C65.512 45.482 65.926 47.192 65.926 49.484C65.926 51.776 65.512 53.486 64.684 54.614ZM59.68 53.732C60.148 54.32 60.748 54.614 61.48 54.614C62.212 54.614 62.812 54.32 63.28 53.732C63.904 52.928 64.216 51.512 64.216 49.484C64.216 47.456 63.904 46.04 63.28 45.236C62.812 44.648 62.212 44.354 61.48 44.354C60.748 44.354 60.148 44.648 59.68 45.236C59.056 46.04 58.744 47.456 58.744 49.484C58.744 51.512 59.056 52.928 59.68 53.732ZM75.2743 56.198C74.4223 56.198 73.7203 55.988 73.1683 55.568C72.5443 55.1 72.2323 54.446 72.2323 53.606C72.2323 52.67 72.6223 51.95 73.4023 51.446C74.0143 51.05 74.8423 50.852 75.8863 50.852C76.5223 50.852 77.1523 50.93 77.7763 51.086V50.348C77.7763 49.7 77.6083 49.214 77.2723 48.89C76.9123 48.566 76.3663 48.404 75.6343 48.404C74.6263 48.404 73.7203 48.698 72.9163 49.286V47.702C73.7443 47.198 74.7283 46.946 75.8683 46.946C77.0443 46.946 77.9263 47.216 78.5143 47.756C79.1023 48.284 79.3963 49.058 79.3963 50.078V53.84C79.3963 54.464 79.6243 54.776 80.0803 54.776C80.2603 54.776 80.4343 54.734 80.6023 54.65V56C80.3383 56.108 80.0503 56.162 79.7383 56.162C78.9343 56.162 78.3643 55.85 78.0283 55.226H77.9923C77.7043 55.49 77.3143 55.718 76.8223 55.91C76.3423 56.102 75.8263 56.198 75.2743 56.198ZM75.5623 54.758C76.3903 54.758 77.1283 54.5 77.7763 53.984V52.328C77.2483 52.172 76.6723 52.094 76.0483 52.094C75.4243 52.094 74.9023 52.202 74.4823 52.418C74.0743 52.634 73.8703 52.982 73.8703 53.462C73.8703 53.882 74.0263 54.206 74.3383 54.434C74.6503 54.65 75.0583 54.758 75.5623 54.758ZM89.2464 53.858V55.586C88.5024 55.994 87.6204 56.198 86.6004 56.198C85.1964 56.198 84.0444 55.766 83.1444 54.902C82.2444 54.038 81.7944 52.946 81.7944 51.626C81.7944 50.27 82.2624 49.154 83.1984 48.278C84.1464 47.39 85.3164 46.946 86.7084 46.946C87.5844 46.946 88.3824 47.132 89.1024 47.504V49.178C88.3104 48.674 87.4884 48.422 86.6364 48.422C85.6884 48.422 84.9144 48.728 84.3144 49.34C83.7264 49.952 83.4324 50.714 83.4324 51.626C83.4324 52.538 83.7324 53.282 84.3324 53.858C84.9444 54.434 85.7304 54.722 86.6904 54.722C87.6624 54.722 88.5144 54.434 89.2464 53.858ZM92.9322 55.37C92.4882 54.866 92.2662 54.05 92.2662 52.922V48.602H90.6282V47.144H92.2662V44.732L93.8862 44.462V47.144H96.5502V48.602H93.8862V52.616C93.8862 53.276 93.9762 53.792 94.1562 54.164C94.3362 54.536 94.6902 54.722 95.2182 54.722C95.7102 54.722 96.1542 54.596 96.5502 54.344V55.874C96.1182 56.09 95.5842 56.198 94.9482 56.198C94.0842 56.198 93.4122 55.922 92.9322 55.37ZM98.5783 44.912C98.3623 44.684 98.2543 44.414 98.2543 44.102C98.2543 43.79 98.3623 43.526 98.5783 43.31C98.8063 43.082 99.0763 42.968 99.3883 42.968C99.7003 42.968 99.9643 43.082 100.18 43.31C100.408 43.526 100.522 43.79 100.522 44.102C100.522 44.414 100.408 44.684 100.18 44.912C99.9643 45.128 99.7003 45.236 99.3883 45.236C99.0763 45.236 98.8063 45.128 98.5783 44.912ZM98.5783 56V47.144H100.198V56H98.5783ZM105.743 56L102.017 47.144H103.781L105.419 51.14C105.827 52.148 106.205 53.096 106.553 53.984H106.589C106.949 53.072 107.345 52.088 107.777 51.032L109.379 47.144H111.071L107.363 56H105.743ZM120.188 52.04H113.42C113.54 52.892 113.894 53.558 114.482 54.038C115.07 54.506 115.808 54.74 116.696 54.74C117.764 54.74 118.784 54.374 119.756 53.642V55.37C118.892 55.922 117.836 56.198 116.588 56.198C115.196 56.198 114.05 55.772 113.15 54.92C112.25 54.068 111.8 52.952 111.8 51.572C111.8 50.216 112.226 49.106 113.078 48.242C113.942 47.378 114.986 46.946 116.21 46.946C117.35 46.946 118.304 47.33 119.072 48.098C119.852 48.854 120.242 49.898 120.242 51.23C120.242 51.554 120.224 51.824 120.188 52.04ZM116.174 48.404C115.538 48.404 114.956 48.608 114.428 49.016C113.912 49.412 113.588 49.994 113.456 50.762H118.676C118.616 49.958 118.34 49.364 117.848 48.98C117.356 48.596 116.798 48.404 116.174 48.404ZM133.754 53.858V55.586C133.01 55.994 132.128 56.198 131.108 56.198C129.704 56.198 128.552 55.766 127.652 54.902C126.752 54.038 126.302 52.946 126.302 51.626C126.302 50.27 126.77 49.154 127.706 48.278C128.654 47.39 129.824 46.946 131.216 46.946C132.092 46.946 132.89 47.132 133.61 47.504V49.178C132.818 48.674 131.996 48.422 131.144 48.422C130.196 48.422 129.422 48.728 128.822 49.34C128.234 49.952 127.94 50.714 127.94 51.626C127.94 52.538 128.24 53.282 128.84 53.858C129.452 54.434 130.238 54.722 131.198 54.722C132.17 54.722 133.022 54.434 133.754 53.858ZM136.09 56V47.144H137.71V48.44L137.746 48.458C138.406 47.534 139.282 47.072 140.374 47.072C140.578 47.072 140.77 47.096 140.95 47.144V48.746C140.758 48.698 140.548 48.674 140.32 48.674C139.192 48.674 138.322 49.196 137.71 50.24V56H136.09ZM150.264 52.04H143.496C143.616 52.892 143.97 53.558 144.558 54.038C145.146 54.506 145.884 54.74 146.772 54.74C147.84 54.74 148.86 54.374 149.832 53.642V55.37C148.968 55.922 147.912 56.198 146.664 56.198C145.272 56.198 144.126 55.772 143.226 54.92C142.326 54.068 141.876 52.952 141.876 51.572C141.876 50.216 142.302 49.106 143.154 48.242C144.018 47.378 145.062 46.946 146.286 46.946C147.426 46.946 148.38 47.33 149.148 48.098C149.928 48.854 150.318 49.898 150.318 51.23C150.318 51.554 150.3 51.824 150.264 52.04ZM146.25 48.404C145.614 48.404 145.032 48.608 144.504 49.016C143.988 49.412 143.664 49.994 143.532 50.762H148.752C148.692 49.958 148.416 49.364 147.924 48.98C147.432 48.596 146.874 48.404 146.25 48.404ZM155.079 56.198C154.227 56.198 153.525 55.988 152.973 55.568C152.349 55.1 152.037 54.446 152.037 53.606C152.037 52.67 152.427 51.95 153.207 51.446C153.819 51.05 154.647 50.852 155.691 50.852C156.327 50.852 156.957 50.93 157.581 51.086V50.348C157.581 49.7 157.413 49.214 157.077 48.89C156.717 48.566 156.171 48.404 155.439 48.404C154.431 48.404 153.525 48.698 152.721 49.286V47.702C153.549 47.198 154.533 46.946 155.673 46.946C156.849 46.946 157.731 47.216 158.319 47.756C158.907 48.284 159.201 49.058 159.201 50.078V53.84C159.201 54.464 159.429 54.776 159.885 54.776C160.065 54.776 160.239 54.734 160.407 54.65V56C160.143 56.108 159.855 56.162 159.543 56.162C158.739 56.162 158.169 55.85 157.833 55.226H157.797C157.509 55.49 157.119 55.718 156.627 55.91C156.147 56.102 155.631 56.198 155.079 56.198ZM155.367 54.758C156.195 54.758 156.933 54.5 157.581 53.984V52.328C157.053 52.172 156.477 52.094 155.853 52.094C155.229 52.094 154.707 52.202 154.287 52.418C153.879 52.634 153.675 52.982 153.675 53.462C153.675 53.882 153.831 54.206 154.143 54.434C154.455 54.65 154.863 54.758 155.367 54.758ZM163.561 55.37C163.117 54.866 162.895 54.05 162.895 52.922V48.602H161.257V47.144H162.895V44.732L164.515 44.462V47.144H167.179V48.602H164.515V52.616C164.515 53.276 164.605 53.792 164.785 54.164C164.965 54.536 165.319 54.722 165.847 54.722C166.339 54.722 166.783 54.596 167.179 54.344V55.874C166.747 56.09 166.213 56.198 165.577 56.198C164.713 56.198 164.041 55.922 163.561 55.37ZM169.716 54.866C168.828 53.978 168.384 52.88 168.384 51.572C168.384 50.264 168.828 49.166 169.716 48.278C170.616 47.39 171.732 46.946 173.064 46.946C174.396 46.946 175.506 47.39 176.394 48.278C177.294 49.166 177.744 50.264 177.744 51.572C177.744 52.88 177.294 53.978 176.394 54.866C175.506 55.754 174.396 56.198 173.064 56.198C171.732 56.198 170.616 55.754 169.716 54.866ZM170.868 49.322C170.292 49.922 170.004 50.672 170.004 51.572C170.004 52.472 170.292 53.222 170.868 53.822C171.456 54.422 172.188 54.722 173.064 54.722C173.94 54.722 174.666 54.422 175.242 53.822C175.83 53.222 176.124 52.472 176.124 51.572C176.124 50.672 175.83 49.922 175.242 49.322C174.666 48.722 173.94 48.422 173.064 48.422C172.188 48.422 171.456 48.722 170.868 49.322ZM179.983 56V47.144H181.603V48.44L181.639 48.458C182.299 47.534 183.175 47.072 184.267 47.072C184.471 47.072 184.663 47.096 184.843 47.144V48.746C184.651 48.698 184.441 48.674 184.213 48.674C183.085 48.674 182.215 49.196 181.603 50.24V56H179.983ZM197.791 53.858V55.586C197.047 55.994 196.165 56.198 195.145 56.198C193.741 56.198 192.589 55.766 191.689 54.902C190.789 54.038 190.339 52.946 190.339 51.626C190.339 50.27 190.807 49.154 191.743 48.278C192.691 47.39 193.861 46.946 195.253 46.946C196.129 46.946 196.927 47.132 197.647 47.504V49.178C196.855 48.674 196.033 48.422 195.181 48.422C194.233 48.422 193.459 48.728 192.859 49.34C192.271 49.952 191.977 50.714 191.977 51.626C191.977 52.538 192.277 53.282 192.877 53.858C193.489 54.434 194.275 54.722 195.235 54.722C196.207 54.722 197.059 54.434 197.791 53.858ZM200.812 54.866C199.924 53.978 199.48 52.88 199.48 51.572C199.48 50.264 199.924 49.166 200.812 48.278C201.712 47.39 202.828 46.946 204.16 46.946C205.492 46.946 206.602 47.39 207.49 48.278C208.39 49.166 208.84 50.264 208.84 51.572C208.84 52.88 208.39 53.978 207.49 54.866C206.602 55.754 205.492 56.198 204.16 56.198C202.828 56.198 201.712 55.754 200.812 54.866ZM201.964 49.322C201.388 49.922 201.1 50.672 201.1 51.572C201.1 52.472 201.388 53.222 201.964 53.822C202.552 54.422 203.284 54.722 204.16 54.722C205.036 54.722 205.762 54.422 206.338 53.822C206.926 53.222 207.22 52.472 207.22 51.572C207.22 50.672 206.926 49.922 206.338 49.322C205.762 48.722 205.036 48.422 204.16 48.422C203.284 48.422 202.552 48.722 201.964 49.322ZM223.264 56V50.762C223.264 49.934 223.114 49.346 222.814 48.998C222.502 48.638 222.052 48.458 221.464 48.458C220.972 48.458 220.48 48.596 219.988 48.872C219.496 49.136 219.088 49.46 218.764 49.844C218.776 49.976 218.782 50.186 218.782 50.474V56H217.162V50.762C217.162 49.922 217.024 49.34 216.748 49.016C216.424 48.644 215.974 48.458 215.398 48.458C214.906 48.458 214.414 48.59 213.922 48.854C213.43 49.118 213.022 49.448 212.698 49.844V56H211.078V47.144H212.698V48.224L212.734 48.242C213.598 47.378 214.6 46.946 215.74 46.946C216.316 46.946 216.844 47.078 217.324 47.342C217.816 47.594 218.194 47.972 218.458 48.476C219.538 47.456 220.66 46.946 221.824 46.946C222.82 46.946 223.594 47.258 224.146 47.882C224.638 48.422 224.884 49.286 224.884 50.474V56H223.264ZM239.876 56V50.762C239.876 49.934 239.726 49.346 239.426 48.998C239.114 48.638 238.664 48.458 238.076 48.458C237.584 48.458 237.092 48.596 236.6 48.872C236.108 49.136 235.7 49.46 235.376 49.844C235.388 49.976 235.394 50.186 235.394 50.474V56H233.774V50.762C233.774 49.922 233.636 49.34 233.36 49.016C233.036 48.644 232.586 48.458 232.01 48.458C231.518 48.458 231.026 48.59 230.534 48.854C230.042 49.118 229.634 49.448 229.31 49.844V56H227.69V47.144H229.31V48.224L229.346 48.242C230.21 47.378 231.212 46.946 232.352 46.946C232.928 46.946 233.456 47.078 233.936 47.342C234.428 47.594 234.806 47.972 235.07 48.476C236.15 47.456 237.272 46.946 238.436 46.946C239.432 46.946 240.206 47.258 240.758 47.882C241.25 48.422 241.496 49.286 241.496 50.474V56H239.876ZM244.985 55.208C244.505 54.644 244.265 53.762 244.265 52.562V47.144H245.885V52.256C245.885 53.144 246.029 53.756 246.317 54.092C246.641 54.5 247.109 54.704 247.721 54.704C248.237 54.704 248.741 54.56 249.233 54.272C249.725 53.984 250.145 53.624 250.493 53.192V47.144H252.113V56H250.493V54.884L250.457 54.866C249.569 55.754 248.549 56.198 247.397 56.198C246.365 56.198 245.561 55.868 244.985 55.208ZM254.953 56V47.144H256.573V48.26L256.609 48.278C257.497 47.39 258.529 46.946 259.705 46.946C260.701 46.946 261.487 47.27 262.063 47.918C262.555 48.482 262.801 49.352 262.801 50.528V56H261.181V50.834C261.181 49.958 261.043 49.358 260.767 49.034C260.443 48.65 259.969 48.458 259.345 48.458C258.841 48.458 258.331 48.596 257.815 48.872C257.311 49.148 256.897 49.502 256.573 49.934V56H254.953ZM265.606 44.912C265.39 44.684 265.282 44.414 265.282 44.102C265.282 43.79 265.39 43.526 265.606 43.31C265.834 43.082 266.104 42.968 266.416 42.968C266.728 42.968 266.992 43.082 267.208 43.31C267.436 43.526 267.55 43.79 267.55 44.102C267.55 44.414 267.436 44.684 267.208 44.912C266.992 45.128 266.728 45.236 266.416 45.236C266.104 45.236 265.834 45.128 265.606 44.912ZM265.606 56V47.144H267.226V56H265.606ZM271.42 55.37C270.976 54.866 270.754 54.05 270.754 52.922V48.602H269.116V47.144H270.754V44.732L272.374 44.462V47.144H275.038V48.602H272.374V52.616C272.374 53.276 272.464 53.792 272.644 54.164C272.824 54.536 273.178 54.722 273.706 54.722C274.198 54.722 274.642 54.596 275.038 54.344V55.874C274.606 56.09 274.072 56.198 273.436 56.198C272.572 56.198 271.9 55.922 271.42 55.37ZM277.067 44.912C276.851 44.684 276.743 44.414 276.743 44.102C276.743 43.79 276.851 43.526 277.067 43.31C277.295 43.082 277.565 42.968 277.877 42.968C278.189 42.968 278.453 43.082 278.669 43.31C278.897 43.526 279.011 43.79 279.011 44.102C279.011 44.414 278.897 44.684 278.669 44.912C278.453 45.128 278.189 45.236 277.877 45.236C277.565 45.236 277.295 45.128 277.067 44.912ZM277.067 56V47.144H278.687V56H277.067ZM289.307 52.04H282.539C282.659 52.892 283.013 53.558 283.601 54.038C284.189 54.506 284.927 54.74 285.815 54.74C286.883 54.74 287.903 54.374 288.875 53.642V55.37C288.011 55.922 286.955 56.198 285.707 56.198C284.315 56.198 283.169 55.772 282.269 54.92C281.369 54.068 280.919 52.952 280.919 51.572C280.919 50.216 281.345 49.106 282.197 48.242C283.061 47.378 284.105 46.946 285.329 46.946C286.469 46.946 287.423 47.33 288.191 48.098C288.971 48.854 289.361 49.898 289.361 51.23C289.361 51.554 289.343 51.824 289.307 52.04ZM285.293 48.404C284.657 48.404 284.075 48.608 283.547 49.016C283.031 49.412 282.707 49.994 282.575 50.762H287.795C287.735 49.958 287.459 49.364 286.967 48.98C286.475 48.596 285.917 48.404 285.293 48.404ZM291.44 55.496V53.804C292.436 54.428 293.558 54.74 294.806 54.74C296.15 54.74 296.822 54.332 296.822 53.516C296.822 53.372 296.798 53.246 296.75 53.138C296.714 53.018 296.642 52.916 296.534 52.832C296.426 52.748 296.318 52.682 296.21 52.634C296.114 52.574 295.97 52.526 295.778 52.49C295.586 52.442 295.43 52.406 295.31 52.382C295.19 52.358 295.004 52.328 294.752 52.292C294.5 52.256 294.308 52.226 294.176 52.202C293.192 52.034 292.442 51.77 291.926 51.41C291.41 51.05 291.152 50.468 291.152 49.664C291.164 48.776 291.5 48.104 292.16 47.648C292.832 47.18 293.708 46.946 294.788 46.946C296.012 46.946 297.068 47.18 297.956 47.648V49.268C296.972 48.692 295.892 48.404 294.716 48.404C293.432 48.404 292.79 48.782 292.79 49.538C292.79 49.682 292.808 49.808 292.844 49.916C292.892 50.024 292.964 50.114 293.06 50.186C293.168 50.258 293.27 50.324 293.366 50.384C293.474 50.432 293.618 50.474 293.798 50.51C293.978 50.546 294.134 50.576 294.266 50.6C294.398 50.624 294.578 50.654 294.806 50.69C295.046 50.726 295.232 50.756 295.364 50.78C295.844 50.864 296.246 50.96 296.57 51.068C296.906 51.164 297.224 51.308 297.524 51.5C297.836 51.68 298.07 51.926 298.226 52.238C298.382 52.55 298.46 52.928 298.46 53.372C298.46 54.332 298.1 55.046 297.38 55.514C296.672 55.97 295.79 56.198 294.734 56.198C293.45 56.198 292.352 55.964 291.44 55.496ZM35.432 89.964L39.734 84.798C40.514 83.874 41.072 83.106 41.408 82.494C41.744 81.87 41.912 81.264 41.912 80.676C41.912 79.932 41.678 79.362 41.21 78.966C40.742 78.558 40.118 78.354 39.338 78.354C38.282 78.354 37.31 78.678 36.422 79.326V77.598C37.274 77.046 38.276 76.77 39.428 76.77C40.64 76.77 41.642 77.106 42.434 77.778C43.226 78.45 43.622 79.386 43.622 80.586C43.622 81.414 43.418 82.218 43.01 82.998C42.602 83.778 41.972 84.678 41.12 85.698L38.852 88.416L38.87 88.452H44.09V90H35.45L35.432 89.964ZM52.8114 86.454L49.9674 82.386C49.5714 81.822 48.9894 80.964 48.2214 79.812L48.1854 79.83C48.2094 80.862 48.2214 81.804 48.2214 82.656V90H46.5654V76.968H48.2214L52.8474 83.592L57.4734 76.968H59.1114V90H57.4014V82.656C57.4014 81.804 57.4134 80.862 57.4374 79.83L57.4014 79.812C56.6334 80.964 56.0514 81.822 55.6554 82.386L52.8114 86.454ZM61.9982 78.912C61.7822 78.684 61.6742 78.414 61.6742 78.102C61.6742 77.79 61.7822 77.526 61.9982 77.31C62.2262 77.082 62.4962 76.968 62.8082 76.968C63.1202 76.968 63.3842 77.082 63.6002 77.31C63.8282 77.526 63.9422 77.79 63.9422 78.102C63.9422 78.414 63.8282 78.684 63.6002 78.912C63.3842 79.128 63.1202 79.236 62.8082 79.236C62.4962 79.236 62.2262 79.128 61.9982 78.912ZM61.9982 90V81.144H63.6182V90H61.9982ZM66.463 90V76.248H68.083V90H66.463ZM70.9279 90V76.248H72.5479V90H70.9279ZM75.3927 78.912C75.1767 78.684 75.0687 78.414 75.0687 78.102C75.0687 77.79 75.1767 77.526 75.3927 77.31C75.6207 77.082 75.8907 76.968 76.2027 76.968C76.5147 76.968 76.7787 77.082 76.9947 77.31C77.2227 77.526 77.3367 77.79 77.3367 78.102C77.3367 78.414 77.2227 78.684 76.9947 78.912C76.7787 79.128 76.5147 79.236 76.2027 79.236C75.8907 79.236 75.6207 79.128 75.3927 78.912ZM75.3927 90V81.144H77.0127V90H75.3927ZM80.5775 88.866C79.6895 87.978 79.2455 86.88 79.2455 85.572C79.2455 84.264 79.6895 83.166 80.5775 82.278C81.4775 81.39 82.5935 80.946 83.9255 80.946C85.2575 80.946 86.3675 81.39 87.2555 82.278C88.1555 83.166 88.6055 84.264 88.6055 85.572C88.6055 86.88 88.1555 87.978 87.2555 88.866C86.3675 89.754 85.2575 90.198 83.9255 90.198C82.5935 90.198 81.4775 89.754 80.5775 88.866ZM81.7295 83.322C81.1535 83.922 80.8655 84.672 80.8655 85.572C80.8655 86.472 81.1535 87.222 81.7295 87.822C82.3175 88.422 83.0495 88.722 83.9255 88.722C84.8015 88.722 85.5275 88.422 86.1035 87.822C86.6915 87.222 86.9855 86.472 86.9855 85.572C86.9855 84.672 86.6915 83.922 86.1035 83.322C85.5275 82.722 84.8015 82.422 83.9255 82.422C83.0495 82.422 82.3175 82.722 81.7295 83.322ZM90.8439 90V81.144H92.4639V82.26L92.4999 82.278C93.3879 81.39 94.4199 80.946 95.5959 80.946C96.5919 80.946 97.3779 81.27 97.9539 81.918C98.4459 82.482 98.6919 83.352 98.6919 84.528V90H97.0719V84.834C97.0719 83.958 96.9339 83.358 96.6579 83.034C96.3339 82.65 95.8599 82.458 95.2359 82.458C94.7319 82.458 94.2219 82.596 93.7059 82.872C93.2019 83.148 92.7879 83.502 92.4639 83.934V90H90.8439ZM108.304 90.198C107.452 90.198 106.75 89.988 106.198 89.568C105.574 89.1 105.262 88.446 105.262 87.606C105.262 86.67 105.652 85.95 106.432 85.446C107.044 85.05 107.872 84.852 108.916 84.852C109.552 84.852 110.182 84.93 110.806 85.086V84.348C110.806 83.7 110.638 83.214 110.302 82.89C109.942 82.566 109.396 82.404 108.664 82.404C107.656 82.404 106.75 82.698 105.946 83.286V81.702C106.774 81.198 107.758 80.946 108.898 80.946C110.074 80.946 110.956 81.216 111.544 81.756C112.132 82.284 112.426 83.058 112.426 84.078V87.84C112.426 88.464 112.654 88.776 113.11 88.776C113.29 88.776 113.464 88.734 113.632 88.65V90C113.368 90.108 113.08 90.162 112.768 90.162C111.964 90.162 111.394 89.85 111.058 89.226H111.022C110.734 89.49 110.344 89.718 109.852 89.91C109.372 90.102 108.856 90.198 108.304 90.198ZM108.592 88.758C109.42 88.758 110.158 88.5 110.806 87.984V86.328C110.278 86.172 109.702 86.094 109.078 86.094C108.454 86.094 107.932 86.202 107.512 86.418C107.104 86.634 106.9 86.982 106.9 87.462C106.9 87.882 107.056 88.206 107.368 88.434C107.68 88.65 108.088 88.758 108.592 88.758ZM122.276 87.858V89.586C121.532 89.994 120.65 90.198 119.63 90.198C118.226 90.198 117.074 89.766 116.174 88.902C115.274 88.038 114.824 86.946 114.824 85.626C114.824 84.27 115.292 83.154 116.228 82.278C117.176 81.39 118.346 80.946 119.738 80.946C120.614 80.946 121.412 81.132 122.132 81.504V83.178C121.34 82.674 120.518 82.422 119.666 82.422C118.718 82.422 117.944 82.728 117.344 83.34C116.756 83.952 116.462 84.714 116.462 85.626C116.462 86.538 116.762 87.282 117.362 87.858C117.974 88.434 118.76 88.722 119.72 88.722C120.692 88.722 121.544 88.434 122.276 87.858ZM125.961 89.37C125.517 88.866 125.295 88.05 125.295 86.922V82.602H123.657V81.144H125.295V78.732L126.915 78.462V81.144H129.579V82.602H126.915V86.616C126.915 87.276 127.005 87.792 127.185 88.164C127.365 88.536 127.719 88.722 128.247 88.722C128.739 88.722 129.183 88.596 129.579 88.344V89.874C129.147 90.09 128.613 90.198 127.977 90.198C127.113 90.198 126.441 89.922 125.961 89.37ZM131.608 78.912C131.392 78.684 131.284 78.414 131.284 78.102C131.284 77.79 131.392 77.526 131.608 77.31C131.836 77.082 132.106 76.968 132.418 76.968C132.73 76.968 132.994 77.082 133.21 77.31C133.438 77.526 133.552 77.79 133.552 78.102C133.552 78.414 133.438 78.684 133.21 78.912C132.994 79.128 132.73 79.236 132.418 79.236C132.106 79.236 131.836 79.128 131.608 78.912ZM131.608 90V81.144H133.228V90H131.608ZM138.772 90L135.046 81.144H136.81L138.448 85.14C138.856 86.148 139.234 87.096 139.582 87.984H139.618C139.978 87.072 140.374 86.088 140.806 85.032L142.408 81.144H144.1L140.392 90H138.772ZM153.218 86.04H146.45C146.57 86.892 146.924 87.558 147.512 88.038C148.1 88.506 148.838 88.74 149.726 88.74C150.794 88.74 151.814 88.374 152.786 87.642V89.37C151.922 89.922 150.866 90.198 149.618 90.198C148.226 90.198 147.08 89.772 146.18 88.92C145.28 88.068 144.83 86.952 144.83 85.572C144.83 84.216 145.256 83.106 146.108 82.242C146.972 81.378 148.016 80.946 149.24 80.946C150.38 80.946 151.334 81.33 152.102 82.098C152.882 82.854 153.272 83.898 153.272 85.23C153.272 85.554 153.254 85.824 153.218 86.04ZM149.204 82.404C148.568 82.404 147.986 82.608 147.458 83.016C146.942 83.412 146.618 83.994 146.486 84.762H151.706C151.646 83.958 151.37 83.364 150.878 82.98C150.386 82.596 149.828 82.404 149.204 82.404ZM166.783 87.858V89.586C166.039 89.994 165.157 90.198 164.137 90.198C162.733 90.198 161.581 89.766 160.681 88.902C159.781 88.038 159.331 86.946 159.331 85.626C159.331 84.27 159.799 83.154 160.735 82.278C161.683 81.39 162.853 80.946 164.245 80.946C165.121 80.946 165.919 81.132 166.639 81.504V83.178C165.847 82.674 165.025 82.422 164.173 82.422C163.225 82.422 162.451 82.728 161.851 83.34C161.263 83.952 160.969 84.714 160.969 85.626C160.969 86.538 161.269 87.282 161.869 87.858C162.481 88.434 163.267 88.722 164.227 88.722C165.199 88.722 166.051 88.434 166.783 87.858ZM169.804 88.866C168.916 87.978 168.472 86.88 168.472 85.572C168.472 84.264 168.916 83.166 169.804 82.278C170.704 81.39 171.82 80.946 173.152 80.946C174.484 80.946 175.594 81.39 176.482 82.278C177.382 83.166 177.832 84.264 177.832 85.572C177.832 86.88 177.382 87.978 176.482 88.866C175.594 89.754 174.484 90.198 173.152 90.198C171.82 90.198 170.704 89.754 169.804 88.866ZM170.956 83.322C170.38 83.922 170.092 84.672 170.092 85.572C170.092 86.472 170.38 87.222 170.956 87.822C171.544 88.422 172.276 88.722 173.152 88.722C174.028 88.722 174.754 88.422 175.33 87.822C175.918 87.222 176.212 86.472 176.212 85.572C176.212 84.672 175.918 83.922 175.33 83.322C174.754 82.722 174.028 82.422 173.152 82.422C172.276 82.422 171.544 82.722 170.956 83.322ZM192.256 90V84.762C192.256 83.934 192.106 83.346 191.806 82.998C191.494 82.638 191.044 82.458 190.456 82.458C189.964 82.458 189.472 82.596 188.98 82.872C188.488 83.136 188.08 83.46 187.756 83.844C187.768 83.976 187.774 84.186 187.774 84.474V90H186.154V84.762C186.154 83.922 186.016 83.34 185.74 83.016C185.416 82.644 184.966 82.458 184.39 82.458C183.898 82.458 183.406 82.59 182.914 82.854C182.422 83.118 182.014 83.448 181.69 83.844V90H180.07V81.144H181.69V82.224L181.726 82.242C182.59 81.378 183.592 80.946 184.732 80.946C185.308 80.946 185.836 81.078 186.316 81.342C186.808 81.594 187.186 81.972 187.45 82.476C188.53 81.456 189.652 80.946 190.816 80.946C191.812 80.946 192.586 81.258 193.138 81.882C193.63 82.422 193.876 83.286 193.876 84.474V90H192.256ZM208.868 90V84.762C208.868 83.934 208.718 83.346 208.418 82.998C208.106 82.638 207.656 82.458 207.068 82.458C206.576 82.458 206.084 82.596 205.592 82.872C205.1 83.136 204.692 83.46 204.368 83.844C204.38 83.976 204.386 84.186 204.386 84.474V90H202.766V84.762C202.766 83.922 202.628 83.34 202.352 83.016C202.028 82.644 201.578 82.458 201.002 82.458C200.51 82.458 200.018 82.59 199.526 82.854C199.034 83.118 198.626 83.448 198.302 83.844V90H196.682V81.144H198.302V82.224L198.338 82.242C199.202 81.378 200.204 80.946 201.344 80.946C201.92 80.946 202.448 81.078 202.928 81.342C203.42 81.594 203.798 81.972 204.062 82.476C205.142 81.456 206.264 80.946 207.428 80.946C208.424 80.946 209.198 81.258 209.75 81.882C210.242 82.422 210.488 83.286 210.488 84.474V90H208.868ZM213.977 89.208C213.497 88.644 213.257 87.762 213.257 86.562V81.144H214.877V86.256C214.877 87.144 215.021 87.756 215.309 88.092C215.633 88.5 216.101 88.704 216.713 88.704C217.229 88.704 217.733 88.56 218.225 88.272C218.717 87.984 219.137 87.624 219.485 87.192V81.144H221.105V90H219.485V88.884L219.449 88.866C218.561 89.754 217.541 90.198 216.389 90.198C215.357 90.198 214.553 89.868 213.977 89.208ZM223.945 90V81.144H225.565V82.26L225.601 82.278C226.489 81.39 227.521 80.946 228.697 80.946C229.693 80.946 230.479 81.27 231.055 81.918C231.547 82.482 231.793 83.352 231.793 84.528V90H230.173V84.834C230.173 83.958 230.035 83.358 229.759 83.034C229.435 82.65 228.961 82.458 228.337 82.458C227.833 82.458 227.323 82.596 226.807 82.872C226.303 83.148 225.889 83.502 225.565 83.934V90H223.945ZM234.598 78.912C234.382 78.684 234.274 78.414 234.274 78.102C234.274 77.79 234.382 77.526 234.598 77.31C234.826 77.082 235.096 76.968 235.408 76.968C235.72 76.968 235.984 77.082 236.2 77.31C236.428 77.526 236.542 77.79 236.542 78.102C236.542 78.414 236.428 78.684 236.2 78.912C235.984 79.128 235.72 79.236 235.408 79.236C235.096 79.236 234.826 79.128 234.598 78.912ZM234.598 90V81.144H236.218V90H234.598ZM240.413 89.37C239.969 88.866 239.747 88.05 239.747 86.922V82.602H238.109V81.144H239.747V78.732L241.367 78.462V81.144H244.031V82.602H241.367V86.616C241.367 87.276 241.457 87.792 241.637 88.164C241.817 88.536 242.171 88.722 242.699 88.722C243.191 88.722 243.635 88.596 244.031 88.344V89.874C243.599 90.09 243.065 90.198 242.429 90.198C241.565 90.198 240.893 89.922 240.413 89.37ZM248.093 93.96H246.329L248.723 89.046L245.033 81.144H246.833L248.381 84.492C248.813 85.44 249.215 86.328 249.587 87.156H249.623C250.151 85.98 250.553 85.092 250.829 84.492L252.377 81.144H254.087L248.093 93.96ZM272.501 90V84.762C272.501 83.934 272.351 83.346 272.051 82.998C271.739 82.638 271.289 82.458 270.701 82.458C270.209 82.458 269.717 82.596 269.225 82.872C268.733 83.136 268.325 83.46 268.001 83.844C268.013 83.976 268.019 84.186 268.019 84.474V90H266.399V84.762C266.399 83.922 266.261 83.34 265.985 83.016C265.661 82.644 265.211 82.458 264.635 82.458C264.143 82.458 263.651 82.59 263.159 82.854C262.667 83.118 262.259 83.448 261.935 83.844V90H260.315V81.144H261.935V82.224L261.971 82.242C262.835 81.378 263.837 80.946 264.977 80.946C265.553 80.946 266.081 81.078 266.561 81.342C267.053 81.594 267.431 81.972 267.695 82.476C268.775 81.456 269.897 80.946 271.061 80.946C272.057 80.946 272.831 81.258 273.383 81.882C273.875 82.422 274.121 83.286 274.121 84.474V90H272.501ZM284.702 86.04H277.934C278.054 86.892 278.408 87.558 278.996 88.038C279.584 88.506 280.322 88.74 281.21 88.74C282.278 88.74 283.298 88.374 284.27 87.642V89.37C283.406 89.922 282.35 90.198 281.102 90.198C279.71 90.198 278.564 89.772 277.664 88.92C276.764 88.068 276.314 86.952 276.314 85.572C276.314 84.216 276.74 83.106 277.592 82.242C278.456 81.378 279.5 80.946 280.724 80.946C281.864 80.946 282.818 81.33 283.586 82.098C284.366 82.854 284.756 83.898 284.756 85.23C284.756 85.554 284.738 85.824 284.702 86.04ZM280.688 82.404C280.052 82.404 279.47 82.608 278.942 83.016C278.426 83.412 278.102 83.994 277.97 84.762H283.19C283.13 83.958 282.854 83.364 282.362 82.98C281.87 82.596 281.312 82.404 280.688 82.404ZM299.254 90V84.762C299.254 83.934 299.104 83.346 298.804 82.998C298.492 82.638 298.042 82.458 297.454 82.458C296.962 82.458 296.47 82.596 295.978 82.872C295.486 83.136 295.078 83.46 294.754 83.844C294.766 83.976 294.772 84.186 294.772 84.474V90H293.152V84.762C293.152 83.922 293.014 83.34 292.738 83.016C292.414 82.644 291.964 82.458 291.388 82.458C290.896 82.458 290.404 82.59 289.912 82.854C289.42 83.118 289.012 83.448 288.688 83.844V90H287.068V81.144H288.688V82.224L288.724 82.242C289.588 81.378 290.59 80.946 291.73 80.946C292.306 80.946 292.834 81.078 293.314 81.342C293.806 81.594 294.184 81.972 294.448 82.476C295.528 81.456 296.65 80.946 297.814 80.946C298.81 80.946 299.584 81.258 300.136 81.882C300.628 82.422 300.874 83.286 300.874 84.474V90H299.254ZM303.68 90V76.248H305.3V81.648L305.336 81.666C306.08 81.186 306.914 80.946 307.838 80.946C309.062 80.946 310.088 81.366 310.916 82.206C311.744 83.046 312.158 84.126 312.158 85.446C312.158 86.814 311.714 87.948 310.826 88.848C309.938 89.748 308.816 90.198 307.46 90.198C306.752 90.198 306.014 90.042 305.246 89.73L303.68 90ZM305.3 88.2C305.948 88.584 306.686 88.776 307.514 88.776C308.402 88.776 309.122 88.47 309.674 87.858C310.238 87.246 310.52 86.472 310.52 85.536C310.52 84.636 310.256 83.892 309.728 83.304C309.2 82.704 308.504 82.404 307.64 82.404C306.752 82.404 305.972 82.68 305.3 83.232V88.2ZM322.161 86.04H315.393C315.513 86.892 315.867 87.558 316.455 88.038C317.043 88.506 317.781 88.74 318.669 88.74C319.737 88.74 320.757 88.374 321.729 87.642V89.37C320.865 89.922 319.809 90.198 318.561 90.198C317.169 90.198 316.023 89.772 315.123 88.92C314.223 88.068 313.773 86.952 313.773 85.572C313.773 84.216 314.199 83.106 315.051 82.242C315.915 81.378 316.959 80.946 318.183 80.946C319.323 80.946 320.277 81.33 321.045 82.098C321.825 82.854 322.215 83.898 322.215 85.23C322.215 85.554 322.197 85.824 322.161 86.04ZM318.147 82.404C317.511 82.404 316.929 82.608 316.401 83.016C315.885 83.412 315.561 83.994 315.429 84.762H320.649C320.589 83.958 320.313 83.364 319.821 82.98C319.329 82.596 318.771 82.404 318.147 82.404ZM324.527 90V81.144H326.147V82.44L326.183 82.458C326.843 81.534 327.719 81.072 328.811 81.072C329.015 81.072 329.207 81.096 329.387 81.144V82.746C329.195 82.698 328.985 82.674 328.757 82.674C327.629 82.674 326.759 83.196 326.147 84.24V90H324.527ZM330.903 89.496V87.804C331.899 88.428 333.021 88.74 334.269 88.74C335.613 88.74 336.285 88.332 336.285 87.516C336.285 87.372 336.261 87.246 336.213 87.138C336.177 87.018 336.105 86.916 335.997 86.832C335.889 86.748 335.781 86.682 335.673 86.634C335.577 86.574 335.433 86.526 335.241 86.49C335.049 86.442 334.893 86.406 334.773 86.382C334.653 86.358 334.467 86.328 334.215 86.292C333.963 86.256 333.771 86.226 333.639 86.202C332.655 86.034 331.905 85.77 331.389 85.41C330.873 85.05 330.615 84.468 330.615 83.664C330.627 82.776 330.963 82.104 331.623 81.648C332.295 81.18 333.171 80.946 334.251 80.946C335.475 80.946 336.531 81.18 337.419 81.648V83.268C336.435 82.692 335.355 82.404 334.179 82.404C332.895 82.404 332.253 82.782 332.253 83.538C332.253 83.682 332.271 83.808 332.307 83.916C332.355 84.024 332.427 84.114 332.523 84.186C332.631 84.258 332.733 84.324 332.829 84.384C332.937 84.432 333.081 84.474 333.261 84.51C333.441 84.546 333.597 84.576 333.729 84.6C333.861 84.624 334.041 84.654 334.269 84.69C334.509 84.726 334.695 84.756 334.827 84.78C335.307 84.864 335.709 84.96 336.033 85.068C336.369 85.164 336.687 85.308 336.987 85.5C337.299 85.68 337.533 85.926 337.689 86.238C337.845 86.55 337.923 86.928 337.923 87.372C337.923 88.332 337.563 89.046 336.843 89.514C336.135 89.97 335.253 90.198 334.197 90.198C332.913 90.198 331.815 89.964 330.903 89.496ZM42.704 120.454L39.86 116.386C39.464 115.822 38.882 114.964 38.114 113.812L38.078 113.83C38.102 114.862 38.114 115.804 38.114 116.656V124H36.458V110.968H38.114L42.74 117.592L47.366 110.968H49.004V124H47.294V116.656C47.294 115.804 47.306 114.862 47.33 113.83L47.294 113.812C46.526 114.964 45.944 115.822 45.548 116.386L42.704 120.454ZM52.6108 122.866C51.7228 121.978 51.2788 120.88 51.2788 119.572C51.2788 118.264 51.7228 117.166 52.6108 116.278C53.5108 115.39 54.6268 114.946 55.9588 114.946C57.2908 114.946 58.4008 115.39 59.2888 116.278C60.1888 117.166 60.6387 118.264 60.6387 119.572C60.6387 120.88 60.1888 121.978 59.2888 122.866C58.4008 123.754 57.2908 124.198 55.9588 124.198C54.6268 124.198 53.5108 123.754 52.6108 122.866ZM53.7628 117.322C53.1868 117.922 52.8988 118.672 52.8988 119.572C52.8988 120.472 53.1868 121.222 53.7628 121.822C54.3508 122.422 55.0828 122.722 55.9588 122.722C56.8348 122.722 57.5608 122.422 58.1368 121.822C58.7248 121.222 59.0188 120.472 59.0188 119.572C59.0188 118.672 58.7248 117.922 58.1368 117.322C57.5608 116.722 56.8348 116.422 55.9588 116.422C55.0828 116.422 54.3508 116.722 53.7628 117.322ZM62.8771 124V115.144H64.4971V116.44L64.5331 116.458C65.1931 115.534 66.0691 115.072 67.1611 115.072C67.3651 115.072 67.5571 115.096 67.7371 115.144V116.746C67.5451 116.698 67.3351 116.674 67.1071 116.674C65.9791 116.674 65.1091 117.196 64.4971 118.24V124H62.8771ZM77.0515 120.04H70.2835C70.4035 120.892 70.7575 121.558 71.3455 122.038C71.9335 122.506 72.6715 122.74 73.5595 122.74C74.6275 122.74 75.6475 122.374 76.6195 121.642V123.37C75.7555 123.922 74.6995 124.198 73.4515 124.198C72.0595 124.198 70.9135 123.772 70.0135 122.92C69.1135 122.068 68.6635 120.952 68.6635 119.572C68.6635 118.216 69.0895 117.106 69.9415 116.242C70.8055 115.378 71.8495 114.946 73.0735 114.946C74.2135 114.946 75.1675 115.33 75.9355 116.098C76.7155 116.854 77.1055 117.898 77.1055 119.23C77.1055 119.554 77.0875 119.824 77.0515 120.04ZM73.0375 116.404C72.4015 116.404 71.8195 116.608 71.2915 117.016C70.7755 117.412 70.4515 117.994 70.3195 118.762H75.5395C75.4795 117.958 75.2035 117.364 74.7115 116.98C74.2195 116.596 73.6615 116.404 73.0375 116.404ZM90.0595 120.454L87.2155 116.386C86.8195 115.822 86.2375 114.964 85.4695 113.812L85.4335 113.83C85.4575 114.862 85.4695 115.804 85.4695 116.656V124H83.8135V110.968H85.4695L90.0955 117.592L94.7215 110.968H96.3595V124H94.6495V116.656C94.6495 115.804 94.6615 114.862 94.6855 113.83L94.6495 113.812C93.8815 114.964 93.2995 115.822 92.9035 116.386L90.0595 120.454ZM101.694 124.198C100.842 124.198 100.14 123.988 99.5882 123.568C98.9642 123.1 98.6522 122.446 98.6522 121.606C98.6522 120.67 99.0422 119.95 99.8222 119.446C100.434 119.05 101.262 118.852 102.306 118.852C102.942 118.852 103.572 118.93 104.196 119.086V118.348C104.196 117.7 104.028 117.214 103.692 116.89C103.332 116.566 102.786 116.404 102.054 116.404C101.046 116.404 100.14 116.698 99.3362 117.286V115.702C100.164 115.198 101.148 114.946 102.288 114.946C103.464 114.946 104.346 115.216 104.934 115.756C105.522 116.284 105.816 117.058 105.816 118.078V121.84C105.816 122.464 106.044 122.776 106.5 122.776C106.68 122.776 106.854 122.734 107.022 122.65V124C106.758 124.108 106.47 124.162 106.158 124.162C105.354 124.162 104.784 123.85 104.448 123.226H104.412C104.124 123.49 103.734 123.718 103.242 123.91C102.762 124.102 102.246 124.198 101.694 124.198ZM101.982 122.758C102.81 122.758 103.548 122.5 104.196 121.984V120.328C103.668 120.172 103.092 120.094 102.468 120.094C101.844 120.094 101.322 120.202 100.902 120.418C100.494 120.634 100.29 120.982 100.29 121.462C100.29 121.882 100.446 122.206 100.758 122.434C101.07 122.65 101.478 122.758 101.982 122.758ZM108.826 124V115.144H110.446V116.44L110.482 116.458C111.142 115.534 112.018 115.072 113.11 115.072C113.314 115.072 113.506 115.096 113.686 115.144V116.746C113.494 116.698 113.284 116.674 113.056 116.674C111.928 116.674 111.058 117.196 110.446 118.24V124H108.826ZM115.436 124V110.248H117.056V119.032L117.092 119.05L121.052 115.144H123.122L119.072 119.104L123.554 124H121.43L117.092 119.194L117.056 119.212V124H115.436ZM131.93 120.04H125.162C125.282 120.892 125.636 121.558 126.224 122.038C126.812 122.506 127.55 122.74 128.438 122.74C129.506 122.74 130.526 122.374 131.498 121.642V123.37C130.634 123.922 129.578 124.198 128.33 124.198C126.938 124.198 125.792 123.772 124.892 122.92C123.992 122.068 123.542 120.952 123.542 119.572C123.542 118.216 123.968 117.106 124.82 116.242C125.684 115.378 126.728 114.946 127.952 114.946C129.092 114.946 130.046 115.33 130.814 116.098C131.594 116.854 131.984 117.898 131.984 119.23C131.984 119.554 131.966 119.824 131.93 120.04ZM127.916 116.404C127.28 116.404 126.698 116.608 126.17 117.016C125.654 117.412 125.33 117.994 125.198 118.762H130.418C130.358 117.958 130.082 117.364 129.59 116.98C129.098 116.596 128.54 116.404 127.916 116.404ZM135.471 123.37C135.027 122.866 134.805 122.05 134.805 120.922V116.602H133.167V115.144H134.805V112.732L136.425 112.462V115.144H139.089V116.602H136.425V120.616C136.425 121.276 136.515 121.792 136.695 122.164C136.875 122.536 137.229 122.722 137.757 122.722C138.249 122.722 138.693 122.596 139.089 122.344V123.874C138.657 124.09 138.123 124.198 137.487 124.198C136.623 124.198 135.951 123.922 135.471 123.37ZM141.117 112.912C140.901 112.684 140.793 112.414 140.793 112.102C140.793 111.79 140.901 111.526 141.117 111.31C141.345 111.082 141.615 110.968 141.927 110.968C142.239 110.968 142.503 111.082 142.719 111.31C142.947 111.526 143.061 111.79 143.061 112.102C143.061 112.414 142.947 112.684 142.719 112.912C142.503 113.128 142.239 113.236 141.927 113.236C141.615 113.236 141.345 113.128 141.117 112.912ZM141.117 124V115.144H142.737V124H141.117ZM145.582 124V115.144H147.202V116.26L147.238 116.278C148.126 115.39 149.158 114.946 150.334 114.946C151.33 114.946 152.116 115.27 152.692 115.918C153.184 116.482 153.43 117.352 153.43 118.528V124H151.81V118.834C151.81 117.958 151.672 117.358 151.396 117.034C151.072 116.65 150.598 116.458 149.974 116.458C149.47 116.458 148.96 116.596 148.444 116.872C147.94 117.148 147.526 117.502 147.202 117.934V124H145.582ZM156.829 127.492V125.764C157.753 126.376 158.689 126.682 159.637 126.682C160.489 126.682 161.173 126.442 161.689 125.962C162.205 125.482 162.463 124.828 162.463 124V123.352L162.427 123.334C161.755 123.79 160.951 124.018 160.015 124.018C158.791 124.018 157.759 123.604 156.919 122.776C156.091 121.936 155.677 120.874 155.677 119.59C155.677 118.294 156.091 117.196 156.919 116.296C157.759 115.396 158.875 114.946 160.267 114.946C161.071 114.946 161.821 115.114 162.517 115.45L164.083 115.18V123.964C164.083 125.26 163.681 126.28 162.877 127.024C162.085 127.78 161.005 128.158 159.637 128.158C158.629 128.158 157.693 127.936 156.829 127.492ZM157.315 119.482C157.315 120.382 157.585 121.126 158.125 121.714C158.677 122.302 159.385 122.596 160.249 122.596C161.125 122.596 161.863 122.356 162.463 121.876V116.998C161.803 116.59 161.059 116.386 160.231 116.386C159.355 116.386 158.647 116.68 158.107 117.268C157.579 117.856 157.315 118.594 157.315 119.482ZM173.747 124.198C172.895 124.198 172.193 123.988 171.641 123.568C171.017 123.1 170.705 122.446 170.705 121.606C170.705 120.67 171.095 119.95 171.875 119.446C172.487 119.05 173.315 118.852 174.359 118.852C174.995 118.852 175.625 118.93 176.249 119.086V118.348C176.249 117.7 176.081 117.214 175.745 116.89C175.385 116.566 174.839 116.404 174.107 116.404C173.099 116.404 172.193 116.698 171.389 117.286V115.702C172.217 115.198 173.201 114.946 174.341 114.946C175.517 114.946 176.399 115.216 176.987 115.756C177.575 116.284 177.869 117.058 177.869 118.078V121.84C177.869 122.464 178.097 122.776 178.553 122.776C178.733 122.776 178.907 122.734 179.075 122.65V124C178.811 124.108 178.523 124.162 178.211 124.162C177.407 124.162 176.837 123.85 176.501 123.226H176.465C176.177 123.49 175.787 123.718 175.295 123.91C174.815 124.102 174.299 124.198 173.747 124.198ZM174.035 122.758C174.863 122.758 175.601 122.5 176.249 121.984V120.328C175.721 120.172 175.145 120.094 174.521 120.094C173.897 120.094 173.375 120.202 172.955 120.418C172.547 120.634 172.343 120.982 172.343 121.462C172.343 121.882 172.499 122.206 172.811 122.434C173.123 122.65 173.531 122.758 174.035 122.758ZM180.879 124V115.144H182.499V116.26L182.535 116.278C183.423 115.39 184.455 114.946 185.631 114.946C186.627 114.946 187.413 115.27 187.989 115.918C188.481 116.482 188.727 117.352 188.727 118.528V124H187.107V118.834C187.107 117.958 186.969 117.358 186.693 117.034C186.369 116.65 185.895 116.458 185.271 116.458C184.767 116.458 184.257 116.596 183.741 116.872C183.237 117.148 182.823 117.502 182.499 117.934V124H180.879ZM190.955 119.716C190.955 118.348 191.393 117.214 192.269 116.314C193.145 115.402 194.273 114.946 195.653 114.946C196.361 114.946 197.069 115.102 197.777 115.414L197.813 115.396V110.248H199.433V124H197.813V123.46L197.777 123.442C197.057 123.946 196.229 124.198 195.293 124.198C194.069 124.198 193.037 123.784 192.197 122.956C191.369 122.128 190.955 121.048 190.955 119.716ZM192.593 119.626C192.593 120.526 192.857 121.276 193.385 121.876C193.913 122.464 194.621 122.758 195.509 122.758C196.313 122.758 197.081 122.506 197.813 122.002V116.944C197.093 116.572 196.367 116.386 195.635 116.386C194.723 116.386 193.985 116.692 193.421 117.304C192.869 117.916 192.593 118.69 192.593 119.626ZM208.251 123.73V127.96H206.631V115.144H208.251V115.72L208.287 115.738C209.031 115.21 209.871 114.946 210.807 114.946C212.019 114.946 213.033 115.378 213.849 116.242C214.677 117.094 215.091 118.192 215.091 119.536C215.091 120.928 214.647 122.056 213.759 122.92C212.871 123.772 211.773 124.198 210.465 124.198C209.685 124.198 208.959 124.036 208.287 123.712L208.251 123.73ZM208.251 122.164C208.995 122.572 209.745 122.776 210.501 122.776C211.377 122.776 212.085 122.488 212.625 121.912C213.177 121.324 213.453 120.574 213.453 119.662C213.453 118.738 213.183 117.964 212.643 117.34C212.103 116.716 211.401 116.404 210.537 116.404C209.661 116.404 208.899 116.674 208.251 117.214V122.164ZM217.336 124V115.144H218.956V116.44L218.992 116.458C219.652 115.534 220.528 115.072 221.62 115.072C221.824 115.072 222.016 115.096 222.196 115.144V116.746C222.004 116.698 221.794 116.674 221.566 116.674C220.438 116.674 219.568 117.196 218.956 118.24V124H217.336ZM224.455 122.866C223.567 121.978 223.123 120.88 223.123 119.572C223.123 118.264 223.567 117.166 224.455 116.278C225.355 115.39 226.471 114.946 227.803 114.946C229.135 114.946 230.245 115.39 231.133 116.278C232.033 117.166 232.482 118.264 232.482 119.572C232.482 120.88 232.033 121.978 231.133 122.866C230.245 123.754 229.135 124.198 227.803 124.198C226.471 124.198 225.355 123.754 224.455 122.866ZM225.607 117.322C225.031 117.922 224.743 118.672 224.743 119.572C224.743 120.472 225.031 121.222 225.607 121.822C226.195 122.422 226.927 122.722 227.803 122.722C228.679 122.722 229.405 122.422 229.981 121.822C230.569 121.222 230.863 120.472 230.863 119.572C230.863 118.672 230.569 117.922 229.981 117.322C229.405 116.722 228.679 116.422 227.803 116.422C226.927 116.422 226.195 116.722 225.607 117.322ZM246.907 124V118.762C246.907 117.934 246.757 117.346 246.457 116.998C246.145 116.638 245.695 116.458 245.107 116.458C244.615 116.458 244.123 116.596 243.631 116.872C243.139 117.136 242.731 117.46 242.407 117.844C242.419 117.976 242.425 118.186 242.425 118.474V124H240.805V118.762C240.805 117.922 240.667 117.34 240.391 117.016C240.067 116.644 239.617 116.458 239.041 116.458C238.549 116.458 238.057 116.59 237.565 116.854C237.073 117.118 236.665 117.448 236.341 117.844V124H234.721V115.144H236.341V116.224L236.377 116.242C237.241 115.378 238.243 114.946 239.383 114.946C239.959 114.946 240.487 115.078 240.967 115.342C241.459 115.594 241.837 115.972 242.101 116.476C243.181 115.456 244.303 114.946 245.467 114.946C246.463 114.946 247.237 115.258 247.789 115.882C248.281 116.422 248.527 117.286 248.527 118.474V124H246.907ZM252.052 122.866C251.164 121.978 250.72 120.88 250.72 119.572C250.72 118.264 251.164 117.166 252.052 116.278C252.952 115.39 254.068 114.946 255.4 114.946C256.732 114.946 257.842 115.39 258.73 116.278C259.63 117.166 260.08 118.264 260.08 119.572C260.08 120.88 259.63 121.978 258.73 122.866C257.842 123.754 256.732 124.198 255.4 124.198C254.068 124.198 252.952 123.754 252.052 122.866ZM253.204 117.322C252.628 117.922 252.34 118.672 252.34 119.572C252.34 120.472 252.628 121.222 253.204 121.822C253.792 122.422 254.524 122.722 255.4 122.722C256.276 122.722 257.002 122.422 257.578 121.822C258.166 121.222 258.46 120.472 258.46 119.572C258.46 118.672 258.166 117.922 257.578 117.322C257.002 116.722 256.276 116.422 255.4 116.422C254.524 116.422 253.792 116.722 253.204 117.322ZM263.668 123.37C263.224 122.866 263.002 122.05 263.002 120.922V116.602H261.364V115.144H263.002V112.732L264.622 112.462V115.144H267.286V116.602H264.622V120.616C264.622 121.276 264.712 121.792 264.892 122.164C265.072 122.536 265.426 122.722 265.954 122.722C266.446 122.722 266.89 122.596 267.286 122.344V123.874C266.854 124.09 266.32 124.198 265.684 124.198C264.82 124.198 264.148 123.922 263.668 123.37ZM269.315 112.912C269.099 112.684 268.991 112.414 268.991 112.102C268.991 111.79 269.099 111.526 269.315 111.31C269.543 111.082 269.813 110.968 270.125 110.968C270.437 110.968 270.701 111.082 270.917 111.31C271.145 111.526 271.259 111.79 271.259 112.102C271.259 112.414 271.145 112.684 270.917 112.912C270.701 113.128 270.437 113.236 270.125 113.236C269.813 113.236 269.543 113.128 269.315 112.912ZM269.315 124V115.144H270.935V124H269.315ZM274.499 122.866C273.611 121.978 273.167 120.88 273.167 119.572C273.167 118.264 273.611 117.166 274.499 116.278C275.399 115.39 276.515 114.946 277.847 114.946C279.179 114.946 280.289 115.39 281.177 116.278C282.077 117.166 282.527 118.264 282.527 119.572C282.527 120.88 282.077 121.978 281.177 122.866C280.289 123.754 279.179 124.198 277.847 124.198C276.515 124.198 275.399 123.754 274.499 122.866ZM275.651 117.322C275.075 117.922 274.787 118.672 274.787 119.572C274.787 120.472 275.075 121.222 275.651 121.822C276.239 122.422 276.971 122.722 277.847 122.722C278.723 122.722 279.449 122.422 280.025 121.822C280.613 121.222 280.907 120.472 280.907 119.572C280.907 118.672 280.613 117.922 280.025 117.322C279.449 116.722 278.723 116.422 277.847 116.422C276.971 116.422 276.239 116.722 275.651 117.322ZM284.766 124V115.144H286.386V116.26L286.422 116.278C287.31 115.39 288.342 114.946 289.518 114.946C290.514 114.946 291.3 115.27 291.876 115.918C292.368 116.482 292.614 117.352 292.614 118.528V124H290.994V118.834C290.994 117.958 290.856 117.358 290.58 117.034C290.256 116.65 289.782 116.458 289.158 116.458C288.654 116.458 288.144 116.596 287.628 116.872C287.124 117.148 286.71 117.502 286.386 117.934V124H284.766Z" fill="#191B21"/>
<path d="M6.168 123.956C5.592 124.74 4.792 125.132 3.768 125.132C2.744 125.132 1.944 124.74 1.368 123.956C0.84 123.228 0.576 122.128 0.576 120.656C0.576 119.184 0.84 118.084 1.368 117.356C1.944 116.572 2.744 116.18 3.768 116.18C4.792 116.18 5.592 116.572 6.168 117.356C6.696 118.084 6.96 119.184 6.96 120.656C6.96 122.128 6.696 123.228 6.168 123.956ZM2.892 122.96C3.116 123.272 3.408 123.428 3.768 123.428C4.128 123.428 4.42 123.272 4.644 122.96C4.916 122.576 5.052 121.804 5.052 120.644C5.052 119.5 4.916 118.736 4.644 118.352C4.428 118.04 4.136 117.884 3.768 117.884C3.4 117.884 3.108 118.04 2.892 118.352C2.62 118.744 2.484 119.516 2.484 120.668C2.484 121.812 2.62 122.576 2.892 122.96ZM7.54716 123.14L7.53516 123.116L11.9632 116.312H13.6552V121.688H14.9752V123.14H13.6552V125H11.7592V123.14H7.54716ZM10.1752 121.688H11.7952V120.428C11.7952 120.1 11.8032 119.664 11.8192 119.12L11.7952 119.108C11.5872 119.452 11.3272 119.868 11.0152 120.356L10.1632 121.664L10.1752 121.688Z" fill="#2278D4"/>
<path d="M6.168 89.956C5.592 90.74 4.792 91.132 3.768 91.132C2.744 91.132 1.944 90.74 1.368 89.956C0.84 89.228 0.576 88.128 0.576 86.656C0.576 85.184 0.84 84.084 1.368 83.356C1.944 82.572 2.744 82.18 3.768 82.18C4.792 82.18 5.592 82.572 6.168 83.356C6.696 84.084 6.96 85.184 6.96 86.656C6.96 88.128 6.696 89.228 6.168 89.956ZM2.892 88.96C3.116 89.272 3.408 89.428 3.768 89.428C4.128 89.428 4.42 89.272 4.644 88.96C4.916 88.576 5.052 87.804 5.052 86.644C5.052 85.5 4.916 84.736 4.644 84.352C4.428 84.04 4.136 83.884 3.768 83.884C3.4 83.884 3.108 84.04 2.892 84.352C2.62 84.744 2.484 85.516 2.484 86.668C2.484 87.812 2.62 88.576 2.892 88.96ZM8.11116 90.46V88.624C9.01516 89.176 9.81916 89.452 10.5232 89.452C10.9392 89.452 11.2672 89.36 11.5072 89.176C11.7552 88.992 11.8792 88.736 11.8792 88.408C11.8792 87.728 11.3792 87.388 10.3792 87.388H9.51516V85.948H10.3312C10.7872 85.948 11.1312 85.856 11.3632 85.672C11.5952 85.48 11.7112 85.224 11.7112 84.904C11.7112 84.576 11.5912 84.32 11.3512 84.136C11.1192 83.952 10.8072 83.86 10.4152 83.86C9.83916 83.86 9.24316 84.028 8.62716 84.364V82.66C9.15516 82.34 9.79916 82.18 10.5592 82.18C11.4392 82.18 12.1672 82.412 12.7432 82.876C13.3272 83.332 13.6192 83.904 13.6192 84.592C13.6192 85.016 13.5032 85.4 13.2712 85.744C13.0392 86.08 12.7272 86.324 12.3352 86.476V86.5C12.8072 86.66 13.1672 86.928 13.4152 87.304C13.6632 87.672 13.7872 88.088 13.7872 88.552C13.7872 89.312 13.4832 89.932 12.8752 90.412C12.2672 90.892 11.5152 91.132 10.6192 91.132C9.60316 91.132 8.76716 90.908 8.11116 90.46Z" fill="#2278D4"/>
<path d="M6.168 55.956C5.592 56.74 4.792 57.132 3.768 57.132C2.744 57.132 1.944 56.74 1.368 55.956C0.84 55.228 0.576 54.128 0.576 52.656C0.576 51.184 0.84 50.084 1.368 49.356C1.944 48.572 2.744 48.18 3.768 48.18C4.792 48.18 5.592 48.572 6.168 49.356C6.696 50.084 6.96 51.184 6.96 52.656C6.96 54.128 6.696 55.228 6.168 55.956ZM2.892 54.96C3.116 55.272 3.408 55.428 3.768 55.428C4.128 55.428 4.42 55.272 4.644 54.96C4.916 54.576 5.052 53.804 5.052 52.644C5.052 51.5 4.916 50.736 4.644 50.352C4.428 50.04 4.136 49.884 3.768 49.884C3.4 49.884 3.108 50.04 2.892 50.352C2.62 50.744 2.484 51.516 2.484 52.668C2.484 53.812 2.62 54.576 2.892 54.96ZM7.73916 56.976L10.3912 53.472C10.8712 52.832 11.2072 52.34 11.3992 51.996C11.5912 51.652 11.6872 51.328 11.6872 51.024C11.6872 50.664 11.5672 50.384 11.3272 50.184C11.0952 49.984 10.7832 49.884 10.3912 49.884C9.71116 49.884 9.03516 50.144 8.36316 50.664V48.876C9.01116 48.412 9.74716 48.18 10.5712 48.18C11.4432 48.18 12.1672 48.428 12.7432 48.924C13.3272 49.412 13.6192 50.056 13.6192 50.856C13.6192 51.32 13.5072 51.792 13.2832 52.272C13.0672 52.744 12.7232 53.296 12.2512 53.928L11.2072 55.308L11.2192 55.332H13.9312V57H7.75116L7.73916 56.976Z" fill="#2278D4"/>
<path d="M6.168 21.956C5.592 22.74 4.792 23.132 3.768 23.132C2.744 23.132 1.944 22.74 1.368 21.956C0.84 21.228 0.576 20.128 0.576 18.656C0.576 17.184 0.84 16.084 1.368 15.356C1.944 14.572 2.744 14.18 3.768 14.18C4.792 14.18 5.592 14.572 6.168 15.356C6.696 16.084 6.96 17.184 6.96 18.656C6.96 20.128 6.696 21.228 6.168 21.956ZM2.892 20.96C3.116 21.272 3.408 21.428 3.768 21.428C4.128 21.428 4.42 21.272 4.644 20.96C4.916 20.576 5.052 19.804 5.052 18.644C5.052 17.5 4.916 16.736 4.644 16.352C4.428 16.04 4.136 15.884 3.768 15.884C3.4 15.884 3.108 16.04 2.892 16.352C2.62 16.744 2.484 17.516 2.484 18.668C2.484 19.812 2.62 20.576 2.892 20.96ZM10.0792 23V16.604L8.31516 17.24V15.512L11.9872 14.18V23H10.0792Z" fill="#2278D4"/>
</svg>
