<svg width="338" height="144" viewBox="0 0 338 144" fill="none" xmlns="http://www.w3.org/2000/svg">
<path opacity="0.7" d="M35.738 15.52C35.738 13.624 36.368 12.028 37.628 10.732C38.888 9.424 40.52 8.77 42.524 8.77C43.88 8.77 45.104 9.076 46.196 9.688V11.56C45.116 10.756 43.886 10.354 42.506 10.354C41.03 10.354 39.818 10.846 38.87 11.83C37.922 12.802 37.448 14.02 37.448 15.484C37.448 16.948 37.928 18.172 38.888 19.156C39.86 20.128 41.114 20.614 42.65 20.614C44.066 20.614 45.314 20.176 46.394 19.3V21.19C45.338 21.862 44.06 22.198 42.56 22.198C40.592 22.198 38.96 21.568 37.664 20.308C36.38 19.036 35.738 17.44 35.738 15.52ZM56.45 18.04H49.682C49.802 18.892 50.156 19.558 50.744 20.038C51.332 20.506 52.07 20.74 52.958 20.74C54.026 20.74 55.046 20.374 56.018 19.642V21.37C55.154 21.922 54.098 22.198 52.85 22.198C51.458 22.198 50.312 21.772 49.412 20.92C48.512 20.068 48.062 18.952 48.062 17.572C48.062 16.216 48.488 15.106 49.34 14.242C50.204 13.378 51.248 12.946 52.472 12.946C53.612 12.946 54.566 13.33 55.334 14.098C56.114 14.854 56.504 15.898 56.504 17.23C56.504 17.554 56.486 17.824 56.45 18.04ZM52.436 14.404C51.8 14.404 51.218 14.608 50.69 15.016C50.174 15.412 49.85 15.994 49.718 16.762H54.938C54.878 15.958 54.602 15.364 54.11 14.98C53.618 14.596 53.06 14.404 52.436 14.404ZM58.8165 22V8.248H60.4365V22H58.8165ZM71.0574 18.04H64.2894C64.4094 18.892 64.7634 19.558 65.3514 20.038C65.9394 20.506 66.6774 20.74 67.5654 20.74C68.6334 20.74 69.6534 20.374 70.6254 19.642V21.37C69.7614 21.922 68.7054 22.198 67.4574 22.198C66.0654 22.198 64.9194 21.772 64.0194 20.92C63.1194 20.068 62.6694 18.952 62.6694 17.572C62.6694 16.216 63.0954 15.106 63.9474 14.242C64.8114 13.378 65.8554 12.946 67.0794 12.946C68.2194 12.946 69.1734 13.33 69.9414 14.098C70.7214 14.854 71.1114 15.898 71.1114 17.23C71.1114 17.554 71.0934 17.824 71.0574 18.04ZM67.0434 14.404C66.4074 14.404 65.8254 14.608 65.2974 15.016C64.7814 15.412 64.4574 15.994 64.3254 16.762H69.5454C69.4854 15.958 69.2094 15.364 68.7174 14.98C68.2254 14.596 67.6674 14.404 67.0434 14.404ZM73.424 22V8.248H75.044V13.648L75.08 13.666C75.824 13.186 76.658 12.946 77.582 12.946C78.806 12.946 79.832 13.366 80.66 14.206C81.488 15.046 81.902 16.126 81.902 17.446C81.902 18.814 81.458 19.948 80.57 20.848C79.682 21.748 78.56 22.198 77.204 22.198C76.496 22.198 75.758 22.042 74.99 21.73L73.424 22ZM75.044 20.2C75.692 20.584 76.43 20.776 77.258 20.776C78.146 20.776 78.866 20.47 79.418 19.858C79.982 19.246 80.264 18.472 80.264 17.536C80.264 16.636 80 15.892 79.472 15.304C78.944 14.704 78.248 14.404 77.384 14.404C76.496 14.404 75.716 14.68 75.044 15.232V20.2ZM84.129 22V13.144H85.749V14.44L85.785 14.458C86.445 13.534 87.321 13.072 88.413 13.072C88.617 13.072 88.809 13.096 88.989 13.144V14.746C88.797 14.698 88.587 14.674 88.359 14.674C87.231 14.674 86.361 15.196 85.749 16.24V22H84.129ZM90.7384 10.912C90.5224 10.684 90.4144 10.414 90.4144 10.102C90.4144 9.79 90.5224 9.526 90.7384 9.31C90.9664 9.082 91.2364 8.968 91.5484 8.968C91.8604 8.968 92.1244 9.082 92.3404 9.31C92.5684 9.526 92.6824 9.79 92.6824 10.102C92.6824 10.414 92.5684 10.684 92.3404 10.912C92.1244 11.128 91.8604 11.236 91.5484 11.236C91.2364 11.236 90.9664 11.128 90.7384 10.912ZM90.7384 22V13.144H92.3584V22H90.7384ZM96.5533 21.37C96.1093 20.866 95.8873 20.05 95.8873 18.922V14.602H94.2493V13.144H95.8873V10.732L97.5073 10.462V13.144H100.171V14.602H97.5073V18.616C97.5073 19.276 97.5973 19.792 97.7773 20.164C97.9573 20.536 98.3113 20.722 98.8393 20.722C99.3313 20.722 99.7753 20.596 100.171 20.344V21.874C99.7393 22.09 99.2053 22.198 98.5693 22.198C97.7053 22.198 97.0333 21.922 96.5533 21.37ZM104.233 25.96H102.469L104.863 21.046L101.173 13.144H102.973L104.521 16.492C104.953 17.44 105.355 18.328 105.727 19.156H105.763C106.291 17.98 106.693 17.092 106.969 16.492L108.517 13.144H110.227L104.233 25.96ZM109.977 24.646L110.985 19.552H112.623L111.165 24.646H109.977ZM119.357 15.52C119.357 13.624 119.987 12.028 121.247 10.732C122.507 9.424 124.139 8.77 126.143 8.77C127.499 8.77 128.723 9.076 129.815 9.688V11.56C128.735 10.756 127.505 10.354 126.125 10.354C124.649 10.354 123.437 10.846 122.489 11.83C121.541 12.802 121.067 14.02 121.067 15.484C121.067 16.948 121.547 18.172 122.507 19.156C123.479 20.128 124.733 20.614 126.269 20.614C127.685 20.614 128.933 20.176 130.013 19.3V21.19C128.957 21.862 127.679 22.198 126.179 22.198C124.211 22.198 122.579 21.568 121.283 20.308C119.999 19.036 119.357 17.44 119.357 15.52ZM132.293 22V13.144H133.913V14.44L133.949 14.458C134.609 13.534 135.485 13.072 136.577 13.072C136.781 13.072 136.973 13.096 137.153 13.144V14.746C136.961 14.698 136.751 14.674 136.523 14.674C135.395 14.674 134.525 15.196 133.913 16.24V22H132.293ZM146.468 18.04H139.7C139.82 18.892 140.174 19.558 140.762 20.038C141.35 20.506 142.088 20.74 142.976 20.74C144.044 20.74 145.064 20.374 146.036 19.642V21.37C145.172 21.922 144.116 22.198 142.868 22.198C141.476 22.198 140.33 21.772 139.43 20.92C138.53 20.068 138.08 18.952 138.08 17.572C138.08 16.216 138.506 15.106 139.358 14.242C140.222 13.378 141.266 12.946 142.49 12.946C143.63 12.946 144.584 13.33 145.352 14.098C146.132 14.854 146.522 15.898 146.522 17.23C146.522 17.554 146.504 17.824 146.468 18.04ZM142.454 14.404C141.818 14.404 141.236 14.608 140.708 15.016C140.192 15.412 139.868 15.994 139.736 16.762H144.956C144.896 15.958 144.62 15.364 144.128 14.98C143.636 14.596 143.078 14.404 142.454 14.404ZM151.282 22.198C150.43 22.198 149.728 21.988 149.176 21.568C148.552 21.1 148.24 20.446 148.24 19.606C148.24 18.67 148.63 17.95 149.41 17.446C150.022 17.05 150.85 16.852 151.894 16.852C152.53 16.852 153.16 16.93 153.784 17.086V16.348C153.784 15.7 153.616 15.214 153.28 14.89C152.92 14.566 152.374 14.404 151.642 14.404C150.634 14.404 149.728 14.698 148.924 15.286V13.702C149.752 13.198 150.736 12.946 151.876 12.946C153.052 12.946 153.934 13.216 154.522 13.756C155.11 14.284 155.404 15.058 155.404 16.078V19.84C155.404 20.464 155.632 20.776 156.088 20.776C156.268 20.776 156.442 20.734 156.61 20.65V22C156.346 22.108 156.058 22.162 155.746 22.162C154.942 22.162 154.372 21.85 154.036 21.226H154C153.712 21.49 153.322 21.718 152.83 21.91C152.35 22.102 151.834 22.198 151.282 22.198ZM151.57 20.758C152.398 20.758 153.136 20.5 153.784 19.984V18.328C153.256 18.172 152.68 18.094 152.056 18.094C151.432 18.094 150.91 18.202 150.49 18.418C150.082 18.634 149.878 18.982 149.878 19.462C149.878 19.882 150.034 20.206 150.346 20.434C150.658 20.65 151.066 20.758 151.57 20.758ZM159.764 21.37C159.32 20.866 159.098 20.05 159.098 18.922V14.602H157.46V13.144H159.098V10.732L160.718 10.462V13.144H163.382V14.602H160.718V18.616C160.718 19.276 160.808 19.792 160.988 20.164C161.168 20.536 161.522 20.722 162.05 20.722C162.542 20.722 162.986 20.596 163.382 20.344V21.874C162.95 22.09 162.416 22.198 161.78 22.198C160.916 22.198 160.244 21.922 159.764 21.37ZM165.919 20.866C165.031 19.978 164.587 18.88 164.587 17.572C164.587 16.264 165.031 15.166 165.919 14.278C166.819 13.39 167.935 12.946 169.267 12.946C170.599 12.946 171.709 13.39 172.597 14.278C173.497 15.166 173.947 16.264 173.947 17.572C173.947 18.88 173.497 19.978 172.597 20.866C171.709 21.754 170.599 22.198 169.267 22.198C167.935 22.198 166.819 21.754 165.919 20.866ZM167.071 15.322C166.495 15.922 166.207 16.672 166.207 17.572C166.207 18.472 166.495 19.222 167.071 19.822C167.659 20.422 168.391 20.722 169.267 20.722C170.143 20.722 170.869 20.422 171.445 19.822C172.033 19.222 172.327 18.472 172.327 17.572C172.327 16.672 172.033 15.922 171.445 15.322C170.869 14.722 170.143 14.422 169.267 14.422C168.391 14.422 167.659 14.722 167.071 15.322ZM176.186 22V13.144H177.806V14.44L177.842 14.458C178.502 13.534 179.378 13.072 180.47 13.072C180.674 13.072 180.866 13.096 181.046 13.144V14.746C180.854 14.698 180.644 14.674 180.416 14.674C179.288 14.674 178.418 15.196 177.806 16.24V22H176.186ZM189.602 22.198C188.75 22.198 188.048 21.988 187.496 21.568C186.872 21.1 186.56 20.446 186.56 19.606C186.56 18.67 186.95 17.95 187.73 17.446C188.342 17.05 189.17 16.852 190.214 16.852C190.85 16.852 191.48 16.93 192.104 17.086V16.348C192.104 15.7 191.936 15.214 191.6 14.89C191.24 14.566 190.694 14.404 189.962 14.404C188.954 14.404 188.048 14.698 187.244 15.286V13.702C188.072 13.198 189.056 12.946 190.196 12.946C191.372 12.946 192.254 13.216 192.842 13.756C193.43 14.284 193.724 15.058 193.724 16.078V19.84C193.724 20.464 193.952 20.776 194.408 20.776C194.588 20.776 194.762 20.734 194.93 20.65V22C194.666 22.108 194.378 22.162 194.066 22.162C193.262 22.162 192.692 21.85 192.356 21.226H192.32C192.032 21.49 191.642 21.718 191.15 21.91C190.67 22.102 190.154 22.198 189.602 22.198ZM189.89 20.758C190.718 20.758 191.456 20.5 192.104 19.984V18.328C191.576 18.172 191 18.094 190.376 18.094C189.752 18.094 189.23 18.202 188.81 18.418C188.402 18.634 188.198 18.982 188.198 19.462C188.198 19.882 188.354 20.206 188.666 20.434C188.978 20.65 189.386 20.758 189.89 20.758ZM196.735 22V13.144H198.355V14.26L198.391 14.278C199.279 13.39 200.311 12.946 201.487 12.946C202.483 12.946 203.269 13.27 203.845 13.918C204.337 14.482 204.583 15.352 204.583 16.528V22H202.963V16.834C202.963 15.958 202.825 15.358 202.549 15.034C202.225 14.65 201.751 14.458 201.127 14.458C200.623 14.458 200.113 14.596 199.597 14.872C199.093 15.148 198.679 15.502 198.355 15.934V22H196.735ZM206.811 17.716C206.811 16.348 207.249 15.214 208.125 14.314C209.001 13.402 210.129 12.946 211.509 12.946C212.217 12.946 212.925 13.102 213.633 13.414L213.669 13.396V8.248H215.289V22H213.669V21.46L213.633 21.442C212.913 21.946 212.085 22.198 211.149 22.198C209.925 22.198 208.893 21.784 208.053 20.956C207.225 20.128 206.811 19.048 206.811 17.716ZM208.449 17.626C208.449 18.526 208.713 19.276 209.241 19.876C209.769 20.464 210.477 20.758 211.365 20.758C212.169 20.758 212.937 20.506 213.669 20.002V14.944C212.949 14.572 212.223 14.386 211.491 14.386C210.579 14.386 209.841 14.692 209.277 15.304C208.725 15.916 208.449 16.69 208.449 17.626ZM222.522 22V8.968H224.232V22H222.522ZM227.11 22V13.144H228.73V14.26L228.766 14.278C229.654 13.39 230.686 12.946 231.862 12.946C232.858 12.946 233.644 13.27 234.22 13.918C234.712 14.482 234.958 15.352 234.958 16.528V22H233.338V16.834C233.338 15.958 233.2 15.358 232.924 15.034C232.6 14.65 232.126 14.458 231.502 14.458C230.998 14.458 230.488 14.596 229.972 14.872C229.468 15.148 229.054 15.502 228.73 15.934V22H227.11ZM238.212 22V14.602H236.808V13.144H238.212V11.452C238.212 10.192 238.476 9.304 239.004 8.788C239.508 8.296 240.198 8.05 241.074 8.05C241.554 8.05 241.998 8.11 242.406 8.23V9.688C241.998 9.58 241.578 9.526 241.146 9.526C240.63 9.526 240.282 9.676 240.102 9.976C239.922 10.264 239.832 10.678 239.832 11.218V13.144H242.1V14.602H239.832V22H238.212ZM243.954 22V8.248H245.574V22H243.954ZM249.098 21.208C248.618 20.644 248.378 19.762 248.378 18.562V13.144H249.998V18.256C249.998 19.144 250.142 19.756 250.43 20.092C250.754 20.5 251.222 20.704 251.834 20.704C252.35 20.704 252.854 20.56 253.346 20.272C253.838 19.984 254.258 19.624 254.606 19.192V13.144H256.226V22H254.606V20.884L254.57 20.866C253.682 21.754 252.662 22.198 251.51 22.198C250.478 22.198 249.674 21.868 249.098 21.208ZM266.843 18.04H260.075C260.195 18.892 260.549 19.558 261.137 20.038C261.725 20.506 262.463 20.74 263.351 20.74C264.419 20.74 265.439 20.374 266.411 19.642V21.37C265.547 21.922 264.491 22.198 263.243 22.198C261.851 22.198 260.705 21.772 259.805 20.92C258.905 20.068 258.455 18.952 258.455 17.572C258.455 16.216 258.881 15.106 259.733 14.242C260.597 13.378 261.641 12.946 262.865 12.946C264.005 12.946 264.959 13.33 265.727 14.098C266.507 14.854 266.897 15.898 266.897 17.23C266.897 17.554 266.879 17.824 266.843 18.04ZM262.829 14.404C262.193 14.404 261.611 14.608 261.083 15.016C260.567 15.412 260.243 15.994 260.111 16.762H265.331C265.271 15.958 264.995 15.364 264.503 14.98C264.011 14.596 263.453 14.404 262.829 14.404ZM269.209 22V13.144H270.829V14.26L270.865 14.278C271.753 13.39 272.785 12.946 273.961 12.946C274.957 12.946 275.743 13.27 276.319 13.918C276.811 14.482 277.057 15.352 277.057 16.528V22H275.437V16.834C275.437 15.958 275.299 15.358 275.023 15.034C274.699 14.65 274.225 14.458 273.601 14.458C273.097 14.458 272.587 14.596 272.071 14.872C271.567 15.148 271.153 15.502 270.829 15.934V22H269.209ZM286.701 19.858V21.586C285.957 21.994 285.075 22.198 284.055 22.198C282.651 22.198 281.499 21.766 280.599 20.902C279.699 20.038 279.249 18.946 279.249 17.626C279.249 16.27 279.717 15.154 280.653 14.278C281.601 13.39 282.771 12.946 284.163 12.946C285.039 12.946 285.837 13.132 286.557 13.504V15.178C285.765 14.674 284.943 14.422 284.091 14.422C283.143 14.422 282.369 14.728 281.769 15.34C281.181 15.952 280.887 16.714 280.887 17.626C280.887 18.538 281.187 19.282 281.787 19.858C282.399 20.434 283.185 20.722 284.145 20.722C285.117 20.722 285.969 20.434 286.701 19.858ZM296.778 18.04H290.01C290.13 18.892 290.484 19.558 291.072 20.038C291.66 20.506 292.398 20.74 293.286 20.74C294.354 20.74 295.374 20.374 296.346 19.642V21.37C295.482 21.922 294.426 22.198 293.178 22.198C291.786 22.198 290.64 21.772 289.74 20.92C288.84 20.068 288.39 18.952 288.39 17.572C288.39 16.216 288.816 15.106 289.668 14.242C290.532 13.378 291.576 12.946 292.8 12.946C293.94 12.946 294.894 13.33 295.662 14.098C296.442 14.854 296.832 15.898 296.832 17.23C296.832 17.554 296.814 17.824 296.778 18.04ZM292.764 14.404C292.128 14.404 291.546 14.608 291.018 15.016C290.502 15.412 290.178 15.994 290.046 16.762H295.266C295.206 15.958 294.93 15.364 294.438 14.98C293.946 14.596 293.388 14.404 292.764 14.404ZM299.145 22V13.144H300.765V14.44L300.801 14.458C301.461 13.534 302.337 13.072 303.429 13.072C303.633 13.072 303.825 13.096 304.005 13.144V14.746C303.813 14.698 303.603 14.674 303.375 14.674C302.247 14.674 301.377 15.196 300.765 16.24V22H299.145ZM38.042 41.73V45.96H36.422V33.144H38.042V33.72L38.078 33.738C38.822 33.21 39.662 32.946 40.598 32.946C41.81 32.946 42.824 33.378 43.64 34.242C44.468 35.094 44.882 36.192 44.882 37.536C44.882 38.928 44.438 40.056 43.55 40.92C42.662 41.772 41.564 42.198 40.256 42.198C39.476 42.198 38.75 42.036 38.078 41.712L38.042 41.73ZM38.042 40.164C38.786 40.572 39.536 40.776 40.292 40.776C41.168 40.776 41.876 40.488 42.416 39.912C42.968 39.324 43.244 38.574 43.244 37.662C43.244 36.738 42.974 35.964 42.434 35.34C41.894 34.716 41.192 34.404 40.328 34.404C39.452 34.404 38.69 34.674 38.042 35.214V40.164ZM49.5751 42.198C48.7231 42.198 48.0211 41.988 47.4691 41.568C46.8451 41.1 46.5331 40.446 46.5331 39.606C46.5331 38.67 46.9231 37.95 47.7031 37.446C48.3151 37.05 49.1431 36.852 50.1871 36.852C50.8231 36.852 51.4531 36.93 52.0771 37.086V36.348C52.0771 35.7 51.9091 35.214 51.5731 34.89C51.2131 34.566 50.6671 34.404 49.9351 34.404C48.9271 34.404 48.0211 34.698 47.2171 35.286V33.702C48.0451 33.198 49.0291 32.946 50.1691 32.946C51.3451 32.946 52.2271 33.216 52.8151 33.756C53.4031 34.284 53.6971 35.058 53.6971 36.078V39.84C53.6971 40.464 53.9251 40.776 54.3811 40.776C54.5611 40.776 54.7351 40.734 54.9031 40.65V42C54.6391 42.108 54.3511 42.162 54.0391 42.162C53.2351 42.162 52.6651 41.85 52.3291 41.226H52.2931C52.0051 41.49 51.6151 41.718 51.1231 41.91C50.6431 42.102 50.1271 42.198 49.5751 42.198ZM49.8631 40.758C50.6911 40.758 51.4291 40.5 52.0771 39.984V38.328C51.5491 38.172 50.9731 38.094 50.3491 38.094C49.7251 38.094 49.2031 38.202 48.7831 38.418C48.3751 38.634 48.1711 38.982 48.1711 39.462C48.1711 39.882 48.3271 40.206 48.6391 40.434C48.9511 40.65 49.3591 40.758 49.8631 40.758ZM56.7072 42V33.144H58.3272V34.44L58.3632 34.458C59.0232 33.534 59.8992 33.072 60.9912 33.072C61.1952 33.072 61.3872 33.096 61.5672 33.144V34.746C61.3752 34.698 61.1652 34.674 60.9372 34.674C59.8092 34.674 58.9392 35.196 58.3272 36.24V42H56.7072ZM64.772 41.37C64.328 40.866 64.106 40.05 64.106 38.922V34.602H62.468V33.144H64.106V30.732L65.726 30.462V33.144H68.39V34.602H65.726V38.616C65.726 39.276 65.816 39.792 65.996 40.164C66.176 40.536 66.53 40.722 67.058 40.722C67.55 40.722 67.994 40.596 68.39 40.344V41.874C67.958 42.09 67.424 42.198 66.788 42.198C65.924 42.198 65.252 41.922 64.772 41.37ZM70.4181 42V33.144H72.0381V34.26L72.0741 34.278C72.9621 33.39 73.9941 32.946 75.1701 32.946C76.1661 32.946 76.9521 33.27 77.5281 33.918C78.0201 34.482 78.2661 35.352 78.2661 36.528V42H76.6461V36.834C76.6461 35.958 76.5081 35.358 76.2321 35.034C75.9081 34.65 75.4341 34.458 74.8101 34.458C74.3061 34.458 73.7961 34.596 73.2801 34.872C72.7761 35.148 72.3621 35.502 72.0381 35.934V42H70.4181ZM88.8464 38.04H82.0784C82.1984 38.892 82.5524 39.558 83.1404 40.038C83.7284 40.506 84.4664 40.74 85.3544 40.74C86.4224 40.74 87.4424 40.374 88.4144 39.642V41.37C87.5504 41.922 86.4944 42.198 85.2464 42.198C83.8544 42.198 82.7084 41.772 81.8084 40.92C80.9084 40.068 80.4584 38.952 80.4584 37.572C80.4584 36.216 80.8844 35.106 81.7364 34.242C82.6004 33.378 83.6444 32.946 84.8684 32.946C86.0084 32.946 86.9624 33.33 87.7304 34.098C88.5104 34.854 88.9004 35.898 88.9004 37.23C88.9004 37.554 88.8824 37.824 88.8464 38.04ZM84.8324 34.404C84.1964 34.404 83.6144 34.608 83.0864 35.016C82.5704 35.412 82.2464 35.994 82.1144 36.762H87.3344C87.2744 35.958 86.9984 35.364 86.5064 34.98C86.0144 34.596 85.4564 34.404 84.8324 34.404ZM91.213 42V33.144H92.833V34.44L92.869 34.458C93.529 33.534 94.405 33.072 95.497 33.072C95.701 33.072 95.893 33.096 96.073 33.144V34.746C95.881 34.698 95.671 34.674 95.443 34.674C94.315 34.674 93.445 35.196 92.833 36.24V42H91.213ZM97.5884 41.496V39.804C98.5844 40.428 99.7064 40.74 100.954 40.74C102.298 40.74 102.97 40.332 102.97 39.516C102.97 39.372 102.946 39.246 102.898 39.138C102.862 39.018 102.79 38.916 102.682 38.832C102.574 38.748 102.466 38.682 102.358 38.634C102.262 38.574 102.118 38.526 101.926 38.49C101.734 38.442 101.578 38.406 101.458 38.382C101.338 38.358 101.152 38.328 100.9 38.292C100.648 38.256 100.456 38.226 100.324 38.202C99.3404 38.034 98.5904 37.77 98.0744 37.41C97.5584 37.05 97.3004 36.468 97.3004 35.664C97.3124 34.776 97.6484 34.104 98.3084 33.648C98.9804 33.18 99.8564 32.946 100.936 32.946C102.16 32.946 103.216 33.18 104.104 33.648V35.268C103.12 34.692 102.04 34.404 100.864 34.404C99.5804 34.404 98.9384 34.782 98.9384 35.538C98.9384 35.682 98.9564 35.808 98.9924 35.916C99.0404 36.024 99.1124 36.114 99.2084 36.186C99.3164 36.258 99.4184 36.324 99.5144 36.384C99.6224 36.432 99.7664 36.474 99.9464 36.51C100.126 36.546 100.282 36.576 100.414 36.6C100.546 36.624 100.726 36.654 100.954 36.69C101.194 36.726 101.38 36.756 101.512 36.78C101.992 36.864 102.394 36.96 102.718 37.068C103.054 37.164 103.372 37.308 103.672 37.5C103.984 37.68 104.218 37.926 104.374 38.238C104.53 38.55 104.608 38.928 104.608 39.372C104.608 40.332 104.248 41.046 103.528 41.514C102.82 41.97 101.938 42.198 100.882 42.198C99.5984 42.198 98.5004 41.964 97.5884 41.496ZM106.805 42V28.248H108.425V34.26L108.461 34.278C109.349 33.39 110.381 32.946 111.557 32.946C112.553 32.946 113.339 33.27 113.915 33.918C114.407 34.482 114.653 35.352 114.653 36.528V42H113.033V36.834C113.033 35.958 112.889 35.358 112.601 35.034C112.265 34.65 111.815 34.458 111.251 34.458C110.735 34.458 110.219 34.596 109.703 34.872C109.199 35.148 108.773 35.502 108.425 35.934V42H106.805ZM117.457 30.912C117.241 30.684 117.133 30.414 117.133 30.102C117.133 29.79 117.241 29.526 117.457 29.31C117.685 29.082 117.955 28.968 118.267 28.968C118.579 28.968 118.843 29.082 119.059 29.31C119.287 29.526 119.401 29.79 119.401 30.102C119.401 30.414 119.287 30.684 119.059 30.912C118.843 31.128 118.579 31.236 118.267 31.236C117.955 31.236 117.685 31.128 117.457 30.912ZM117.457 42V33.144H119.077V42H117.457ZM123.542 41.73V45.96H121.922V33.144H123.542V33.72L123.578 33.738C124.322 33.21 125.162 32.946 126.098 32.946C127.31 32.946 128.324 33.378 129.14 34.242C129.968 35.094 130.382 36.192 130.382 37.536C130.382 38.928 129.938 40.056 129.05 40.92C128.162 41.772 127.064 42.198 125.756 42.198C124.976 42.198 124.25 42.036 123.578 41.712L123.542 41.73ZM123.542 40.164C124.286 40.572 125.036 40.776 125.792 40.776C126.668 40.776 127.376 40.488 127.916 39.912C128.468 39.324 128.744 38.574 128.744 37.662C128.744 36.738 128.474 35.964 127.934 35.34C127.394 34.716 126.692 34.404 125.828 34.404C124.952 34.404 124.19 34.674 123.542 35.214V40.164ZM132.393 41.496V39.804C133.389 40.428 134.511 40.74 135.759 40.74C137.103 40.74 137.775 40.332 137.775 39.516C137.775 39.372 137.751 39.246 137.703 39.138C137.667 39.018 137.595 38.916 137.487 38.832C137.379 38.748 137.271 38.682 137.163 38.634C137.067 38.574 136.923 38.526 136.731 38.49C136.539 38.442 136.383 38.406 136.263 38.382C136.143 38.358 135.957 38.328 135.705 38.292C135.453 38.256 135.261 38.226 135.129 38.202C134.145 38.034 133.395 37.77 132.879 37.41C132.363 37.05 132.105 36.468 132.105 35.664C132.117 34.776 132.453 34.104 133.113 33.648C133.785 33.18 134.661 32.946 135.741 32.946C136.965 32.946 138.021 33.18 138.909 33.648V35.268C137.925 34.692 136.845 34.404 135.669 34.404C134.385 34.404 133.743 34.782 133.743 35.538C133.743 35.682 133.761 35.808 133.797 35.916C133.845 36.024 133.917 36.114 134.013 36.186C134.121 36.258 134.223 36.324 134.319 36.384C134.427 36.432 134.571 36.474 134.751 36.51C134.931 36.546 135.087 36.576 135.219 36.6C135.351 36.624 135.531 36.654 135.759 36.69C135.999 36.726 136.185 36.756 136.317 36.78C136.797 36.864 137.199 36.96 137.523 37.068C137.859 37.164 138.177 37.308 138.477 37.5C138.789 37.68 139.023 37.926 139.179 38.238C139.335 38.55 139.413 38.928 139.413 39.372C139.413 40.332 139.053 41.046 138.333 41.514C137.625 41.97 136.743 42.198 135.687 42.198C134.403 42.198 133.305 41.964 132.393 41.496ZM36.458 76V62.968H43.982V64.516H38.168V68.476H43.262V69.97H38.168V74.452H44.144V76H36.458ZM52.1141 76L50.8001 74.218C50.2841 73.522 49.8281 72.892 49.4321 72.328H49.3961C49.1681 72.64 48.7001 73.282 47.9921 74.254L46.6961 76H44.8601L48.4061 71.302L45.2741 67.144H47.1821L48.1361 68.44C48.7121 69.22 49.1501 69.826 49.4501 70.258H49.4861C49.8461 69.742 50.2841 69.13 50.8001 68.422L51.7361 67.144H53.5721L50.4761 71.266L54.0221 76H52.1141ZM56.9912 75.73V79.96H55.3712V67.144H56.9912V67.72L57.0272 67.738C57.7712 67.21 58.6112 66.946 59.5472 66.946C60.7592 66.946 61.7732 67.378 62.5892 68.242C63.4172 69.094 63.8312 70.192 63.8312 71.536C63.8312 72.928 63.3872 74.056 62.4992 74.92C61.6112 75.772 60.5132 76.198 59.2052 76.198C58.4252 76.198 57.6992 76.036 57.0272 75.712L56.9912 75.73ZM56.9912 74.164C57.7352 74.572 58.4852 74.776 59.2412 74.776C60.1172 74.776 60.8252 74.488 61.3652 73.912C61.9172 73.324 62.1932 72.574 62.1932 71.662C62.1932 70.738 61.9232 69.964 61.3832 69.34C60.8432 68.716 60.1412 68.404 59.2772 68.404C58.4012 68.404 57.6392 68.674 56.9912 69.214V74.164ZM68.5243 76.198C67.6723 76.198 66.9703 75.988 66.4183 75.568C65.7943 75.1 65.4823 74.446 65.4823 73.606C65.4823 72.67 65.8723 71.95 66.6523 71.446C67.2643 71.05 68.0923 70.852 69.1363 70.852C69.7723 70.852 70.4023 70.93 71.0263 71.086V70.348C71.0263 69.7 70.8583 69.214 70.5223 68.89C70.1623 68.566 69.6163 68.404 68.8843 68.404C67.8763 68.404 66.9703 68.698 66.1663 69.286V67.702C66.9943 67.198 67.9783 66.946 69.1183 66.946C70.2943 66.946 71.1763 67.216 71.7643 67.756C72.3523 68.284 72.6463 69.058 72.6463 70.078V73.84C72.6463 74.464 72.8743 74.776 73.3303 74.776C73.5103 74.776 73.6843 74.734 73.8523 74.65V76C73.5883 76.108 73.3003 76.162 72.9883 76.162C72.1843 76.162 71.6143 75.85 71.2783 75.226H71.2423C70.9543 75.49 70.5643 75.718 70.0723 75.91C69.5923 76.102 69.0763 76.198 68.5243 76.198ZM68.8123 74.758C69.6403 74.758 70.3783 74.5 71.0263 73.984V72.328C70.4983 72.172 69.9223 72.094 69.2983 72.094C68.6743 72.094 68.1523 72.202 67.7323 72.418C67.3243 72.634 67.1203 72.982 67.1203 73.462C67.1203 73.882 67.2763 74.206 67.5883 74.434C67.9003 74.65 68.3083 74.758 68.8123 74.758ZM75.6564 76V67.144H77.2764V68.26L77.3124 68.278C78.2004 67.39 79.2324 66.946 80.4084 66.946C81.4044 66.946 82.1904 67.27 82.7664 67.918C83.2584 68.482 83.5044 69.352 83.5044 70.528V76H81.8844V70.834C81.8844 69.958 81.7464 69.358 81.4704 69.034C81.1464 68.65 80.6724 68.458 80.0484 68.458C79.5444 68.458 79.0344 68.596 78.5184 68.872C78.0144 69.148 77.6004 69.502 77.2764 69.934V76H75.6564ZM86.0747 75.496V73.804C87.0707 74.428 88.1927 74.74 89.4407 74.74C90.7847 74.74 91.4567 74.332 91.4567 73.516C91.4567 73.372 91.4327 73.246 91.3847 73.138C91.3487 73.018 91.2767 72.916 91.1687 72.832C91.0607 72.748 90.9527 72.682 90.8447 72.634C90.7487 72.574 90.6047 72.526 90.4127 72.49C90.2207 72.442 90.0647 72.406 89.9447 72.382C89.8247 72.358 89.6387 72.328 89.3867 72.292C89.1347 72.256 88.9427 72.226 88.8107 72.202C87.8267 72.034 87.0767 71.77 86.5607 71.41C86.0447 71.05 85.7867 70.468 85.7867 69.664C85.7987 68.776 86.1347 68.104 86.7947 67.648C87.4667 67.18 88.3427 66.946 89.4227 66.946C90.6467 66.946 91.7027 67.18 92.5907 67.648V69.268C91.6067 68.692 90.5267 68.404 89.3507 68.404C88.0667 68.404 87.4247 68.782 87.4247 69.538C87.4247 69.682 87.4427 69.808 87.4787 69.916C87.5267 70.024 87.5987 70.114 87.6947 70.186C87.8027 70.258 87.9047 70.324 88.0007 70.384C88.1087 70.432 88.2527 70.474 88.4327 70.51C88.6127 70.546 88.7687 70.576 88.9007 70.6C89.0327 70.624 89.2127 70.654 89.4407 70.69C89.6807 70.726 89.8667 70.756 89.9987 70.78C90.4787 70.864 90.8807 70.96 91.2047 71.068C91.5407 71.164 91.8587 71.308 92.1587 71.5C92.4707 71.68 92.7047 71.926 92.8607 72.238C93.0167 72.55 93.0947 72.928 93.0947 73.372C93.0947 74.332 92.7347 75.046 92.0147 75.514C91.3067 75.97 90.4247 76.198 89.3687 76.198C88.0847 76.198 86.9867 75.964 86.0747 75.496ZM95.2911 64.912C95.0751 64.684 94.9671 64.414 94.9671 64.102C94.9671 63.79 95.0751 63.526 95.2911 63.31C95.5191 63.082 95.7891 62.968 96.1011 62.968C96.4131 62.968 96.6771 63.082 96.8931 63.31C97.1211 63.526 97.2351 63.79 97.2351 64.102C97.2351 64.414 97.1211 64.684 96.8931 64.912C96.6771 65.128 96.4131 65.236 96.1011 65.236C95.7891 65.236 95.5191 65.128 95.2911 64.912ZM95.2911 76V67.144H96.9111V76H95.2911ZM100.476 74.866C99.588 73.978 99.144 72.88 99.144 71.572C99.144 70.264 99.588 69.166 100.476 68.278C101.376 67.39 102.492 66.946 103.824 66.946C105.156 66.946 106.266 67.39 107.154 68.278C108.054 69.166 108.504 70.264 108.504 71.572C108.504 72.88 108.054 73.978 107.154 74.866C106.266 75.754 105.156 76.198 103.824 76.198C102.492 76.198 101.376 75.754 100.476 74.866ZM101.628 69.322C101.052 69.922 100.764 70.672 100.764 71.572C100.764 72.472 101.052 73.222 101.628 73.822C102.216 74.422 102.948 74.722 103.824 74.722C104.7 74.722 105.426 74.422 106.002 73.822C106.59 73.222 106.884 72.472 106.884 71.572C106.884 70.672 106.59 69.922 106.002 69.322C105.426 68.722 104.7 68.422 103.824 68.422C102.948 68.422 102.216 68.722 101.628 69.322ZM110.742 76V67.144H112.362V68.26L112.398 68.278C113.286 67.39 114.318 66.946 115.494 66.946C116.49 66.946 117.276 67.27 117.852 67.918C118.344 68.482 118.59 69.352 118.59 70.528V76H116.97V70.834C116.97 69.958 116.832 69.358 116.556 69.034C116.232 68.65 115.758 68.458 115.134 68.458C114.63 68.458 114.12 68.596 113.604 68.872C113.1 69.148 112.686 69.502 112.362 69.934V76H110.742ZM126.474 74.866C125.586 73.978 125.142 72.88 125.142 71.572C125.142 70.264 125.586 69.166 126.474 68.278C127.374 67.39 128.49 66.946 129.822 66.946C131.154 66.946 132.264 67.39 133.152 68.278C134.052 69.166 134.502 70.264 134.502 71.572C134.502 72.88 134.052 73.978 133.152 74.866C132.264 75.754 131.154 76.198 129.822 76.198C128.49 76.198 127.374 75.754 126.474 74.866ZM127.626 69.322C127.05 69.922 126.762 70.672 126.762 71.572C126.762 72.472 127.05 73.222 127.626 73.822C128.214 74.422 128.946 74.722 129.822 74.722C130.698 74.722 131.424 74.422 132 73.822C132.588 73.222 132.882 72.472 132.882 71.572C132.882 70.672 132.588 69.922 132 69.322C131.424 68.722 130.698 68.422 129.822 68.422C128.946 68.422 128.214 68.722 127.626 69.322ZM137.19 76V68.602H135.786V67.144H137.19V65.452C137.19 64.192 137.454 63.304 137.982 62.788C138.486 62.296 139.176 62.05 140.052 62.05C140.532 62.05 140.976 62.11 141.384 62.23V63.688C140.976 63.58 140.556 63.526 140.124 63.526C139.608 63.526 139.26 63.676 139.08 63.976C138.9 64.264 138.81 64.678 138.81 65.218V67.144H141.078V68.602H138.81V76H137.19ZM154.127 73.858V75.586C153.383 75.994 152.501 76.198 151.481 76.198C150.077 76.198 148.925 75.766 148.025 74.902C147.125 74.038 146.675 72.946 146.675 71.626C146.675 70.27 147.143 69.154 148.079 68.278C149.027 67.39 150.197 66.946 151.589 66.946C152.465 66.946 153.263 67.132 153.983 67.504V69.178C153.191 68.674 152.369 68.422 151.517 68.422C150.569 68.422 149.795 68.728 149.195 69.34C148.607 69.952 148.313 70.714 148.313 71.626C148.313 72.538 148.613 73.282 149.213 73.858C149.825 74.434 150.611 74.722 151.571 74.722C152.543 74.722 153.395 74.434 154.127 73.858ZM156.463 76V67.144H158.083V68.44L158.119 68.458C158.779 67.534 159.655 67.072 160.747 67.072C160.951 67.072 161.143 67.096 161.323 67.144V68.746C161.131 68.698 160.921 68.674 160.693 68.674C159.565 68.674 158.695 69.196 158.083 70.24V76H156.463ZM170.637 72.04H163.869C163.989 72.892 164.343 73.558 164.931 74.038C165.519 74.506 166.257 74.74 167.145 74.74C168.213 74.74 169.233 74.374 170.205 73.642V75.37C169.341 75.922 168.285 76.198 167.037 76.198C165.645 76.198 164.499 75.772 163.599 74.92C162.699 74.068 162.249 72.952 162.249 71.572C162.249 70.216 162.675 69.106 163.527 68.242C164.391 67.378 165.435 66.946 166.659 66.946C167.799 66.946 168.753 67.33 169.521 68.098C170.301 68.854 170.691 69.898 170.691 71.23C170.691 71.554 170.673 71.824 170.637 72.04ZM166.623 68.404C165.987 68.404 165.405 68.608 164.877 69.016C164.361 69.412 164.037 69.994 163.905 70.762H169.125C169.065 69.958 168.789 69.364 168.297 68.98C167.805 68.596 167.247 68.404 166.623 68.404ZM175.452 76.198C174.6 76.198 173.898 75.988 173.346 75.568C172.722 75.1 172.41 74.446 172.41 73.606C172.41 72.67 172.8 71.95 173.58 71.446C174.192 71.05 175.02 70.852 176.064 70.852C176.7 70.852 177.33 70.93 177.954 71.086V70.348C177.954 69.7 177.786 69.214 177.45 68.89C177.09 68.566 176.544 68.404 175.812 68.404C174.804 68.404 173.898 68.698 173.094 69.286V67.702C173.922 67.198 174.906 66.946 176.046 66.946C177.222 66.946 178.104 67.216 178.692 67.756C179.28 68.284 179.574 69.058 179.574 70.078V73.84C179.574 74.464 179.802 74.776 180.258 74.776C180.438 74.776 180.612 74.734 180.78 74.65V76C180.516 76.108 180.228 76.162 179.916 76.162C179.112 76.162 178.542 75.85 178.206 75.226H178.17C177.882 75.49 177.492 75.718 177 75.91C176.52 76.102 176.004 76.198 175.452 76.198ZM175.74 74.758C176.568 74.758 177.306 74.5 177.954 73.984V72.328C177.426 72.172 176.85 72.094 176.226 72.094C175.602 72.094 175.08 72.202 174.66 72.418C174.252 72.634 174.048 72.982 174.048 73.462C174.048 73.882 174.204 74.206 174.516 74.434C174.828 74.65 175.236 74.758 175.74 74.758ZM183.934 75.37C183.49 74.866 183.268 74.05 183.268 72.922V68.602H181.63V67.144H183.268V64.732L184.888 64.462V67.144H187.552V68.602H184.888V72.616C184.888 73.276 184.978 73.792 185.158 74.164C185.338 74.536 185.692 74.722 186.22 74.722C186.712 74.722 187.156 74.596 187.552 74.344V75.874C187.12 76.09 186.586 76.198 185.95 76.198C185.086 76.198 184.414 75.922 183.934 75.37ZM190.089 74.866C189.201 73.978 188.757 72.88 188.757 71.572C188.757 70.264 189.201 69.166 190.089 68.278C190.989 67.39 192.105 66.946 193.437 66.946C194.769 66.946 195.879 67.39 196.767 68.278C197.667 69.166 198.117 70.264 198.117 71.572C198.117 72.88 197.667 73.978 196.767 74.866C195.879 75.754 194.769 76.198 193.437 76.198C192.105 76.198 190.989 75.754 190.089 74.866ZM191.241 69.322C190.665 69.922 190.377 70.672 190.377 71.572C190.377 72.472 190.665 73.222 191.241 73.822C191.829 74.422 192.561 74.722 193.437 74.722C194.313 74.722 195.039 74.422 195.615 73.822C196.203 73.222 196.497 72.472 196.497 71.572C196.497 70.672 196.203 69.922 195.615 69.322C195.039 68.722 194.313 68.422 193.437 68.422C192.561 68.422 191.829 68.722 191.241 69.322ZM200.356 76V67.144H201.976V68.44L202.012 68.458C202.672 67.534 203.548 67.072 204.64 67.072C204.844 67.072 205.036 67.096 205.216 67.144V68.746C205.024 68.698 204.814 68.674 204.586 68.674C203.458 68.674 202.588 69.196 201.976 70.24V76H200.356ZM218.164 73.858V75.586C217.42 75.994 216.538 76.198 215.518 76.198C214.114 76.198 212.962 75.766 212.062 74.902C211.162 74.038 210.712 72.946 210.712 71.626C210.712 70.27 211.18 69.154 212.116 68.278C213.064 67.39 214.234 66.946 215.626 66.946C216.502 66.946 217.3 67.132 218.02 67.504V69.178C217.228 68.674 216.406 68.422 215.554 68.422C214.606 68.422 213.832 68.728 213.232 69.34C212.644 69.952 212.35 70.714 212.35 71.626C212.35 72.538 212.65 73.282 213.25 73.858C213.862 74.434 214.648 74.722 215.608 74.722C216.58 74.722 217.432 74.434 218.164 73.858ZM221.185 74.866C220.297 73.978 219.853 72.88 219.853 71.572C219.853 70.264 220.297 69.166 221.185 68.278C222.085 67.39 223.201 66.946 224.533 66.946C225.865 66.946 226.975 67.39 227.863 68.278C228.763 69.166 229.213 70.264 229.213 71.572C229.213 72.88 228.763 73.978 227.863 74.866C226.975 75.754 225.865 76.198 224.533 76.198C223.201 76.198 222.085 75.754 221.185 74.866ZM222.337 69.322C221.761 69.922 221.473 70.672 221.473 71.572C221.473 72.472 221.761 73.222 222.337 73.822C222.925 74.422 223.657 74.722 224.533 74.722C225.409 74.722 226.135 74.422 226.711 73.822C227.299 73.222 227.593 72.472 227.593 71.572C227.593 70.672 227.299 69.922 226.711 69.322C226.135 68.722 225.409 68.422 224.533 68.422C223.657 68.422 222.925 68.722 222.337 69.322ZM243.637 76V70.762C243.637 69.934 243.487 69.346 243.187 68.998C242.875 68.638 242.425 68.458 241.837 68.458C241.345 68.458 240.853 68.596 240.361 68.872C239.869 69.136 239.461 69.46 239.137 69.844C239.149 69.976 239.155 70.186 239.155 70.474V76H237.535V70.762C237.535 69.922 237.397 69.34 237.121 69.016C236.797 68.644 236.347 68.458 235.771 68.458C235.279 68.458 234.787 68.59 234.295 68.854C233.803 69.118 233.395 69.448 233.071 69.844V76H231.451V67.144H233.071V68.224L233.107 68.242C233.971 67.378 234.973 66.946 236.113 66.946C236.689 66.946 237.217 67.078 237.697 67.342C238.189 67.594 238.567 67.972 238.831 68.476C239.911 67.456 241.033 66.946 242.197 66.946C243.193 66.946 243.967 67.258 244.519 67.882C245.011 68.422 245.257 69.286 245.257 70.474V76H243.637ZM260.249 76V70.762C260.249 69.934 260.099 69.346 259.799 68.998C259.487 68.638 259.037 68.458 258.449 68.458C257.957 68.458 257.465 68.596 256.973 68.872C256.481 69.136 256.073 69.46 255.749 69.844C255.761 69.976 255.767 70.186 255.767 70.474V76H254.147V70.762C254.147 69.922 254.009 69.34 253.733 69.016C253.409 68.644 252.959 68.458 252.383 68.458C251.891 68.458 251.399 68.59 250.907 68.854C250.415 69.118 250.007 69.448 249.683 69.844V76H248.063V67.144H249.683V68.224L249.719 68.242C250.583 67.378 251.585 66.946 252.725 66.946C253.301 66.946 253.829 67.078 254.309 67.342C254.801 67.594 255.179 67.972 255.443 68.476C256.523 67.456 257.645 66.946 258.809 66.946C259.805 66.946 260.579 67.258 261.131 67.882C261.623 68.422 261.869 69.286 261.869 70.474V76H260.249ZM265.358 75.208C264.878 74.644 264.638 73.762 264.638 72.562V67.144H266.258V72.256C266.258 73.144 266.402 73.756 266.69 74.092C267.014 74.5 267.482 74.704 268.094 74.704C268.61 74.704 269.114 74.56 269.606 74.272C270.098 73.984 270.518 73.624 270.866 73.192V67.144H272.486V76H270.866V74.884L270.83 74.866C269.942 75.754 268.922 76.198 267.77 76.198C266.738 76.198 265.934 75.868 265.358 75.208ZM275.326 76V67.144H276.946V68.26L276.982 68.278C277.87 67.39 278.902 66.946 280.078 66.946C281.074 66.946 281.86 67.27 282.436 67.918C282.928 68.482 283.174 69.352 283.174 70.528V76H281.554V70.834C281.554 69.958 281.416 69.358 281.14 69.034C280.816 68.65 280.342 68.458 279.718 68.458C279.214 68.458 278.704 68.596 278.188 68.872C277.684 69.148 277.27 69.502 276.946 69.934V76H275.326ZM285.979 64.912C285.763 64.684 285.655 64.414 285.655 64.102C285.655 63.79 285.763 63.526 285.979 63.31C286.207 63.082 286.477 62.968 286.789 62.968C287.101 62.968 287.365 63.082 287.581 63.31C287.809 63.526 287.923 63.79 287.923 64.102C287.923 64.414 287.809 64.684 287.581 64.912C287.365 65.128 287.101 65.236 286.789 65.236C286.477 65.236 286.207 65.128 285.979 64.912ZM285.979 76V67.144H287.599V76H285.979ZM291.793 75.37C291.349 74.866 291.127 74.05 291.127 72.922V68.602H289.489V67.144H291.127V64.732L292.747 64.462V67.144H295.411V68.602H292.747V72.616C292.747 73.276 292.837 73.792 293.017 74.164C293.197 74.536 293.551 74.722 294.079 74.722C294.571 74.722 295.015 74.596 295.411 74.344V75.874C294.979 76.09 294.445 76.198 293.809 76.198C292.945 76.198 292.273 75.922 291.793 75.37ZM297.44 64.912C297.224 64.684 297.116 64.414 297.116 64.102C297.116 63.79 297.224 63.526 297.44 63.31C297.668 63.082 297.938 62.968 298.25 62.968C298.562 62.968 298.826 63.082 299.042 63.31C299.27 63.526 299.384 63.79 299.384 64.102C299.384 64.414 299.27 64.684 299.042 64.912C298.826 65.128 298.562 65.236 298.25 65.236C297.938 65.236 297.668 65.128 297.44 64.912ZM297.44 76V67.144H299.06V76H297.44ZM309.68 72.04H302.912C303.032 72.892 303.386 73.558 303.974 74.038C304.562 74.506 305.3 74.74 306.188 74.74C307.256 74.74 308.276 74.374 309.248 73.642V75.37C308.384 75.922 307.328 76.198 306.08 76.198C304.688 76.198 303.542 75.772 302.642 74.92C301.742 74.068 301.292 72.952 301.292 71.572C301.292 70.216 301.718 69.106 302.57 68.242C303.434 67.378 304.478 66.946 305.702 66.946C306.842 66.946 307.796 67.33 308.564 68.098C309.344 68.854 309.734 69.898 309.734 71.23C309.734 71.554 309.716 71.824 309.68 72.04ZM305.666 68.404C305.03 68.404 304.448 68.608 303.92 69.016C303.404 69.412 303.08 69.994 302.948 70.762H308.168C308.108 69.958 307.832 69.364 307.34 68.98C306.848 68.596 306.29 68.404 305.666 68.404ZM311.813 75.496V73.804C312.809 74.428 313.931 74.74 315.179 74.74C316.523 74.74 317.195 74.332 317.195 73.516C317.195 73.372 317.171 73.246 317.123 73.138C317.087 73.018 317.015 72.916 316.907 72.832C316.799 72.748 316.691 72.682 316.583 72.634C316.487 72.574 316.343 72.526 316.151 72.49C315.959 72.442 315.803 72.406 315.683 72.382C315.563 72.358 315.377 72.328 315.125 72.292C314.873 72.256 314.681 72.226 314.549 72.202C313.565 72.034 312.815 71.77 312.299 71.41C311.783 71.05 311.525 70.468 311.525 69.664C311.537 68.776 311.873 68.104 312.533 67.648C313.205 67.18 314.081 66.946 315.161 66.946C316.385 66.946 317.441 67.18 318.329 67.648V69.268C317.345 68.692 316.265 68.404 315.089 68.404C313.805 68.404 313.163 68.782 313.163 69.538C313.163 69.682 313.181 69.808 313.217 69.916C313.265 70.024 313.337 70.114 313.433 70.186C313.541 70.258 313.643 70.324 313.739 70.384C313.847 70.432 313.991 70.474 314.171 70.51C314.351 70.546 314.507 70.576 314.639 70.6C314.771 70.624 314.951 70.654 315.179 70.69C315.419 70.726 315.605 70.756 315.737 70.78C316.217 70.864 316.619 70.96 316.943 71.068C317.279 71.164 317.597 71.308 317.897 71.5C318.209 71.68 318.443 71.926 318.599 72.238C318.755 72.55 318.833 72.928 318.833 73.372C318.833 74.332 318.473 75.046 317.753 75.514C317.045 75.97 316.163 76.198 315.107 76.198C313.823 76.198 312.725 75.964 311.813 75.496ZM37.142 94.866C36.254 93.978 35.81 92.88 35.81 91.572C35.81 90.264 36.254 89.166 37.142 88.278C38.042 87.39 39.158 86.946 40.49 86.946C41.822 86.946 42.932 87.39 43.82 88.278C44.72 89.166 45.17 90.264 45.17 91.572C45.17 92.88 44.72 93.978 43.82 94.866C42.932 95.754 41.822 96.198 40.49 96.198C39.158 96.198 38.042 95.754 37.142 94.866ZM38.294 89.322C37.718 89.922 37.43 90.672 37.43 91.572C37.43 92.472 37.718 93.222 38.294 93.822C38.882 94.422 39.614 94.722 40.49 94.722C41.366 94.722 42.092 94.422 42.668 93.822C43.256 93.222 43.55 92.472 43.55 91.572C43.55 90.672 43.256 89.922 42.668 89.322C42.092 88.722 41.366 88.422 40.49 88.422C39.614 88.422 38.882 88.722 38.294 89.322ZM47.4083 96V87.144H49.0283V88.26L49.0643 88.278C49.9523 87.39 50.9843 86.946 52.1603 86.946C53.1563 86.946 53.9423 87.27 54.5183 87.918C55.0103 88.482 55.2563 89.352 55.2563 90.528V96H53.6363V90.834C53.6363 89.958 53.4983 89.358 53.2223 89.034C52.8983 88.65 52.4243 88.458 51.8003 88.458C51.2963 88.458 50.7863 88.596 50.2703 88.872C49.7663 89.148 49.3523 89.502 49.0283 89.934V96H47.4083ZM63.14 94.866C62.252 93.978 61.808 92.88 61.808 91.572C61.808 90.264 62.252 89.166 63.14 88.278C64.04 87.39 65.156 86.946 66.488 86.946C67.82 86.946 68.93 87.39 69.818 88.278C70.718 89.166 71.168 90.264 71.168 91.572C71.168 92.88 70.718 93.978 69.818 94.866C68.93 95.754 67.82 96.198 66.488 96.198C65.156 96.198 64.04 95.754 63.14 94.866ZM64.292 89.322C63.716 89.922 63.428 90.672 63.428 91.572C63.428 92.472 63.716 93.222 64.292 93.822C64.88 94.422 65.612 94.722 66.488 94.722C67.364 94.722 68.09 94.422 68.666 93.822C69.254 93.222 69.548 92.472 69.548 91.572C69.548 90.672 69.254 89.922 68.666 89.322C68.09 88.722 67.364 88.422 66.488 88.422C65.612 88.422 64.88 88.722 64.292 89.322ZM74.0904 95.208C73.6104 94.644 73.3704 93.762 73.3704 92.562V87.144H74.9904V92.256C74.9904 93.144 75.1344 93.756 75.4224 94.092C75.7464 94.5 76.2144 94.704 76.8264 94.704C77.3424 94.704 77.8464 94.56 78.3384 94.272C78.8304 93.984 79.2504 93.624 79.5984 93.192V87.144H81.2184V96H79.5984V94.884L79.5624 94.866C78.6744 95.754 77.6544 96.198 76.5024 96.198C75.4704 96.198 74.6664 95.868 74.0904 95.208ZM84.0587 96V87.144H85.6787V88.44L85.7147 88.458C86.3747 87.534 87.2507 87.072 88.3427 87.072C88.5467 87.072 88.7387 87.096 88.9187 87.144V88.746C88.7267 88.698 88.5167 88.674 88.2887 88.674C87.1607 88.674 86.2907 89.196 85.6787 90.24V96H84.0587ZM96.6475 95.73V99.96H95.0275V87.144H96.6475V87.72L96.6835 87.738C97.4275 87.21 98.2675 86.946 99.2035 86.946C100.415 86.946 101.429 87.378 102.245 88.242C103.073 89.094 103.487 90.192 103.487 91.536C103.487 92.928 103.043 94.056 102.155 94.92C101.267 95.772 100.169 96.198 98.8615 96.198C98.0815 96.198 97.3555 96.036 96.6835 95.712L96.6475 95.73ZM96.6475 94.164C97.3915 94.572 98.1415 94.776 98.8975 94.776C99.7735 94.776 100.481 94.488 101.021 93.912C101.573 93.324 101.849 92.574 101.849 91.662C101.849 90.738 101.579 89.964 101.039 89.34C100.499 88.716 99.7975 88.404 98.9335 88.404C98.0575 88.404 97.2955 88.674 96.6475 89.214V94.164ZM105.733 96V82.248H107.353V96H105.733ZM112.645 96.198C111.793 96.198 111.091 95.988 110.539 95.568C109.915 95.1 109.603 94.446 109.603 93.606C109.603 92.67 109.993 91.95 110.773 91.446C111.385 91.05 112.213 90.852 113.257 90.852C113.893 90.852 114.523 90.93 115.147 91.086V90.348C115.147 89.7 114.979 89.214 114.643 88.89C114.283 88.566 113.737 88.404 113.005 88.404C111.997 88.404 111.091 88.698 110.287 89.286V87.702C111.115 87.198 112.099 86.946 113.239 86.946C114.415 86.946 115.297 87.216 115.885 87.756C116.473 88.284 116.767 89.058 116.767 90.078V93.84C116.767 94.464 116.995 94.776 117.451 94.776C117.631 94.776 117.805 94.734 117.973 94.65V96C117.709 96.108 117.421 96.162 117.109 96.162C116.305 96.162 115.735 95.85 115.399 95.226H115.363C115.075 95.49 114.685 95.718 114.193 95.91C113.713 96.102 113.197 96.198 112.645 96.198ZM112.933 94.758C113.761 94.758 114.499 94.5 115.147 93.984V92.328C114.619 92.172 114.043 92.094 113.419 92.094C112.795 92.094 112.273 92.202 111.853 92.418C111.445 92.634 111.241 92.982 111.241 93.462C111.241 93.882 111.397 94.206 111.709 94.434C112.021 94.65 112.429 94.758 112.933 94.758ZM121.127 95.37C120.683 94.866 120.461 94.05 120.461 92.922V88.602H118.823V87.144H120.461V84.732L122.081 84.462V87.144H124.745V88.602H122.081V92.616C122.081 93.276 122.171 93.792 122.351 94.164C122.531 94.536 122.885 94.722 123.413 94.722C123.905 94.722 124.349 94.596 124.745 94.344V95.874C124.313 96.09 123.779 96.198 123.143 96.198C122.279 96.198 121.607 95.922 121.127 95.37ZM127.224 96V88.602H125.82V87.144H127.224V85.452C127.224 84.192 127.488 83.304 128.016 82.788C128.52 82.296 129.21 82.05 130.086 82.05C130.566 82.05 131.01 82.11 131.418 82.23V83.688C131.01 83.58 130.59 83.526 130.158 83.526C129.642 83.526 129.294 83.676 129.114 83.976C128.934 84.264 128.844 84.678 128.844 85.218V87.144H131.112V88.602H128.844V96H127.224ZM133.593 94.866C132.705 93.978 132.261 92.88 132.261 91.572C132.261 90.264 132.705 89.166 133.593 88.278C134.493 87.39 135.609 86.946 136.941 86.946C138.273 86.946 139.383 87.39 140.271 88.278C141.171 89.166 141.621 90.264 141.621 91.572C141.621 92.88 141.171 93.978 140.271 94.866C139.383 95.754 138.273 96.198 136.941 96.198C135.609 96.198 134.493 95.754 133.593 94.866ZM134.745 89.322C134.169 89.922 133.881 90.672 133.881 91.572C133.881 92.472 134.169 93.222 134.745 93.822C135.333 94.422 136.065 94.722 136.941 94.722C137.817 94.722 138.543 94.422 139.119 93.822C139.707 93.222 140.001 92.472 140.001 91.572C140.001 90.672 139.707 89.922 139.119 89.322C138.543 88.722 137.817 88.422 136.941 88.422C136.065 88.422 135.333 88.722 134.745 89.322ZM143.86 96V87.144H145.48V88.44L145.516 88.458C146.176 87.534 147.052 87.072 148.144 87.072C148.348 87.072 148.54 87.096 148.72 87.144V88.746C148.528 88.698 148.318 88.674 148.09 88.674C146.962 88.674 146.092 89.196 145.48 90.24V96H143.86ZM162.655 96V90.762C162.655 89.934 162.505 89.346 162.205 88.998C161.893 88.638 161.443 88.458 160.855 88.458C160.363 88.458 159.871 88.596 159.379 88.872C158.887 89.136 158.479 89.46 158.155 89.844C158.167 89.976 158.173 90.186 158.173 90.474V96H156.553V90.762C156.553 89.922 156.415 89.34 156.139 89.016C155.815 88.644 155.365 88.458 154.789 88.458C154.297 88.458 153.805 88.59 153.313 88.854C152.821 89.118 152.413 89.448 152.089 89.844V96H150.469V87.144H152.089V88.224L152.125 88.242C152.989 87.378 153.991 86.946 155.131 86.946C155.707 86.946 156.235 87.078 156.715 87.342C157.207 87.594 157.585 87.972 157.849 88.476C158.929 87.456 160.051 86.946 161.215 86.946C162.211 86.946 162.985 87.258 163.537 87.882C164.029 88.422 164.275 89.286 164.275 90.474V96H162.655ZM42.704 126.454L39.86 122.386C39.464 121.822 38.882 120.964 38.114 119.812L38.078 119.83C38.102 120.862 38.114 121.804 38.114 122.656V130H36.458V116.968H38.114L42.74 123.592L47.366 116.968H49.004V130H47.294V122.656C47.294 121.804 47.306 120.862 47.33 119.83L47.294 119.812C46.526 120.964 45.944 121.822 45.548 122.386L42.704 126.454ZM52.6108 128.866C51.7228 127.978 51.2788 126.88 51.2788 125.572C51.2788 124.264 51.7228 123.166 52.6108 122.278C53.5108 121.39 54.6268 120.946 55.9588 120.946C57.2908 120.946 58.4008 121.39 59.2888 122.278C60.1888 123.166 60.6387 124.264 60.6387 125.572C60.6387 126.88 60.1888 127.978 59.2888 128.866C58.4008 129.754 57.2908 130.198 55.9588 130.198C54.6268 130.198 53.5108 129.754 52.6108 128.866ZM53.7628 123.322C53.1868 123.922 52.8988 124.672 52.8988 125.572C52.8988 126.472 53.1868 127.222 53.7628 127.822C54.3508 128.422 55.0828 128.722 55.9588 128.722C56.8348 128.722 57.5608 128.422 58.1368 127.822C58.7248 127.222 59.0188 126.472 59.0188 125.572C59.0188 124.672 58.7248 123.922 58.1368 123.322C57.5608 122.722 56.8348 122.422 55.9588 122.422C55.0828 122.422 54.3508 122.722 53.7628 123.322ZM62.8771 130V121.144H64.4971V122.44L64.5331 122.458C65.1931 121.534 66.0691 121.072 67.1611 121.072C67.3651 121.072 67.5571 121.096 67.7371 121.144V122.746C67.5451 122.698 67.3351 122.674 67.1071 122.674C65.9791 122.674 65.1091 123.196 64.4971 124.24V130H62.8771ZM77.0515 126.04H70.2835C70.4035 126.892 70.7575 127.558 71.3455 128.038C71.9335 128.506 72.6715 128.74 73.5595 128.74C74.6275 128.74 75.6475 128.374 76.6195 127.642V129.37C75.7555 129.922 74.6995 130.198 73.4515 130.198C72.0595 130.198 70.9135 129.772 70.0135 128.92C69.1135 128.068 68.6635 126.952 68.6635 125.572C68.6635 124.216 69.0895 123.106 69.9415 122.242C70.8055 121.378 71.8495 120.946 73.0735 120.946C74.2135 120.946 75.1675 121.33 75.9355 122.098C76.7155 122.854 77.1055 123.898 77.1055 125.23C77.1055 125.554 77.0875 125.824 77.0515 126.04ZM73.0375 122.404C72.4015 122.404 71.8195 122.608 71.2915 123.016C70.7755 123.412 70.4515 123.994 70.3195 124.762H75.5395C75.4795 123.958 75.2035 123.364 74.7115 122.98C74.2195 122.596 73.6615 122.404 73.0375 122.404ZM90.0595 126.454L87.2155 122.386C86.8195 121.822 86.2375 120.964 85.4695 119.812L85.4335 119.83C85.4575 120.862 85.4695 121.804 85.4695 122.656V130H83.8135V116.968H85.4695L90.0955 123.592L94.7215 116.968H96.3595V130H94.6495V122.656C94.6495 121.804 94.6615 120.862 94.6855 119.83L94.6495 119.812C93.8815 120.964 93.2995 121.822 92.9035 122.386L90.0595 126.454ZM101.694 130.198C100.842 130.198 100.14 129.988 99.5882 129.568C98.9642 129.1 98.6522 128.446 98.6522 127.606C98.6522 126.67 99.0422 125.95 99.8222 125.446C100.434 125.05 101.262 124.852 102.306 124.852C102.942 124.852 103.572 124.93 104.196 125.086V124.348C104.196 123.7 104.028 123.214 103.692 122.89C103.332 122.566 102.786 122.404 102.054 122.404C101.046 122.404 100.14 122.698 99.3362 123.286V121.702C100.164 121.198 101.148 120.946 102.288 120.946C103.464 120.946 104.346 121.216 104.934 121.756C105.522 122.284 105.816 123.058 105.816 124.078V127.84C105.816 128.464 106.044 128.776 106.5 128.776C106.68 128.776 106.854 128.734 107.022 128.65V130C106.758 130.108 106.47 130.162 106.158 130.162C105.354 130.162 104.784 129.85 104.448 129.226H104.412C104.124 129.49 103.734 129.718 103.242 129.91C102.762 130.102 102.246 130.198 101.694 130.198ZM101.982 128.758C102.81 128.758 103.548 128.5 104.196 127.984V126.328C103.668 126.172 103.092 126.094 102.468 126.094C101.844 126.094 101.322 126.202 100.902 126.418C100.494 126.634 100.29 126.982 100.29 127.462C100.29 127.882 100.446 128.206 100.758 128.434C101.07 128.65 101.478 128.758 101.982 128.758ZM108.826 130V121.144H110.446V122.44L110.482 122.458C111.142 121.534 112.018 121.072 113.11 121.072C113.314 121.072 113.506 121.096 113.686 121.144V122.746C113.494 122.698 113.284 122.674 113.056 122.674C111.928 122.674 111.058 123.196 110.446 124.24V130H108.826ZM115.436 130V116.248H117.056V125.032L117.092 125.05L121.052 121.144H123.122L119.072 125.104L123.554 130H121.43L117.092 125.194L117.056 125.212V130H115.436ZM131.93 126.04H125.162C125.282 126.892 125.636 127.558 126.224 128.038C126.812 128.506 127.55 128.74 128.438 128.74C129.506 128.74 130.526 128.374 131.498 127.642V129.37C130.634 129.922 129.578 130.198 128.33 130.198C126.938 130.198 125.792 129.772 124.892 128.92C123.992 128.068 123.542 126.952 123.542 125.572C123.542 124.216 123.968 123.106 124.82 122.242C125.684 121.378 126.728 120.946 127.952 120.946C129.092 120.946 130.046 121.33 130.814 122.098C131.594 122.854 131.984 123.898 131.984 125.23C131.984 125.554 131.966 125.824 131.93 126.04ZM127.916 122.404C127.28 122.404 126.698 122.608 126.17 123.016C125.654 123.412 125.33 123.994 125.198 124.762H130.418C130.358 123.958 130.082 123.364 129.59 122.98C129.098 122.596 128.54 122.404 127.916 122.404ZM135.471 129.37C135.027 128.866 134.805 128.05 134.805 126.922V122.602H133.167V121.144H134.805V118.732L136.425 118.462V121.144H139.089V122.602H136.425V126.616C136.425 127.276 136.515 127.792 136.695 128.164C136.875 128.536 137.229 128.722 137.757 128.722C138.249 128.722 138.693 128.596 139.089 128.344V129.874C138.657 130.09 138.123 130.198 137.487 130.198C136.623 130.198 135.951 129.922 135.471 129.37ZM141.117 118.912C140.901 118.684 140.793 118.414 140.793 118.102C140.793 117.79 140.901 117.526 141.117 117.31C141.345 117.082 141.615 116.968 141.927 116.968C142.239 116.968 142.503 117.082 142.719 117.31C142.947 117.526 143.061 117.79 143.061 118.102C143.061 118.414 142.947 118.684 142.719 118.912C142.503 119.128 142.239 119.236 141.927 119.236C141.615 119.236 141.345 119.128 141.117 118.912ZM141.117 130V121.144H142.737V130H141.117ZM145.582 130V121.144H147.202V122.26L147.238 122.278C148.126 121.39 149.158 120.946 150.334 120.946C151.33 120.946 152.116 121.27 152.692 121.918C153.184 122.482 153.43 123.352 153.43 124.528V130H151.81V124.834C151.81 123.958 151.672 123.358 151.396 123.034C151.072 122.65 150.598 122.458 149.974 122.458C149.47 122.458 148.96 122.596 148.444 122.872C147.94 123.148 147.526 123.502 147.202 123.934V130H145.582ZM156.829 133.492V131.764C157.753 132.376 158.689 132.682 159.637 132.682C160.489 132.682 161.173 132.442 161.689 131.962C162.205 131.482 162.463 130.828 162.463 130V129.352L162.427 129.334C161.755 129.79 160.951 130.018 160.015 130.018C158.791 130.018 157.759 129.604 156.919 128.776C156.091 127.936 155.677 126.874 155.677 125.59C155.677 124.294 156.091 123.196 156.919 122.296C157.759 121.396 158.875 120.946 160.267 120.946C161.071 120.946 161.821 121.114 162.517 121.45L164.083 121.18V129.964C164.083 131.26 163.681 132.28 162.877 133.024C162.085 133.78 161.005 134.158 159.637 134.158C158.629 134.158 157.693 133.936 156.829 133.492ZM157.315 125.482C157.315 126.382 157.585 127.126 158.125 127.714C158.677 128.302 159.385 128.596 160.249 128.596C161.125 128.596 161.863 128.356 162.463 127.876V122.998C161.803 122.59 161.059 122.386 160.231 122.386C159.355 122.386 158.647 122.68 158.107 123.268C157.579 123.856 157.315 124.594 157.315 125.482ZM173.747 130.198C172.895 130.198 172.193 129.988 171.641 129.568C171.017 129.1 170.705 128.446 170.705 127.606C170.705 126.67 171.095 125.95 171.875 125.446C172.487 125.05 173.315 124.852 174.359 124.852C174.995 124.852 175.625 124.93 176.249 125.086V124.348C176.249 123.7 176.081 123.214 175.745 122.89C175.385 122.566 174.839 122.404 174.107 122.404C173.099 122.404 172.193 122.698 171.389 123.286V121.702C172.217 121.198 173.201 120.946 174.341 120.946C175.517 120.946 176.399 121.216 176.987 121.756C177.575 122.284 177.869 123.058 177.869 124.078V127.84C177.869 128.464 178.097 128.776 178.553 128.776C178.733 128.776 178.907 128.734 179.075 128.65V130C178.811 130.108 178.523 130.162 178.211 130.162C177.407 130.162 176.837 129.85 176.501 129.226H176.465C176.177 129.49 175.787 129.718 175.295 129.91C174.815 130.102 174.299 130.198 173.747 130.198ZM174.035 128.758C174.863 128.758 175.601 128.5 176.249 127.984V126.328C175.721 126.172 175.145 126.094 174.521 126.094C173.897 126.094 173.375 126.202 172.955 126.418C172.547 126.634 172.343 126.982 172.343 127.462C172.343 127.882 172.499 128.206 172.811 128.434C173.123 128.65 173.531 128.758 174.035 128.758ZM180.879 130V121.144H182.499V122.26L182.535 122.278C183.423 121.39 184.455 120.946 185.631 120.946C186.627 120.946 187.413 121.27 187.989 121.918C188.481 122.482 188.727 123.352 188.727 124.528V130H187.107V124.834C187.107 123.958 186.969 123.358 186.693 123.034C186.369 122.65 185.895 122.458 185.271 122.458C184.767 122.458 184.257 122.596 183.741 122.872C183.237 123.148 182.823 123.502 182.499 123.934V130H180.879ZM190.955 125.716C190.955 124.348 191.393 123.214 192.269 122.314C193.145 121.402 194.273 120.946 195.653 120.946C196.361 120.946 197.069 121.102 197.777 121.414L197.813 121.396V116.248H199.433V130H197.813V129.46L197.777 129.442C197.057 129.946 196.229 130.198 195.293 130.198C194.069 130.198 193.037 129.784 192.197 128.956C191.369 128.128 190.955 127.048 190.955 125.716ZM192.593 125.626C192.593 126.526 192.857 127.276 193.385 127.876C193.913 128.464 194.621 128.758 195.509 128.758C196.313 128.758 197.081 128.506 197.813 128.002V122.944C197.093 122.572 196.367 122.386 195.635 122.386C194.723 122.386 193.985 122.692 193.421 123.304C192.869 123.916 192.593 124.69 192.593 125.626ZM208.251 129.73V133.96H206.631V121.144H208.251V121.72L208.287 121.738C209.031 121.21 209.871 120.946 210.807 120.946C212.019 120.946 213.033 121.378 213.849 122.242C214.677 123.094 215.091 124.192 215.091 125.536C215.091 126.928 214.647 128.056 213.759 128.92C212.871 129.772 211.773 130.198 210.465 130.198C209.685 130.198 208.959 130.036 208.287 129.712L208.251 129.73ZM208.251 128.164C208.995 128.572 209.745 128.776 210.501 128.776C211.377 128.776 212.085 128.488 212.625 127.912C213.177 127.324 213.453 126.574 213.453 125.662C213.453 124.738 213.183 123.964 212.643 123.34C212.103 122.716 211.401 122.404 210.537 122.404C209.661 122.404 208.899 122.674 208.251 123.214V128.164ZM217.336 130V121.144H218.956V122.44L218.992 122.458C219.652 121.534 220.528 121.072 221.62 121.072C221.824 121.072 222.016 121.096 222.196 121.144V122.746C222.004 122.698 221.794 122.674 221.566 122.674C220.438 122.674 219.568 123.196 218.956 124.24V130H217.336ZM224.455 128.866C223.567 127.978 223.123 126.88 223.123 125.572C223.123 124.264 223.567 123.166 224.455 122.278C225.355 121.39 226.471 120.946 227.803 120.946C229.135 120.946 230.245 121.39 231.133 122.278C232.033 123.166 232.482 124.264 232.482 125.572C232.482 126.88 232.033 127.978 231.133 128.866C230.245 129.754 229.135 130.198 227.803 130.198C226.471 130.198 225.355 129.754 224.455 128.866ZM225.607 123.322C225.031 123.922 224.743 124.672 224.743 125.572C224.743 126.472 225.031 127.222 225.607 127.822C226.195 128.422 226.927 128.722 227.803 128.722C228.679 128.722 229.405 128.422 229.981 127.822C230.569 127.222 230.863 126.472 230.863 125.572C230.863 124.672 230.569 123.922 229.981 123.322C229.405 122.722 228.679 122.422 227.803 122.422C226.927 122.422 226.195 122.722 225.607 123.322ZM246.907 130V124.762C246.907 123.934 246.757 123.346 246.457 122.998C246.145 122.638 245.695 122.458 245.107 122.458C244.615 122.458 244.123 122.596 243.631 122.872C243.139 123.136 242.731 123.46 242.407 123.844C242.419 123.976 242.425 124.186 242.425 124.474V130H240.805V124.762C240.805 123.922 240.667 123.34 240.391 123.016C240.067 122.644 239.617 122.458 239.041 122.458C238.549 122.458 238.057 122.59 237.565 122.854C237.073 123.118 236.665 123.448 236.341 123.844V130H234.721V121.144H236.341V122.224L236.377 122.242C237.241 121.378 238.243 120.946 239.383 120.946C239.959 120.946 240.487 121.078 240.967 121.342C241.459 121.594 241.837 121.972 242.101 122.476C243.181 121.456 244.303 120.946 245.467 120.946C246.463 120.946 247.237 121.258 247.789 121.882C248.281 122.422 248.527 123.286 248.527 124.474V130H246.907ZM252.052 128.866C251.164 127.978 250.72 126.88 250.72 125.572C250.72 124.264 251.164 123.166 252.052 122.278C252.952 121.39 254.068 120.946 255.4 120.946C256.732 120.946 257.842 121.39 258.73 122.278C259.63 123.166 260.08 124.264 260.08 125.572C260.08 126.88 259.63 127.978 258.73 128.866C257.842 129.754 256.732 130.198 255.4 130.198C254.068 130.198 252.952 129.754 252.052 128.866ZM253.204 123.322C252.628 123.922 252.34 124.672 252.34 125.572C252.34 126.472 252.628 127.222 253.204 127.822C253.792 128.422 254.524 128.722 255.4 128.722C256.276 128.722 257.002 128.422 257.578 127.822C258.166 127.222 258.46 126.472 258.46 125.572C258.46 124.672 258.166 123.922 257.578 123.322C257.002 122.722 256.276 122.422 255.4 122.422C254.524 122.422 253.792 122.722 253.204 123.322ZM263.668 129.37C263.224 128.866 263.002 128.05 263.002 126.922V122.602H261.364V121.144H263.002V118.732L264.622 118.462V121.144H267.286V122.602H264.622V126.616C264.622 127.276 264.712 127.792 264.892 128.164C265.072 128.536 265.426 128.722 265.954 128.722C266.446 128.722 266.89 128.596 267.286 128.344V129.874C266.854 130.09 266.32 130.198 265.684 130.198C264.82 130.198 264.148 129.922 263.668 129.37ZM269.315 118.912C269.099 118.684 268.991 118.414 268.991 118.102C268.991 117.79 269.099 117.526 269.315 117.31C269.543 117.082 269.813 116.968 270.125 116.968C270.437 116.968 270.701 117.082 270.917 117.31C271.145 117.526 271.259 117.79 271.259 118.102C271.259 118.414 271.145 118.684 270.917 118.912C270.701 119.128 270.437 119.236 270.125 119.236C269.813 119.236 269.543 119.128 269.315 118.912ZM269.315 130V121.144H270.935V130H269.315ZM274.499 128.866C273.611 127.978 273.167 126.88 273.167 125.572C273.167 124.264 273.611 123.166 274.499 122.278C275.399 121.39 276.515 120.946 277.847 120.946C279.179 120.946 280.289 121.39 281.177 122.278C282.077 123.166 282.527 124.264 282.527 125.572C282.527 126.88 282.077 127.978 281.177 128.866C280.289 129.754 279.179 130.198 277.847 130.198C276.515 130.198 275.399 129.754 274.499 128.866ZM275.651 123.322C275.075 123.922 274.787 124.672 274.787 125.572C274.787 126.472 275.075 127.222 275.651 127.822C276.239 128.422 276.971 128.722 277.847 128.722C278.723 128.722 279.449 128.422 280.025 127.822C280.613 127.222 280.907 126.472 280.907 125.572C280.907 124.672 280.613 123.922 280.025 123.322C279.449 122.722 278.723 122.422 277.847 122.422C276.971 122.422 276.239 122.722 275.651 123.322ZM284.766 130V121.144H286.386V122.26L286.422 122.278C287.31 121.39 288.342 120.946 289.518 120.946C290.514 120.946 291.3 121.27 291.876 121.918C292.368 122.482 292.614 123.352 292.614 124.528V130H290.994V124.834C290.994 123.958 290.856 123.358 290.58 123.034C290.256 122.65 289.782 122.458 289.158 122.458C288.654 122.458 288.144 122.596 287.628 122.872C287.124 123.148 286.71 123.502 286.386 123.934V130H284.766Z" fill="#191B21"/>
<path d="M6.168 128.956C5.592 129.74 4.792 130.132 3.768 130.132C2.744 130.132 1.944 129.74 1.368 128.956C0.84 128.228 0.576 127.128 0.576 125.656C0.576 124.184 0.84 123.084 1.368 122.356C1.944 121.572 2.744 121.18 3.768 121.18C4.792 121.18 5.592 121.572 6.168 122.356C6.696 123.084 6.96 124.184 6.96 125.656C6.96 127.128 6.696 128.228 6.168 128.956ZM2.892 127.96C3.116 128.272 3.408 128.428 3.768 128.428C4.128 128.428 4.42 128.272 4.644 127.96C4.916 127.576 5.052 126.804 5.052 125.644C5.052 124.5 4.916 123.736 4.644 123.352C4.428 123.04 4.136 122.884 3.768 122.884C3.4 122.884 3.108 123.04 2.892 123.352C2.62 123.744 2.484 124.516 2.484 125.668C2.484 126.812 2.62 127.576 2.892 127.96ZM8.11116 129.46V127.624C9.01516 128.176 9.81916 128.452 10.5232 128.452C10.9392 128.452 11.2672 128.36 11.5072 128.176C11.7552 127.992 11.8792 127.736 11.8792 127.408C11.8792 126.728 11.3792 126.388 10.3792 126.388H9.51516V124.948H10.3312C10.7872 124.948 11.1312 124.856 11.3632 124.672C11.5952 124.48 11.7112 124.224 11.7112 123.904C11.7112 123.576 11.5912 123.32 11.3512 123.136C11.1192 122.952 10.8072 122.86 10.4152 122.86C9.83916 122.86 9.24316 123.028 8.62716 123.364V121.66C9.15516 121.34 9.79916 121.18 10.5592 121.18C11.4392 121.18 12.1672 121.412 12.7432 121.876C13.3272 122.332 13.6192 122.904 13.6192 123.592C13.6192 124.016 13.5032 124.4 13.2712 124.744C13.0392 125.08 12.7272 125.324 12.3352 125.476V125.5C12.8072 125.66 13.1672 125.928 13.4152 126.304C13.6632 126.672 13.7872 127.088 13.7872 127.552C13.7872 128.312 13.4832 128.932 12.8752 129.412C12.2672 129.892 11.5152 130.132 10.6192 130.132C9.60316 130.132 8.76716 129.908 8.11116 129.46Z" fill="#2278D4"/>
<path d="M6.168 74.956C5.592 75.74 4.792 76.132 3.768 76.132C2.744 76.132 1.944 75.74 1.368 74.956C0.84 74.228 0.576 73.128 0.576 71.656C0.576 70.184 0.84 69.084 1.368 68.356C1.944 67.572 2.744 67.18 3.768 67.18C4.792 67.18 5.592 67.572 6.168 68.356C6.696 69.084 6.96 70.184 6.96 71.656C6.96 73.128 6.696 74.228 6.168 74.956ZM2.892 73.96C3.116 74.272 3.408 74.428 3.768 74.428C4.128 74.428 4.42 74.272 4.644 73.96C4.916 73.576 5.052 72.804 5.052 71.644C5.052 70.5 4.916 69.736 4.644 69.352C4.428 69.04 4.136 68.884 3.768 68.884C3.4 68.884 3.108 69.04 2.892 69.352C2.62 69.744 2.484 70.516 2.484 71.668C2.484 72.812 2.62 73.576 2.892 73.96ZM7.73916 75.976L10.3912 72.472C10.8712 71.832 11.2072 71.34 11.3992 70.996C11.5912 70.652 11.6872 70.328 11.6872 70.024C11.6872 69.664 11.5672 69.384 11.3272 69.184C11.0952 68.984 10.7832 68.884 10.3912 68.884C9.71116 68.884 9.03516 69.144 8.36316 69.664V67.876C9.01116 67.412 9.74716 67.18 10.5712 67.18C11.4432 67.18 12.1672 67.428 12.7432 67.924C13.3272 68.412 13.6192 69.056 13.6192 69.856C13.6192 70.32 13.5072 70.792 13.2832 71.272C13.0672 71.744 12.7232 72.296 12.2512 72.928L11.2072 74.308L11.2192 74.332H13.9312V76H7.75116L7.73916 75.976Z" fill="#2278D4"/>
<path d="M6.168 21.956C5.592 22.74 4.792 23.132 3.768 23.132C2.744 23.132 1.944 22.74 1.368 21.956C0.84 21.228 0.576 20.128 0.576 18.656C0.576 17.184 0.84 16.084 1.368 15.356C1.944 14.572 2.744 14.18 3.768 14.18C4.792 14.18 5.592 14.572 6.168 15.356C6.696 16.084 6.96 17.184 6.96 18.656C6.96 20.128 6.696 21.228 6.168 21.956ZM2.892 20.96C3.116 21.272 3.408 21.428 3.768 21.428C4.128 21.428 4.42 21.272 4.644 20.96C4.916 20.576 5.052 19.804 5.052 18.644C5.052 17.5 4.916 16.736 4.644 16.352C4.428 16.04 4.136 15.884 3.768 15.884C3.4 15.884 3.108 16.04 2.892 16.352C2.62 16.744 2.484 17.516 2.484 18.668C2.484 19.812 2.62 20.576 2.892 20.96ZM10.0792 23V16.604L8.31516 17.24V15.512L11.9872 14.18V23H10.0792Z" fill="#2278D4"/>
</svg>
