<svg width="341" height="172" viewBox="0 0 341 172" fill="none" xmlns="http://www.w3.org/2000/svg">
<path opacity="0.7" d="M36.458 22V8.968H39.86C41.612 8.968 42.896 9.196 43.712 9.652C44.972 10.348 45.602 11.422 45.602 12.874C45.602 13.594 45.44 14.236 45.116 14.8C44.804 15.352 44.378 15.79 43.838 16.114C43.322 16.426 42.728 16.63 42.056 16.726C41.384 16.81 40.538 16.852 39.518 16.852H38.168V22H36.458ZM38.168 15.358H39.734C40.574 15.358 41.216 15.328 41.66 15.268C42.116 15.208 42.512 15.076 42.848 14.872C43.544 14.452 43.892 13.81 43.892 12.946C43.892 12.01 43.49 11.338 42.686 10.93C42.134 10.654 41.144 10.516 39.716 10.516H38.168V15.358ZM47.4611 22V13.144H49.0811V14.44L49.1171 14.458C49.7771 13.534 50.6531 13.072 51.7451 13.072C51.9491 13.072 52.1411 13.096 52.3211 13.144V14.746C52.1291 14.698 51.9191 14.674 51.6911 14.674C50.5631 14.674 49.6931 15.196 49.0811 16.24V22H47.4611ZM61.6355 18.04H54.8675C54.9875 18.892 55.3415 19.558 55.9295 20.038C56.5175 20.506 57.2555 20.74 58.1435 20.74C59.2115 20.74 60.2315 20.374 61.2035 19.642V21.37C60.3395 21.922 59.2835 22.198 58.0355 22.198C56.6435 22.198 55.4975 21.772 54.5975 20.92C53.6975 20.068 53.2475 18.952 53.2475 17.572C53.2475 16.216 53.6735 15.106 54.5255 14.242C55.3895 13.378 56.4335 12.946 57.6575 12.946C58.7975 12.946 59.7515 13.33 60.5195 14.098C61.2995 14.854 61.6895 15.898 61.6895 17.23C61.6895 17.554 61.6715 17.824 61.6355 18.04ZM57.6215 14.404C56.9855 14.404 56.4035 14.608 55.8755 15.016C55.3595 15.412 55.0355 15.994 54.9035 16.762H60.1235C60.0635 15.958 59.7875 15.364 59.2955 14.98C58.8035 14.596 58.2455 14.404 57.6215 14.404ZM63.7681 21.496V19.804C64.7641 20.428 65.8861 20.74 67.1341 20.74C68.4781 20.74 69.1501 20.332 69.1501 19.516C69.1501 19.372 69.1261 19.246 69.0781 19.138C69.0421 19.018 68.9701 18.916 68.8621 18.832C68.7541 18.748 68.6461 18.682 68.5381 18.634C68.4421 18.574 68.2981 18.526 68.1061 18.49C67.9141 18.442 67.7581 18.406 67.6381 18.382C67.5181 18.358 67.3321 18.328 67.0801 18.292C66.8281 18.256 66.6361 18.226 66.5041 18.202C65.5201 18.034 64.7701 17.77 64.2541 17.41C63.7381 17.05 63.4801 16.468 63.4801 15.664C63.4921 14.776 63.8281 14.104 64.4881 13.648C65.1601 13.18 66.0361 12.946 67.1161 12.946C68.3401 12.946 69.3961 13.18 70.2841 13.648V15.268C69.3001 14.692 68.2201 14.404 67.0441 14.404C65.7601 14.404 65.1181 14.782 65.1181 15.538C65.1181 15.682 65.1361 15.808 65.1721 15.916C65.2201 16.024 65.2921 16.114 65.3881 16.186C65.4961 16.258 65.5981 16.324 65.6941 16.384C65.8021 16.432 65.9461 16.474 66.1261 16.51C66.3061 16.546 66.4621 16.576 66.5941 16.6C66.7261 16.624 66.9061 16.654 67.1341 16.69C67.3741 16.726 67.5601 16.756 67.6921 16.78C68.1721 16.864 68.5741 16.96 68.8981 17.068C69.2341 17.164 69.5521 17.308 69.8521 17.5C70.1641 17.68 70.3981 17.926 70.5541 18.238C70.7101 18.55 70.7881 18.928 70.7881 19.372C70.7881 20.332 70.4281 21.046 69.7081 21.514C69.0001 21.97 68.1181 22.198 67.0621 22.198C65.7781 22.198 64.6801 21.964 63.7681 21.496ZM75.4325 22.198C74.5805 22.198 73.8785 21.988 73.3265 21.568C72.7025 21.1 72.3905 20.446 72.3905 19.606C72.3905 18.67 72.7805 17.95 73.5605 17.446C74.1725 17.05 75.0005 16.852 76.0445 16.852C76.6805 16.852 77.3105 16.93 77.9345 17.086V16.348C77.9345 15.7 77.7665 15.214 77.4305 14.89C77.0705 14.566 76.5245 14.404 75.7925 14.404C74.7845 14.404 73.8785 14.698 73.0745 15.286V13.702C73.9025 13.198 74.8865 12.946 76.0265 12.946C77.2025 12.946 78.0845 13.216 78.6725 13.756C79.2605 14.284 79.5545 15.058 79.5545 16.078V19.84C79.5545 20.464 79.7825 20.776 80.2385 20.776C80.4185 20.776 80.5925 20.734 80.7605 20.65V22C80.4965 22.108 80.2085 22.162 79.8965 22.162C79.0925 22.162 78.5225 21.85 78.1865 21.226H78.1505C77.8625 21.49 77.4725 21.718 76.9805 21.91C76.5005 22.102 75.9845 22.198 75.4325 22.198ZM75.7205 20.758C76.5485 20.758 77.2865 20.5 77.9345 19.984V18.328C77.4065 18.172 76.8305 18.094 76.2065 18.094C75.5825 18.094 75.0605 18.202 74.6405 18.418C74.2325 18.634 74.0285 18.982 74.0285 19.462C74.0285 19.882 74.1845 20.206 74.4965 20.434C74.8085 20.65 75.2165 20.758 75.7205 20.758ZM82.5646 22V8.248H84.1846V22H82.5646ZM94.8054 18.04H88.0374C88.1574 18.892 88.5114 19.558 89.0994 20.038C89.6874 20.506 90.4254 20.74 91.3134 20.74C92.3814 20.74 93.4014 20.374 94.3734 19.642V21.37C93.5094 21.922 92.4534 22.198 91.2054 22.198C89.8134 22.198 88.6674 21.772 87.7674 20.92C86.8674 20.068 86.4174 18.952 86.4174 17.572C86.4174 16.216 86.8434 15.106 87.6954 14.242C88.5594 13.378 89.6034 12.946 90.8274 12.946C91.9674 12.946 92.9214 13.33 93.6894 14.098C94.4694 14.854 94.8594 15.898 94.8594 17.23C94.8594 17.554 94.8414 17.824 94.8054 18.04ZM90.7914 14.404C90.1554 14.404 89.5734 14.608 89.0454 15.016C88.5294 15.412 88.2054 15.994 88.0734 16.762H93.2934C93.2334 15.958 92.9574 15.364 92.4654 14.98C91.9734 14.596 91.4154 14.404 90.7914 14.404ZM103.979 22.198C103.127 22.198 102.425 21.988 101.873 21.568C101.249 21.1 100.937 20.446 100.937 19.606C100.937 18.67 101.327 17.95 102.107 17.446C102.719 17.05 103.547 16.852 104.591 16.852C105.227 16.852 105.857 16.93 106.481 17.086V16.348C106.481 15.7 106.313 15.214 105.977 14.89C105.617 14.566 105.071 14.404 104.339 14.404C103.331 14.404 102.425 14.698 101.621 15.286V13.702C102.449 13.198 103.433 12.946 104.573 12.946C105.749 12.946 106.631 13.216 107.219 13.756C107.807 14.284 108.101 15.058 108.101 16.078V19.84C108.101 20.464 108.329 20.776 108.785 20.776C108.965 20.776 109.139 20.734 109.307 20.65V22C109.043 22.108 108.755 22.162 108.443 22.162C107.639 22.162 107.069 21.85 106.733 21.226H106.697C106.409 21.49 106.019 21.718 105.527 21.91C105.047 22.102 104.531 22.198 103.979 22.198ZM104.267 20.758C105.095 20.758 105.833 20.5 106.481 19.984V18.328C105.953 18.172 105.377 18.094 104.753 18.094C104.129 18.094 103.607 18.202 103.187 18.418C102.779 18.634 102.575 18.982 102.575 19.462C102.575 19.882 102.731 20.206 103.043 20.434C103.355 20.65 103.763 20.758 104.267 20.758ZM111.111 22V13.144H112.731V14.26L112.767 14.278C113.655 13.39 114.687 12.946 115.863 12.946C116.859 12.946 117.645 13.27 118.221 13.918C118.713 14.482 118.959 15.352 118.959 16.528V22H117.339V16.834C117.339 15.958 117.201 15.358 116.925 15.034C116.601 14.65 116.127 14.458 115.503 14.458C114.999 14.458 114.489 14.596 113.973 14.872C113.469 15.148 113.055 15.502 112.731 15.934V22H111.111ZM121.188 17.716C121.188 16.348 121.626 15.214 122.502 14.314C123.378 13.402 124.506 12.946 125.886 12.946C126.594 12.946 127.302 13.102 128.01 13.414L128.046 13.396V8.248H129.666V22H128.046V21.46L128.01 21.442C127.29 21.946 126.462 22.198 125.526 22.198C124.302 22.198 123.27 21.784 122.43 20.956C121.602 20.128 121.188 19.048 121.188 17.716ZM122.826 17.626C122.826 18.526 123.09 19.276 123.618 19.876C124.146 20.464 124.854 20.758 125.742 20.758C126.546 20.758 127.314 20.506 128.046 20.002V14.944C127.326 14.572 126.6 14.386 125.868 14.386C124.956 14.386 124.218 14.692 123.654 15.304C123.102 15.916 122.826 16.69 122.826 17.626ZM144.639 18.04H137.871C137.991 18.892 138.345 19.558 138.933 20.038C139.521 20.506 140.259 20.74 141.147 20.74C142.215 20.74 143.235 20.374 144.207 19.642V21.37C143.343 21.922 142.287 22.198 141.039 22.198C139.647 22.198 138.501 21.772 137.601 20.92C136.701 20.068 136.251 18.952 136.251 17.572C136.251 16.216 136.677 15.106 137.529 14.242C138.393 13.378 139.437 12.946 140.661 12.946C141.801 12.946 142.755 13.33 143.523 14.098C144.303 14.854 144.693 15.898 144.693 17.23C144.693 17.554 144.675 17.824 144.639 18.04ZM140.625 14.404C139.989 14.404 139.407 14.608 138.879 15.016C138.363 15.412 138.039 15.994 137.907 16.762H143.127C143.067 15.958 142.791 15.364 142.299 14.98C141.807 14.596 141.249 14.404 140.625 14.404ZM152.52 22L151.206 20.218C150.69 19.522 150.234 18.892 149.838 18.328H149.802C149.574 18.64 149.106 19.282 148.398 20.254L147.102 22H145.266L148.812 17.302L145.68 13.144H147.588L148.542 14.44C149.118 15.22 149.556 15.826 149.856 16.258H149.892C150.252 15.742 150.69 15.13 151.206 14.422L152.142 13.144H153.978L150.882 17.266L154.428 22H152.52ZM162.301 19.858V21.586C161.557 21.994 160.675 22.198 159.655 22.198C158.251 22.198 157.099 21.766 156.199 20.902C155.299 20.038 154.849 18.946 154.849 17.626C154.849 16.27 155.317 15.154 156.253 14.278C157.201 13.39 158.371 12.946 159.763 12.946C160.639 12.946 161.437 13.132 162.157 13.504V15.178C161.365 14.674 160.543 14.422 159.691 14.422C158.743 14.422 157.969 14.728 157.369 15.34C156.781 15.952 156.487 16.714 156.487 17.626C156.487 18.538 156.787 19.282 157.387 19.858C157.999 20.434 158.785 20.722 159.745 20.722C160.717 20.722 161.569 20.434 162.301 19.858ZM164.637 22V8.248H166.257V14.26L166.293 14.278C167.181 13.39 168.213 12.946 169.389 12.946C170.385 12.946 171.171 13.27 171.747 13.918C172.239 14.482 172.485 15.352 172.485 16.528V22H170.865V16.834C170.865 15.958 170.721 15.358 170.433 15.034C170.097 14.65 169.647 14.458 169.083 14.458C168.567 14.458 168.051 14.596 167.535 14.872C167.031 15.148 166.605 15.502 166.257 15.934V22H164.637ZM177.737 22.198C176.885 22.198 176.183 21.988 175.631 21.568C175.007 21.1 174.695 20.446 174.695 19.606C174.695 18.67 175.085 17.95 175.865 17.446C176.477 17.05 177.305 16.852 178.349 16.852C178.985 16.852 179.615 16.93 180.239 17.086V16.348C180.239 15.7 180.071 15.214 179.735 14.89C179.375 14.566 178.829 14.404 178.097 14.404C177.089 14.404 176.183 14.698 175.379 15.286V13.702C176.207 13.198 177.191 12.946 178.331 12.946C179.507 12.946 180.389 13.216 180.977 13.756C181.565 14.284 181.859 15.058 181.859 16.078V19.84C181.859 20.464 182.087 20.776 182.543 20.776C182.723 20.776 182.897 20.734 183.065 20.65V22C182.801 22.108 182.513 22.162 182.201 22.162C181.397 22.162 180.827 21.85 180.491 21.226H180.455C180.167 21.49 179.777 21.718 179.285 21.91C178.805 22.102 178.289 22.198 177.737 22.198ZM178.025 20.758C178.853 20.758 179.591 20.5 180.239 19.984V18.328C179.711 18.172 179.135 18.094 178.511 18.094C177.887 18.094 177.365 18.202 176.945 18.418C176.537 18.634 176.333 18.982 176.333 19.462C176.333 19.882 176.489 20.206 176.801 20.434C177.113 20.65 177.521 20.758 178.025 20.758ZM184.869 22V13.144H186.489V14.26L186.525 14.278C187.413 13.39 188.445 12.946 189.621 12.946C190.617 12.946 191.403 13.27 191.979 13.918C192.471 14.482 192.717 15.352 192.717 16.528V22H191.097V16.834C191.097 15.958 190.959 15.358 190.683 15.034C190.359 14.65 189.885 14.458 189.261 14.458C188.757 14.458 188.247 14.596 187.731 14.872C187.227 15.148 186.813 15.502 186.489 15.934V22H184.869ZM196.116 25.492V23.764C197.04 24.376 197.976 24.682 198.924 24.682C199.776 24.682 200.46 24.442 200.976 23.962C201.492 23.482 201.75 22.828 201.75 22V21.352L201.714 21.334C201.042 21.79 200.238 22.018 199.302 22.018C198.078 22.018 197.046 21.604 196.206 20.776C195.378 19.936 194.964 18.874 194.964 17.59C194.964 16.294 195.378 15.196 196.206 14.296C197.046 13.396 198.162 12.946 199.554 12.946C200.358 12.946 201.108 13.114 201.804 13.45L203.37 13.18V21.964C203.37 23.26 202.968 24.28 202.164 25.024C201.372 25.78 200.292 26.158 198.924 26.158C197.916 26.158 196.98 25.936 196.116 25.492ZM196.602 17.482C196.602 18.382 196.872 19.126 197.412 19.714C197.964 20.302 198.672 20.596 199.536 20.596C200.412 20.596 201.15 20.356 201.75 19.876V14.998C201.09 14.59 200.346 14.386 199.518 14.386C198.642 14.386 197.934 14.68 197.394 15.268C196.866 15.856 196.602 16.594 196.602 17.482ZM214.003 18.04H207.235C207.355 18.892 207.709 19.558 208.297 20.038C208.885 20.506 209.623 20.74 210.511 20.74C211.579 20.74 212.599 20.374 213.571 19.642V21.37C212.707 21.922 211.651 22.198 210.403 22.198C209.011 22.198 207.865 21.772 206.965 20.92C206.065 20.068 205.615 18.952 205.615 17.572C205.615 16.216 206.041 15.106 206.893 14.242C207.757 13.378 208.801 12.946 210.025 12.946C211.165 12.946 212.119 13.33 212.887 14.098C213.667 14.854 214.057 15.898 214.057 17.23C214.057 17.554 214.039 17.824 214.003 18.04ZM209.989 14.404C209.353 14.404 208.771 14.608 208.243 15.016C207.727 15.412 207.403 15.994 207.271 16.762H212.491C212.431 15.958 212.155 15.364 211.663 14.98C211.171 14.596 210.613 14.404 209.989 14.404ZM220.729 22V8.248H222.349V22H220.729ZM225.193 10.912C224.977 10.684 224.869 10.414 224.869 10.102C224.869 9.79 224.977 9.526 225.193 9.31C225.421 9.082 225.691 8.968 226.003 8.968C226.315 8.968 226.579 9.082 226.795 9.31C227.023 9.526 227.137 9.79 227.137 10.102C227.137 10.414 227.023 10.684 226.795 10.912C226.579 11.128 226.315 11.236 226.003 11.236C225.691 11.236 225.421 11.128 225.193 10.912ZM225.193 22V13.144H226.813V22H225.193ZM229.424 21.496V19.804C230.42 20.428 231.542 20.74 232.79 20.74C234.134 20.74 234.806 20.332 234.806 19.516C234.806 19.372 234.782 19.246 234.734 19.138C234.698 19.018 234.626 18.916 234.518 18.832C234.41 18.748 234.302 18.682 234.194 18.634C234.098 18.574 233.954 18.526 233.762 18.49C233.57 18.442 233.414 18.406 233.294 18.382C233.174 18.358 232.988 18.328 232.736 18.292C232.484 18.256 232.292 18.226 232.16 18.202C231.176 18.034 230.426 17.77 229.91 17.41C229.394 17.05 229.136 16.468 229.136 15.664C229.148 14.776 229.484 14.104 230.144 13.648C230.816 13.18 231.692 12.946 232.772 12.946C233.996 12.946 235.052 13.18 235.94 13.648V15.268C234.956 14.692 233.876 14.404 232.7 14.404C231.416 14.404 230.774 14.782 230.774 15.538C230.774 15.682 230.792 15.808 230.828 15.916C230.876 16.024 230.948 16.114 231.044 16.186C231.152 16.258 231.254 16.324 231.35 16.384C231.458 16.432 231.602 16.474 231.782 16.51C231.962 16.546 232.118 16.576 232.25 16.6C232.382 16.624 232.562 16.654 232.79 16.69C233.03 16.726 233.216 16.756 233.348 16.78C233.828 16.864 234.23 16.96 234.554 17.068C234.89 17.164 235.208 17.308 235.508 17.5C235.82 17.68 236.054 17.926 236.21 18.238C236.366 18.55 236.444 18.928 236.444 19.372C236.444 20.332 236.084 21.046 235.364 21.514C234.656 21.97 233.774 22.198 232.718 22.198C231.434 22.198 230.336 21.964 229.424 21.496ZM239.991 21.37C239.547 20.866 239.325 20.05 239.325 18.922V14.602H237.687V13.144H239.325V10.732L240.945 10.462V13.144H243.609V14.602H240.945V18.616C240.945 19.276 241.035 19.792 241.215 20.164C241.395 20.536 241.749 20.722 242.277 20.722C242.769 20.722 243.213 20.596 243.609 20.344V21.874C243.177 22.09 242.643 22.198 242.007 22.198C241.143 22.198 240.471 21.922 239.991 21.37ZM245.637 10.912C245.421 10.684 245.313 10.414 245.313 10.102C245.313 9.79 245.421 9.526 245.637 9.31C245.865 9.082 246.135 8.968 246.447 8.968C246.759 8.968 247.023 9.082 247.239 9.31C247.467 9.526 247.581 9.79 247.581 10.102C247.581 10.414 247.467 10.684 247.239 10.912C247.023 11.128 246.759 11.236 246.447 11.236C246.135 11.236 245.865 11.128 245.637 10.912ZM245.637 22V13.144H247.257V22H245.637ZM250.102 22V13.144H251.722V14.26L251.758 14.278C252.646 13.39 253.678 12.946 254.854 12.946C255.85 12.946 256.636 13.27 257.212 13.918C257.704 14.482 257.95 15.352 257.95 16.528V22H256.33V16.834C256.33 15.958 256.192 15.358 255.916 15.034C255.592 14.65 255.118 14.458 254.494 14.458C253.99 14.458 253.48 14.596 252.964 14.872C252.46 15.148 252.046 15.502 251.722 15.934V22H250.102ZM261.348 25.492V23.764C262.272 24.376 263.208 24.682 264.156 24.682C265.008 24.682 265.692 24.442 266.208 23.962C266.724 23.482 266.982 22.828 266.982 22V21.352L266.946 21.334C266.274 21.79 265.47 22.018 264.534 22.018C263.31 22.018 262.278 21.604 261.438 20.776C260.61 19.936 260.196 18.874 260.196 17.59C260.196 16.294 260.61 15.196 261.438 14.296C262.278 13.396 263.394 12.946 264.786 12.946C265.59 12.946 266.34 13.114 267.036 13.45L268.602 13.18V21.964C268.602 23.26 268.2 24.28 267.396 25.024C266.604 25.78 265.524 26.158 264.156 26.158C263.148 26.158 262.212 25.936 261.348 25.492ZM261.834 17.482C261.834 18.382 262.104 19.126 262.644 19.714C263.196 20.302 263.904 20.596 264.768 20.596C265.644 20.596 266.382 20.356 266.982 19.876V14.998C266.322 14.59 265.578 14.386 264.75 14.386C263.874 14.386 263.166 14.68 262.626 15.268C262.098 15.856 261.834 16.594 261.834 17.482ZM271.225 21.496V19.804C272.221 20.428 273.343 20.74 274.591 20.74C275.935 20.74 276.607 20.332 276.607 19.516C276.607 19.372 276.583 19.246 276.535 19.138C276.499 19.018 276.427 18.916 276.319 18.832C276.211 18.748 276.103 18.682 275.995 18.634C275.899 18.574 275.755 18.526 275.563 18.49C275.371 18.442 275.215 18.406 275.095 18.382C274.975 18.358 274.789 18.328 274.537 18.292C274.285 18.256 274.093 18.226 273.961 18.202C272.977 18.034 272.227 17.77 271.711 17.41C271.195 17.05 270.937 16.468 270.937 15.664C270.949 14.776 271.285 14.104 271.945 13.648C272.617 13.18 273.493 12.946 274.573 12.946C275.797 12.946 276.853 13.18 277.741 13.648V15.268C276.757 14.692 275.677 14.404 274.501 14.404C273.217 14.404 272.575 14.782 272.575 15.538C272.575 15.682 272.593 15.808 272.629 15.916C272.677 16.024 272.749 16.114 272.845 16.186C272.953 16.258 273.055 16.324 273.151 16.384C273.259 16.432 273.403 16.474 273.583 16.51C273.763 16.546 273.919 16.576 274.051 16.6C274.183 16.624 274.363 16.654 274.591 16.69C274.831 16.726 275.017 16.756 275.149 16.78C275.629 16.864 276.031 16.96 276.355 17.068C276.691 17.164 277.009 17.308 277.309 17.5C277.621 17.68 277.855 17.926 278.011 18.238C278.167 18.55 278.245 18.928 278.245 19.372C278.245 20.332 277.885 21.046 277.165 21.514C276.457 21.97 275.575 22.198 274.519 22.198C273.235 22.198 272.137 21.964 271.225 21.496ZM36.458 56V42.968H39.95C41.522 42.968 42.68 43.196 43.424 43.652C44.444 44.264 44.954 45.152 44.954 46.316C44.954 47.024 44.768 47.612 44.396 48.08C44.036 48.536 43.562 48.866 42.974 49.07V49.106C43.766 49.286 44.378 49.634 44.81 50.15C45.254 50.666 45.476 51.332 45.476 52.148C45.476 53.444 44.978 54.44 43.982 55.136C43.166 55.712 41.81 56 39.914 56H36.458ZM38.168 48.656H40.742C41.45 48.656 42.044 48.488 42.524 48.152C43.004 47.804 43.244 47.294 43.244 46.622C43.244 45.89 42.938 45.338 42.326 44.966C41.81 44.666 40.94 44.516 39.716 44.516H38.168V48.656ZM38.168 54.452H40.022C41.426 54.452 42.392 54.266 42.92 53.894C43.484 53.498 43.766 52.928 43.766 52.184C43.766 51.464 43.496 50.918 42.956 50.546C42.428 50.162 41.672 49.97 40.688 49.97H38.168V54.452ZM47.8302 56V42.248H49.4502V56H47.8302ZM53.015 54.866C52.127 53.978 51.683 52.88 51.683 51.572C51.683 50.264 52.127 49.166 53.015 48.278C53.915 47.39 55.031 46.946 56.363 46.946C57.695 46.946 58.805 47.39 59.693 48.278C60.593 49.166 61.043 50.264 61.043 51.572C61.043 52.88 60.593 53.978 59.693 54.866C58.805 55.754 57.695 56.198 56.363 56.198C55.031 56.198 53.915 55.754 53.015 54.866ZM54.167 49.322C53.591 49.922 53.303 50.672 53.303 51.572C53.303 52.472 53.591 53.222 54.167 53.822C54.755 54.422 55.487 54.722 56.363 54.722C57.239 54.722 57.965 54.422 58.541 53.822C59.129 53.222 59.423 52.472 59.423 51.572C59.423 50.672 59.129 49.922 58.541 49.322C57.965 48.722 57.239 48.422 56.363 48.422C55.487 48.422 54.755 48.722 54.167 49.322ZM70.1214 53.858V55.586C69.3774 55.994 68.4954 56.198 67.4754 56.198C66.0714 56.198 64.9194 55.766 64.0194 54.902C63.1194 54.038 62.6694 52.946 62.6694 51.626C62.6694 50.27 63.1374 49.154 64.0734 48.278C65.0214 47.39 66.1914 46.946 67.5834 46.946C68.4594 46.946 69.2574 47.132 69.9774 47.504V49.178C69.1854 48.674 68.3634 48.422 67.5114 48.422C66.5634 48.422 65.7894 48.728 65.1894 49.34C64.6014 49.952 64.3074 50.714 64.3074 51.626C64.3074 52.538 64.6074 53.282 65.2074 53.858C65.8194 54.434 66.6054 54.722 67.5654 54.722C68.5374 54.722 69.3894 54.434 70.1214 53.858ZM72.4572 56V42.248H74.0772V51.032L74.1132 51.05L78.0732 47.144H80.1432L76.0932 51.104L80.5752 56H78.4512L74.1132 51.194L74.0772 51.212V56H72.4572ZM88.0159 53.858V55.586C87.2719 55.994 86.3899 56.198 85.3699 56.198C83.9659 56.198 82.8139 55.766 81.9139 54.902C81.0139 54.038 80.5639 52.946 80.5639 51.626C80.5639 50.27 81.0319 49.154 81.9679 48.278C82.9159 47.39 84.0859 46.946 85.4779 46.946C86.3539 46.946 87.1519 47.132 87.8719 47.504V49.178C87.0799 48.674 86.2579 48.422 85.4059 48.422C84.4579 48.422 83.6839 48.728 83.0839 49.34C82.4959 49.952 82.2019 50.714 82.2019 51.626C82.2019 52.538 82.5019 53.282 83.1019 53.858C83.7139 54.434 84.4999 54.722 85.4599 54.722C86.4319 54.722 87.2839 54.434 88.0159 53.858ZM90.3517 56V42.248H91.9717V48.26L92.0077 48.278C92.8957 47.39 93.9277 46.946 95.1037 46.946C96.0997 46.946 96.8857 47.27 97.4617 47.918C97.9537 48.482 98.1997 49.352 98.1997 50.528V56H96.5797V50.834C96.5797 49.958 96.4357 49.358 96.1477 49.034C95.8117 48.65 95.3617 48.458 94.7977 48.458C94.2817 48.458 93.7657 48.596 93.2497 48.872C92.7457 49.148 92.3197 49.502 91.9717 49.934V56H90.3517ZM103.452 56.198C102.6 56.198 101.898 55.988 101.346 55.568C100.722 55.1 100.41 54.446 100.41 53.606C100.41 52.67 100.8 51.95 101.58 51.446C102.192 51.05 103.02 50.852 104.064 50.852C104.7 50.852 105.33 50.93 105.954 51.086V50.348C105.954 49.7 105.786 49.214 105.45 48.89C105.09 48.566 104.544 48.404 103.812 48.404C102.804 48.404 101.898 48.698 101.094 49.286V47.702C101.922 47.198 102.906 46.946 104.046 46.946C105.222 46.946 106.104 47.216 106.692 47.756C107.28 48.284 107.574 49.058 107.574 50.078V53.84C107.574 54.464 107.802 54.776 108.258 54.776C108.438 54.776 108.612 54.734 108.78 54.65V56C108.516 56.108 108.228 56.162 107.916 56.162C107.112 56.162 106.542 55.85 106.206 55.226H106.17C105.882 55.49 105.492 55.718 105 55.91C104.52 56.102 104.004 56.198 103.452 56.198ZM103.74 54.758C104.568 54.758 105.306 54.5 105.954 53.984V52.328C105.426 52.172 104.85 52.094 104.226 52.094C103.602 52.094 103.08 52.202 102.66 52.418C102.252 52.634 102.048 52.982 102.048 53.462C102.048 53.882 102.204 54.206 102.516 54.434C102.828 54.65 103.236 54.758 103.74 54.758ZM110.584 44.912C110.368 44.684 110.26 44.414 110.26 44.102C110.26 43.79 110.368 43.526 110.584 43.31C110.812 43.082 111.082 42.968 111.394 42.968C111.706 42.968 111.97 43.082 112.186 43.31C112.414 43.526 112.528 43.79 112.528 44.102C112.528 44.414 112.414 44.684 112.186 44.912C111.97 45.128 111.706 45.236 111.394 45.236C111.082 45.236 110.812 45.128 110.584 44.912ZM110.584 56V47.144H112.204V56H110.584ZM115.049 56V47.144H116.669V48.26L116.705 48.278C117.593 47.39 118.625 46.946 119.801 46.946C120.797 46.946 121.583 47.27 122.159 47.918C122.651 48.482 122.897 49.352 122.897 50.528V56H121.277V50.834C121.277 49.958 121.139 49.358 120.863 49.034C120.539 48.65 120.065 48.458 119.441 48.458C118.937 48.458 118.427 48.596 117.911 48.872C117.407 49.148 116.993 49.502 116.669 49.934V56H115.049ZM129.485 51.716C129.485 50.348 129.923 49.214 130.799 48.314C131.675 47.402 132.803 46.946 134.183 46.946C134.891 46.946 135.599 47.102 136.307 47.414L136.343 47.396V42.248H137.963V56H136.343V55.46L136.307 55.442C135.587 55.946 134.759 56.198 133.823 56.198C132.599 56.198 131.567 55.784 130.727 54.956C129.899 54.128 129.485 53.048 129.485 51.716ZM131.123 51.626C131.123 52.526 131.387 53.276 131.915 53.876C132.443 54.464 133.151 54.758 134.039 54.758C134.843 54.758 135.611 54.506 136.343 54.002V48.944C135.623 48.572 134.897 48.386 134.165 48.386C133.253 48.386 132.515 48.692 131.951 49.304C131.399 49.916 131.123 50.69 131.123 51.626ZM148.577 52.04H141.809C141.929 52.892 142.283 53.558 142.871 54.038C143.459 54.506 144.197 54.74 145.085 54.74C146.153 54.74 147.173 54.374 148.145 53.642V55.37C147.281 55.922 146.225 56.198 144.977 56.198C143.585 56.198 142.439 55.772 141.539 54.92C140.639 54.068 140.189 52.952 140.189 51.572C140.189 50.216 140.615 49.106 141.467 48.242C142.331 47.378 143.375 46.946 144.599 46.946C145.739 46.946 146.693 47.33 147.461 48.098C148.241 48.854 148.631 49.898 148.631 51.23C148.631 51.554 148.613 51.824 148.577 52.04ZM144.563 48.404C143.927 48.404 143.345 48.608 142.817 49.016C142.301 49.412 141.977 49.994 141.845 50.762H147.065C147.005 49.958 146.729 49.364 146.237 48.98C145.745 48.596 145.187 48.404 144.563 48.404ZM153.239 56L149.513 47.144H151.277L152.915 51.14C153.323 52.148 153.701 53.096 154.049 53.984H154.085C154.445 53.072 154.841 52.088 155.273 51.032L156.875 47.144H158.567L154.859 56H153.239ZM167.684 52.04H160.916C161.036 52.892 161.39 53.558 161.978 54.038C162.566 54.506 163.304 54.74 164.192 54.74C165.26 54.74 166.28 54.374 167.252 53.642V55.37C166.388 55.922 165.332 56.198 164.084 56.198C162.692 56.198 161.546 55.772 160.646 54.92C159.746 54.068 159.296 52.952 159.296 51.572C159.296 50.216 159.722 49.106 160.574 48.242C161.438 47.378 162.482 46.946 163.706 46.946C164.846 46.946 165.8 47.33 166.568 48.098C167.348 48.854 167.738 49.898 167.738 51.23C167.738 51.554 167.72 51.824 167.684 52.04ZM163.67 48.404C163.034 48.404 162.452 48.608 161.924 49.016C161.408 49.412 161.084 49.994 160.952 50.762H166.172C166.112 49.958 165.836 49.364 165.344 48.98C164.852 48.596 164.294 48.404 163.67 48.404ZM170.051 56V42.248H171.671V56H170.051ZM175.236 54.866C174.348 53.978 173.904 52.88 173.904 51.572C173.904 50.264 174.348 49.166 175.236 48.278C176.136 47.39 177.252 46.946 178.584 46.946C179.916 46.946 181.026 47.39 181.914 48.278C182.814 49.166 183.264 50.264 183.264 51.572C183.264 52.88 182.814 53.978 181.914 54.866C181.026 55.754 179.916 56.198 178.584 56.198C177.252 56.198 176.136 55.754 175.236 54.866ZM176.388 49.322C175.812 49.922 175.524 50.672 175.524 51.572C175.524 52.472 175.812 53.222 176.388 53.822C176.976 54.422 177.708 54.722 178.584 54.722C179.46 54.722 180.186 54.422 180.762 53.822C181.35 53.222 181.644 52.472 181.644 51.572C181.644 50.672 181.35 49.922 180.762 49.322C180.186 48.722 179.46 48.422 178.584 48.422C177.708 48.422 176.976 48.722 176.388 49.322ZM187.122 55.73V59.96H185.502V47.144H187.122V47.72L187.158 47.738C187.902 47.21 188.742 46.946 189.678 46.946C190.89 46.946 191.904 47.378 192.72 48.242C193.548 49.094 193.962 50.192 193.962 51.536C193.962 52.928 193.518 54.056 192.63 54.92C191.742 55.772 190.644 56.198 189.336 56.198C188.556 56.198 187.83 56.036 187.158 55.712L187.122 55.73ZM187.122 54.164C187.866 54.572 188.616 54.776 189.372 54.776C190.248 54.776 190.956 54.488 191.496 53.912C192.048 53.324 192.324 52.574 192.324 51.662C192.324 50.738 192.054 49.964 191.514 49.34C190.974 48.716 190.272 48.404 189.408 48.404C188.532 48.404 187.77 48.674 187.122 49.214V54.164ZM208.393 56V50.762C208.393 49.934 208.243 49.346 207.943 48.998C207.631 48.638 207.181 48.458 206.593 48.458C206.101 48.458 205.609 48.596 205.117 48.872C204.625 49.136 204.217 49.46 203.893 49.844C203.905 49.976 203.911 50.186 203.911 50.474V56H202.291V50.762C202.291 49.922 202.153 49.34 201.877 49.016C201.553 48.644 201.103 48.458 200.527 48.458C200.035 48.458 199.543 48.59 199.051 48.854C198.559 49.118 198.151 49.448 197.827 49.844V56H196.207V47.144H197.827V48.224L197.863 48.242C198.727 47.378 199.729 46.946 200.869 46.946C201.445 46.946 201.973 47.078 202.453 47.342C202.945 47.594 203.323 47.972 203.587 48.476C204.667 47.456 205.789 46.946 206.953 46.946C207.949 46.946 208.723 47.258 209.275 47.882C209.767 48.422 210.013 49.286 210.013 50.474V56H208.393ZM220.594 52.04H213.826C213.946 52.892 214.3 53.558 214.888 54.038C215.476 54.506 216.214 54.74 217.102 54.74C218.17 54.74 219.19 54.374 220.162 53.642V55.37C219.298 55.922 218.242 56.198 216.994 56.198C215.602 56.198 214.456 55.772 213.556 54.92C212.656 54.068 212.206 52.952 212.206 51.572C212.206 50.216 212.632 49.106 213.484 48.242C214.348 47.378 215.392 46.946 216.616 46.946C217.756 46.946 218.71 47.33 219.478 48.098C220.258 48.854 220.648 49.898 220.648 51.23C220.648 51.554 220.63 51.824 220.594 52.04ZM216.58 48.404C215.944 48.404 215.362 48.608 214.834 49.016C214.318 49.412 213.994 49.994 213.862 50.762H219.082C219.022 49.958 218.746 49.364 218.254 48.98C217.762 48.596 217.204 48.404 216.58 48.404ZM222.961 56V47.144H224.581V48.26L224.617 48.278C225.505 47.39 226.537 46.946 227.713 46.946C228.709 46.946 229.495 47.27 230.071 47.918C230.563 48.482 230.809 49.352 230.809 50.528V56H229.189V50.834C229.189 49.958 229.051 49.358 228.775 49.034C228.451 48.65 227.977 48.458 227.353 48.458C226.849 48.458 226.339 48.596 225.823 48.872C225.319 49.148 224.905 49.502 224.581 49.934V56H222.961ZM234.963 55.37C234.519 54.866 234.297 54.05 234.297 52.922V48.602H232.659V47.144H234.297V44.732L235.917 44.462V47.144H238.581V48.602H235.917V52.616C235.917 53.276 236.007 53.792 236.187 54.164C236.367 54.536 236.721 54.722 237.249 54.722C237.741 54.722 238.185 54.596 238.581 54.344V55.874C238.149 56.09 237.615 56.198 236.979 56.198C236.115 56.198 235.443 55.922 234.963 55.37ZM247.417 56.198C246.565 56.198 245.863 55.988 245.311 55.568C244.687 55.1 244.375 54.446 244.375 53.606C244.375 52.67 244.765 51.95 245.545 51.446C246.157 51.05 246.985 50.852 248.029 50.852C248.665 50.852 249.295 50.93 249.919 51.086V50.348C249.919 49.7 249.751 49.214 249.415 48.89C249.055 48.566 248.509 48.404 247.777 48.404C246.769 48.404 245.863 48.698 245.059 49.286V47.702C245.887 47.198 246.871 46.946 248.011 46.946C249.187 46.946 250.069 47.216 250.657 47.756C251.245 48.284 251.539 49.058 251.539 50.078V53.84C251.539 54.464 251.767 54.776 252.223 54.776C252.403 54.776 252.577 54.734 252.745 54.65V56C252.481 56.108 252.193 56.162 251.881 56.162C251.077 56.162 250.507 55.85 250.171 55.226H250.135C249.847 55.49 249.457 55.718 248.965 55.91C248.485 56.102 247.969 56.198 247.417 56.198ZM247.705 54.758C248.533 54.758 249.271 54.5 249.919 53.984V52.328C249.391 52.172 248.815 52.094 248.191 52.094C247.567 52.094 247.045 52.202 246.625 52.418C246.217 52.634 246.013 52.982 246.013 53.462C246.013 53.882 246.169 54.206 246.481 54.434C246.793 54.65 247.201 54.758 247.705 54.758ZM254.549 56V47.144H256.169V48.26L256.205 48.278C257.093 47.39 258.125 46.946 259.301 46.946C260.297 46.946 261.083 47.27 261.659 47.918C262.151 48.482 262.397 49.352 262.397 50.528V56H260.777V50.834C260.777 49.958 260.639 49.358 260.363 49.034C260.039 48.65 259.565 48.458 258.941 48.458C258.437 48.458 257.927 48.596 257.411 48.872C256.907 49.148 256.493 49.502 256.169 49.934V56H254.549ZM264.625 51.716C264.625 50.348 265.063 49.214 265.939 48.314C266.815 47.402 267.943 46.946 269.323 46.946C270.031 46.946 270.739 47.102 271.447 47.414L271.483 47.396V42.248H273.103V56H271.483V55.46L271.447 55.442C270.727 55.946 269.899 56.198 268.963 56.198C267.739 56.198 266.707 55.784 265.867 54.956C265.039 54.128 264.625 53.048 264.625 51.716ZM266.263 51.626C266.263 52.526 266.527 53.276 267.055 53.876C267.583 54.464 268.291 54.758 269.179 54.758C269.983 54.758 270.751 54.506 271.483 54.002V48.944C270.763 48.572 270.037 48.386 269.305 48.386C268.393 48.386 267.655 48.692 267.091 49.304C266.539 49.916 266.263 50.69 266.263 51.626ZM280.301 56V42.248H281.921V56H280.301ZM287.214 56.198C286.362 56.198 285.66 55.988 285.108 55.568C284.484 55.1 284.172 54.446 284.172 53.606C284.172 52.67 284.562 51.95 285.342 51.446C285.954 51.05 286.782 50.852 287.826 50.852C288.462 50.852 289.092 50.93 289.716 51.086V50.348C289.716 49.7 289.548 49.214 289.212 48.89C288.852 48.566 288.306 48.404 287.574 48.404C286.566 48.404 285.66 48.698 284.856 49.286V47.702C285.684 47.198 286.668 46.946 287.808 46.946C288.984 46.946 289.866 47.216 290.454 47.756C291.042 48.284 291.336 49.058 291.336 50.078V53.84C291.336 54.464 291.564 54.776 292.02 54.776C292.2 54.776 292.374 54.734 292.542 54.65V56C292.278 56.108 291.99 56.162 291.678 56.162C290.874 56.162 290.304 55.85 289.968 55.226H289.932C289.644 55.49 289.254 55.718 288.762 55.91C288.282 56.102 287.766 56.198 287.214 56.198ZM287.502 54.758C288.33 54.758 289.068 54.5 289.716 53.984V52.328C289.188 52.172 288.612 52.094 287.988 52.094C287.364 52.094 286.842 52.202 286.422 52.418C286.014 52.634 285.81 52.982 285.81 53.462C285.81 53.882 285.966 54.206 286.278 54.434C286.59 54.65 286.998 54.758 287.502 54.758ZM295.03 55.208C294.55 54.644 294.31 53.762 294.31 52.562V47.144H295.93V52.256C295.93 53.144 296.074 53.756 296.362 54.092C296.686 54.5 297.154 54.704 297.766 54.704C298.282 54.704 298.786 54.56 299.278 54.272C299.77 53.984 300.19 53.624 300.538 53.192V47.144H302.158V56H300.538V54.884L300.502 54.866C299.614 55.754 298.594 56.198 297.442 56.198C296.41 56.198 295.606 55.868 295.03 55.208ZM304.998 56V47.144H306.618V48.26L306.654 48.278C307.542 47.39 308.574 46.946 309.75 46.946C310.746 46.946 311.532 47.27 312.108 47.918C312.6 48.482 312.846 49.352 312.846 50.528V56H311.226V50.834C311.226 49.958 311.088 49.358 310.812 49.034C310.488 48.65 310.014 48.458 309.39 48.458C308.886 48.458 308.376 48.596 307.86 48.872C307.356 49.148 306.942 49.502 306.618 49.934V56H304.998ZM322.491 53.858V55.586C321.747 55.994 320.865 56.198 319.845 56.198C318.441 56.198 317.289 55.766 316.389 54.902C315.489 54.038 315.039 52.946 315.039 51.626C315.039 50.27 315.507 49.154 316.443 48.278C317.391 47.39 318.561 46.946 319.953 46.946C320.829 46.946 321.627 47.132 322.347 47.504V49.178C321.555 48.674 320.733 48.422 319.881 48.422C318.933 48.422 318.159 48.728 317.559 49.34C316.971 49.952 316.677 50.714 316.677 51.626C316.677 52.538 316.977 53.282 317.577 53.858C318.189 54.434 318.975 54.722 319.935 54.722C320.907 54.722 321.759 54.434 322.491 53.858ZM324.826 56V42.248H326.446V48.26L326.482 48.278C327.37 47.39 328.402 46.946 329.578 46.946C330.574 46.946 331.36 47.27 331.936 47.918C332.428 48.482 332.674 49.352 332.674 50.528V56H331.054V50.834C331.054 49.958 330.91 49.358 330.622 49.034C330.286 48.65 329.836 48.458 329.272 48.458C328.756 48.458 328.24 48.596 327.724 48.872C327.22 49.148 326.794 49.502 326.446 49.934V56H324.826ZM36.458 90V76.968H38.168V88.452H44.324V90H36.458ZM48.5907 90.198C47.7387 90.198 47.0367 89.988 46.4847 89.568C45.8607 89.1 45.5487 88.446 45.5487 87.606C45.5487 86.67 45.9387 85.95 46.7187 85.446C47.3307 85.05 48.1587 84.852 49.2027 84.852C49.8387 84.852 50.4687 84.93 51.0927 85.086V84.348C51.0927 83.7 50.9247 83.214 50.5887 82.89C50.2287 82.566 49.6827 82.404 48.9507 82.404C47.9427 82.404 47.0367 82.698 46.2327 83.286V81.702C47.0607 81.198 48.0447 80.946 49.1847 80.946C50.3607 80.946 51.2427 81.216 51.8307 81.756C52.4187 82.284 52.7127 83.058 52.7127 84.078V87.84C52.7127 88.464 52.9407 88.776 53.3967 88.776C53.5767 88.776 53.7507 88.734 53.9187 88.65V90C53.6547 90.108 53.3667 90.162 53.0547 90.162C52.2507 90.162 51.6807 89.85 51.3447 89.226H51.3087C51.0207 89.49 50.6307 89.718 50.1387 89.91C49.6587 90.102 49.1427 90.198 48.5907 90.198ZM48.8787 88.758C49.7067 88.758 50.4447 88.5 51.0927 87.984V86.328C50.5647 86.172 49.9887 86.094 49.3647 86.094C48.7407 86.094 48.2187 86.202 47.7987 86.418C47.3907 86.634 47.1867 86.982 47.1867 87.462C47.1867 87.882 47.3427 88.206 47.6547 88.434C47.9667 88.65 48.3747 88.758 48.8787 88.758ZM56.4068 89.208C55.9268 88.644 55.6868 87.762 55.6868 86.562V81.144H57.3068V86.256C57.3068 87.144 57.4508 87.756 57.7388 88.092C58.0628 88.5 58.5308 88.704 59.1428 88.704C59.6588 88.704 60.1628 88.56 60.6548 88.272C61.1468 87.984 61.5668 87.624 61.9148 87.192V81.144H63.5348V90H61.9148V88.884L61.8788 88.866C60.9908 89.754 59.9708 90.198 58.8188 90.198C57.7868 90.198 56.9828 89.868 56.4068 89.208ZM66.3751 90V81.144H67.9951V82.26L68.0311 82.278C68.9191 81.39 69.9511 80.946 71.1271 80.946C72.1231 80.946 72.9091 81.27 73.4851 81.918C73.9771 82.482 74.2231 83.352 74.2231 84.528V90H72.6031V84.834C72.6031 83.958 72.4651 83.358 72.1891 83.034C71.8651 82.65 71.3911 82.458 70.7671 82.458C70.2631 82.458 69.7531 82.596 69.2371 82.872C68.7331 83.148 68.3191 83.502 67.9951 83.934V90H66.3751ZM83.8675 87.858V89.586C83.1235 89.994 82.2415 90.198 81.2215 90.198C79.8175 90.198 78.6655 89.766 77.7655 88.902C76.8655 88.038 76.4155 86.946 76.4155 85.626C76.4155 84.27 76.8835 83.154 77.8195 82.278C78.7675 81.39 79.9375 80.946 81.3295 80.946C82.2055 80.946 83.0035 81.132 83.7235 81.504V83.178C82.9315 82.674 82.1095 82.422 81.2575 82.422C80.3095 82.422 79.5355 82.728 78.9355 83.34C78.3475 83.952 78.0535 84.714 78.0535 85.626C78.0535 86.538 78.3535 87.282 78.9535 87.858C79.5655 88.434 80.3515 88.722 81.3115 88.722C82.2835 88.722 83.1355 88.434 83.8675 87.858ZM86.2033 90V76.248H87.8233V82.26L87.8593 82.278C88.7473 81.39 89.7793 80.946 90.9553 80.946C91.9513 80.946 92.7373 81.27 93.3133 81.918C93.8053 82.482 94.0513 83.352 94.0513 84.528V90H92.4313V84.834C92.4313 83.958 92.2873 83.358 91.9993 83.034C91.6633 82.65 91.2133 82.458 90.6493 82.458C90.1333 82.458 89.6173 82.596 89.1013 82.872C88.5973 83.148 88.1713 83.502 87.8233 83.934V90H86.2033ZM101.935 88.866C101.047 87.978 100.603 86.88 100.603 85.572C100.603 84.264 101.047 83.166 101.935 82.278C102.835 81.39 103.951 80.946 105.283 80.946C106.615 80.946 107.725 81.39 108.613 82.278C109.513 83.166 109.963 84.264 109.963 85.572C109.963 86.88 109.513 87.978 108.613 88.866C107.725 89.754 106.615 90.198 105.283 90.198C103.951 90.198 102.835 89.754 101.935 88.866ZM103.087 83.322C102.511 83.922 102.223 84.672 102.223 85.572C102.223 86.472 102.511 87.222 103.087 87.822C103.675 88.422 104.407 88.722 105.283 88.722C106.159 88.722 106.885 88.422 107.461 87.822C108.049 87.222 108.343 86.472 108.343 85.572C108.343 84.672 108.049 83.922 107.461 83.322C106.885 82.722 106.159 82.422 105.283 82.422C104.407 82.422 103.675 82.722 103.087 83.322ZM112.651 90V82.602H111.247V81.144H112.651V79.452C112.651 78.192 112.915 77.304 113.443 76.788C113.947 76.296 114.637 76.05 115.513 76.05C115.993 76.05 116.437 76.11 116.845 76.23V77.688C116.437 77.58 116.017 77.526 115.585 77.526C115.069 77.526 114.721 77.676 114.541 77.976C114.361 78.264 114.271 78.678 114.271 79.218V81.144H116.539V82.602H114.271V90H112.651ZM123.468 88.866C122.58 87.978 122.136 86.88 122.136 85.572C122.136 84.264 122.58 83.166 123.468 82.278C124.368 81.39 125.484 80.946 126.816 80.946C128.148 80.946 129.258 81.39 130.146 82.278C131.046 83.166 131.496 84.264 131.496 85.572C131.496 86.88 131.046 87.978 130.146 88.866C129.258 89.754 128.148 90.198 126.816 90.198C125.484 90.198 124.368 89.754 123.468 88.866ZM124.62 83.322C124.044 83.922 123.756 84.672 123.756 85.572C123.756 86.472 124.044 87.222 124.62 87.822C125.208 88.422 125.94 88.722 126.816 88.722C127.692 88.722 128.418 88.422 128.994 87.822C129.582 87.222 129.876 86.472 129.876 85.572C129.876 84.672 129.582 83.922 128.994 83.322C128.418 82.722 127.692 82.422 126.816 82.422C125.94 82.422 125.208 82.722 124.62 83.322ZM134.419 89.208C133.939 88.644 133.699 87.762 133.699 86.562V81.144H135.319V86.256C135.319 87.144 135.463 87.756 135.751 88.092C136.075 88.5 136.543 88.704 137.155 88.704C137.671 88.704 138.175 88.56 138.667 88.272C139.159 87.984 139.579 87.624 139.927 87.192V81.144H141.547V90H139.927V88.884L139.891 88.866C139.003 89.754 137.983 90.198 136.831 90.198C135.799 90.198 134.995 89.868 134.419 89.208ZM144.387 90V81.144H146.007V82.44L146.043 82.458C146.703 81.534 147.579 81.072 148.671 81.072C148.875 81.072 149.067 81.096 149.247 81.144V82.746C149.055 82.698 148.845 82.674 148.617 82.674C147.489 82.674 146.619 83.196 146.007 84.24V90H144.387ZM161.638 86.454L158.794 82.386C158.398 81.822 157.816 80.964 157.048 79.812L157.012 79.83C157.036 80.862 157.048 81.804 157.048 82.656V90H155.392V76.968H157.048L161.674 83.592L166.3 76.968H167.938V90H166.228V82.656C166.228 81.804 166.24 80.862 166.264 79.83L166.228 79.812C165.46 80.964 164.878 81.822 164.482 82.386L161.638 86.454ZM174.514 90L169.492 76.968H171.328L174.1 84.276C174.544 85.452 174.97 86.604 175.378 87.732H175.414C175.834 86.592 176.272 85.422 176.728 84.222L179.518 76.968H181.264L176.26 90H174.514ZM182.813 90V76.968H186.215C187.967 76.968 189.251 77.196 190.067 77.652C191.327 78.348 191.957 79.422 191.957 80.874C191.957 81.594 191.795 82.236 191.471 82.8C191.159 83.352 190.733 83.79 190.193 84.114C189.677 84.426 189.083 84.63 188.411 84.726C187.739 84.81 186.893 84.852 185.873 84.852H184.523V90H182.813ZM184.523 83.358H186.089C186.929 83.358 187.571 83.328 188.015 83.268C188.471 83.208 188.867 83.076 189.203 82.872C189.899 82.452 190.247 81.81 190.247 80.946C190.247 80.01 189.845 79.338 189.041 78.93C188.489 78.654 187.499 78.516 186.071 78.516H184.523V83.358ZM36.458 124V110.968H38.168V124H36.458ZM41.045 124V115.144H42.665V116.26L42.701 116.278C43.589 115.39 44.621 114.946 45.797 114.946C46.793 114.946 47.579 115.27 48.155 115.918C48.647 116.482 48.893 117.352 48.893 118.528V124H47.273V118.834C47.273 117.958 47.135 117.358 46.859 117.034C46.535 116.65 46.061 116.458 45.437 116.458C44.933 116.458 44.423 116.596 43.907 116.872C43.403 117.148 42.989 117.502 42.665 117.934V124H41.045ZM52.1474 124V116.602H50.7434V115.144H52.1474V113.452C52.1474 112.192 52.4114 111.304 52.9394 110.788C53.4434 110.296 54.1334 110.05 55.0094 110.05C55.4894 110.05 55.9334 110.11 56.3414 110.23V111.688C55.9334 111.58 55.5134 111.526 55.0814 111.526C54.5654 111.526 54.2174 111.676 54.0374 111.976C53.8574 112.264 53.7674 112.678 53.7674 113.218V115.144H56.0354V116.602H53.7674V124H52.1474ZM57.8894 124V110.248H59.5094V124H57.8894ZM63.0337 123.208C62.5537 122.644 62.3137 121.762 62.3137 120.562V115.144H63.9337V120.256C63.9337 121.144 64.0777 121.756 64.3657 122.092C64.6897 122.5 65.1577 122.704 65.7697 122.704C66.2857 122.704 66.7897 122.56 67.2817 122.272C67.7737 121.984 68.1937 121.624 68.5417 121.192V115.144H70.1617V124H68.5417V122.884L68.5057 122.866C67.6177 123.754 66.5977 124.198 65.4457 124.198C64.4137 124.198 63.6097 123.868 63.0337 123.208ZM80.7781 120.04H74.0101C74.1301 120.892 74.4841 121.558 75.0721 122.038C75.6601 122.506 76.3981 122.74 77.2861 122.74C78.3541 122.74 79.3741 122.374 80.3461 121.642V123.37C79.4821 123.922 78.4261 124.198 77.1781 124.198C75.7861 124.198 74.6401 123.772 73.7401 122.92C72.8401 122.068 72.3901 120.952 72.3901 119.572C72.3901 118.216 72.8161 117.106 73.6681 116.242C74.5321 115.378 75.5761 114.946 76.8001 114.946C77.9401 114.946 78.8941 115.33 79.6621 116.098C80.4421 116.854 80.8321 117.898 80.8321 119.23C80.8321 119.554 80.8141 119.824 80.7781 120.04ZM76.7641 116.404C76.1281 116.404 75.5461 116.608 75.0181 117.016C74.5021 117.412 74.1781 117.994 74.0461 118.762H79.2661C79.2061 117.958 78.9301 117.364 78.4381 116.98C77.9461 116.596 77.3881 116.404 76.7641 116.404ZM83.1447 124V115.144H84.7647V116.26L84.8007 116.278C85.6887 115.39 86.7207 114.946 87.8967 114.946C88.8927 114.946 89.6787 115.27 90.2547 115.918C90.7467 116.482 90.9927 117.352 90.9927 118.528V124H89.3727V118.834C89.3727 117.958 89.2347 117.358 88.9587 117.034C88.6347 116.65 88.1607 116.458 87.5367 116.458C87.0327 116.458 86.5227 116.596 86.0067 116.872C85.5027 117.148 85.0887 117.502 84.7647 117.934V124H83.1447ZM100.637 121.858V123.586C99.893 123.994 99.011 124.198 97.991 124.198C96.587 124.198 95.435 123.766 94.535 122.902C93.635 122.038 93.185 120.946 93.185 119.626C93.185 118.27 93.653 117.154 94.589 116.278C95.537 115.39 96.707 114.946 98.099 114.946C98.975 114.946 99.773 115.132 100.493 115.504V117.178C99.701 116.674 98.879 116.422 98.027 116.422C97.079 116.422 96.305 116.728 95.705 117.34C95.117 117.952 94.823 118.714 94.823 119.626C94.823 120.538 95.123 121.282 95.723 121.858C96.335 122.434 97.121 122.722 98.081 122.722C99.053 122.722 99.905 122.434 100.637 121.858ZM110.714 120.04H103.946C104.066 120.892 104.42 121.558 105.008 122.038C105.596 122.506 106.334 122.74 107.222 122.74C108.29 122.74 109.31 122.374 110.282 121.642V123.37C109.418 123.922 108.362 124.198 107.114 124.198C105.722 124.198 104.576 123.772 103.676 122.92C102.776 122.068 102.326 120.952 102.326 119.572C102.326 118.216 102.752 117.106 103.604 116.242C104.468 115.378 105.512 114.946 106.736 114.946C107.876 114.946 108.83 115.33 109.598 116.098C110.378 116.854 110.768 117.898 110.768 119.23C110.768 119.554 110.75 119.824 110.714 120.04ZM106.7 116.404C106.064 116.404 105.482 116.608 104.954 117.016C104.438 117.412 104.114 117.994 103.982 118.762H109.202C109.142 117.958 108.866 117.364 108.374 116.98C107.882 116.596 107.324 116.404 106.7 116.404ZM113.08 124V115.144H114.7V116.44L114.736 116.458C115.396 115.534 116.272 115.072 117.364 115.072C117.568 115.072 117.76 115.096 117.94 115.144V116.746C117.748 116.698 117.538 116.674 117.31 116.674C116.182 116.674 115.312 117.196 114.7 118.24V124H113.08ZM126.497 124.198C125.645 124.198 124.943 123.988 124.391 123.568C123.767 123.1 123.455 122.446 123.455 121.606C123.455 120.67 123.845 119.95 124.625 119.446C125.237 119.05 126.065 118.852 127.109 118.852C127.745 118.852 128.375 118.93 128.999 119.086V118.348C128.999 117.7 128.831 117.214 128.495 116.89C128.135 116.566 127.589 116.404 126.857 116.404C125.849 116.404 124.943 116.698 124.139 117.286V115.702C124.967 115.198 125.951 114.946 127.091 114.946C128.267 114.946 129.149 115.216 129.737 115.756C130.325 116.284 130.619 117.058 130.619 118.078V121.84C130.619 122.464 130.847 122.776 131.303 122.776C131.483 122.776 131.657 122.734 131.825 122.65V124C131.561 124.108 131.273 124.162 130.961 124.162C130.157 124.162 129.587 123.85 129.251 123.226H129.215C128.927 123.49 128.537 123.718 128.045 123.91C127.565 124.102 127.049 124.198 126.497 124.198ZM126.785 122.758C127.613 122.758 128.351 122.5 128.999 121.984V120.328C128.471 120.172 127.895 120.094 127.271 120.094C126.647 120.094 126.125 120.202 125.705 120.418C125.297 120.634 125.093 120.982 125.093 121.462C125.093 121.882 125.249 122.206 125.561 122.434C125.873 122.65 126.281 122.758 126.785 122.758ZM134.223 127.492V125.764C135.147 126.376 136.083 126.682 137.031 126.682C137.883 126.682 138.567 126.442 139.083 125.962C139.599 125.482 139.857 124.828 139.857 124V123.352L139.821 123.334C139.149 123.79 138.345 124.018 137.409 124.018C136.185 124.018 135.153 123.604 134.313 122.776C133.485 121.936 133.071 120.874 133.071 119.59C133.071 118.294 133.485 117.196 134.313 116.296C135.153 115.396 136.269 114.946 137.661 114.946C138.465 114.946 139.215 115.114 139.911 115.45L141.477 115.18V123.964C141.477 125.26 141.075 126.28 140.271 127.024C139.479 127.78 138.399 128.158 137.031 128.158C136.023 128.158 135.087 127.936 134.223 127.492ZM134.709 119.482C134.709 120.382 134.979 121.126 135.519 121.714C136.071 122.302 136.779 122.596 137.643 122.596C138.519 122.596 139.257 122.356 139.857 121.876V116.998C139.197 116.59 138.453 116.386 137.625 116.386C136.749 116.386 136.041 116.68 135.501 117.268C134.973 117.856 134.709 118.594 134.709 119.482ZM152.11 120.04H145.342C145.462 120.892 145.816 121.558 146.404 122.038C146.992 122.506 147.73 122.74 148.618 122.74C149.686 122.74 150.706 122.374 151.678 121.642V123.37C150.814 123.922 149.758 124.198 148.51 124.198C147.118 124.198 145.972 123.772 145.072 122.92C144.172 122.068 143.722 120.952 143.722 119.572C143.722 118.216 144.148 117.106 145 116.242C145.864 115.378 146.908 114.946 148.132 114.946C149.272 114.946 150.226 115.33 150.994 116.098C151.774 116.854 152.164 117.898 152.164 119.23C152.164 119.554 152.146 119.824 152.11 120.04ZM148.096 116.404C147.46 116.404 146.878 116.608 146.35 117.016C145.834 117.412 145.51 117.994 145.378 118.762H150.598C150.538 117.958 150.262 117.364 149.77 116.98C149.278 116.596 148.72 116.404 148.096 116.404ZM154.477 124V115.144H156.097V116.26L156.133 116.278C157.021 115.39 158.053 114.946 159.229 114.946C160.225 114.946 161.011 115.27 161.587 115.918C162.079 116.482 162.325 117.352 162.325 118.528V124H160.705V118.834C160.705 117.958 160.567 117.358 160.291 117.034C159.967 116.65 159.493 116.458 158.869 116.458C158.365 116.458 157.855 116.596 157.339 116.872C156.835 117.148 156.421 117.502 156.097 117.934V124H154.477ZM171.969 121.858V123.586C171.225 123.994 170.343 124.198 169.323 124.198C167.919 124.198 166.767 123.766 165.867 122.902C164.967 122.038 164.517 120.946 164.517 119.626C164.517 118.27 164.985 117.154 165.921 116.278C166.869 115.39 168.039 114.946 169.431 114.946C170.307 114.946 171.105 115.132 171.825 115.504V117.178C171.033 116.674 170.211 116.422 169.359 116.422C168.411 116.422 167.637 116.728 167.037 117.34C166.449 117.952 166.155 118.714 166.155 119.626C166.155 120.538 166.455 121.282 167.055 121.858C167.667 122.434 168.453 122.722 169.413 122.722C170.385 122.722 171.237 122.434 171.969 121.858ZM176.339 127.96H174.575L176.969 123.046L173.279 115.144H175.079L176.627 118.492C177.059 119.44 177.461 120.328 177.833 121.156H177.869C178.397 119.98 178.799 119.092 179.075 118.492L180.623 115.144H182.333L176.339 127.96ZM190.181 123.73V127.96H188.561V115.144H190.181V115.72L190.217 115.738C190.961 115.21 191.801 114.946 192.737 114.946C193.949 114.946 194.963 115.378 195.779 116.242C196.607 117.094 197.021 118.192 197.021 119.536C197.021 120.928 196.577 122.056 195.689 122.92C194.801 123.772 193.703 124.198 192.395 124.198C191.615 124.198 190.889 124.036 190.217 123.712L190.181 123.73ZM190.181 122.164C190.925 122.572 191.675 122.776 192.431 122.776C193.307 122.776 194.015 122.488 194.555 121.912C195.107 121.324 195.383 120.574 195.383 119.662C195.383 118.738 195.113 117.964 194.573 117.34C194.033 116.716 193.331 116.404 192.467 116.404C191.591 116.404 190.829 116.674 190.181 117.214V122.164ZM201.714 124.198C200.862 124.198 200.16 123.988 199.608 123.568C198.984 123.1 198.672 122.446 198.672 121.606C198.672 120.67 199.062 119.95 199.842 119.446C200.454 119.05 201.282 118.852 202.326 118.852C202.962 118.852 203.592 118.93 204.216 119.086V118.348C204.216 117.7 204.048 117.214 203.712 116.89C203.352 116.566 202.806 116.404 202.074 116.404C201.066 116.404 200.16 116.698 199.356 117.286V115.702C200.184 115.198 201.168 114.946 202.308 114.946C203.484 114.946 204.366 115.216 204.954 115.756C205.542 116.284 205.836 117.058 205.836 118.078V121.84C205.836 122.464 206.064 122.776 206.52 122.776C206.7 122.776 206.874 122.734 207.042 122.65V124C206.778 124.108 206.49 124.162 206.178 124.162C205.374 124.162 204.804 123.85 204.468 123.226H204.432C204.144 123.49 203.754 123.718 203.262 123.91C202.782 124.102 202.266 124.198 201.714 124.198ZM202.002 122.758C202.83 122.758 203.568 122.5 204.216 121.984V120.328C203.688 120.172 203.112 120.094 202.488 120.094C201.864 120.094 201.342 120.202 200.922 120.418C200.514 120.634 200.31 120.982 200.31 121.462C200.31 121.882 200.466 122.206 200.778 122.434C201.09 122.65 201.498 122.758 202.002 122.758ZM208.846 124V115.144H210.466V116.44L210.502 116.458C211.162 115.534 212.038 115.072 213.13 115.072C213.334 115.072 213.526 115.096 213.706 115.144V116.746C213.514 116.698 213.304 116.674 213.076 116.674C211.948 116.674 211.078 117.196 210.466 118.24V124H208.846ZM216.911 123.37C216.467 122.866 216.245 122.05 216.245 120.922V116.602H214.607V115.144H216.245V112.732L217.865 112.462V115.144H220.529V116.602H217.865V120.616C217.865 121.276 217.955 121.792 218.135 122.164C218.315 122.536 218.669 122.722 219.197 122.722C219.689 122.722 220.133 122.596 220.529 122.344V123.874C220.097 124.09 219.563 124.198 218.927 124.198C218.063 124.198 217.391 123.922 216.911 123.37ZM222.557 124V115.144H224.177V116.26L224.213 116.278C225.101 115.39 226.133 114.946 227.309 114.946C228.305 114.946 229.091 115.27 229.667 115.918C230.159 116.482 230.405 117.352 230.405 118.528V124H228.785V118.834C228.785 117.958 228.647 117.358 228.371 117.034C228.047 116.65 227.573 116.458 226.949 116.458C226.445 116.458 225.935 116.596 225.419 116.872C224.915 117.148 224.501 117.502 224.177 117.934V124H222.557ZM240.985 120.04H234.217C234.337 120.892 234.691 121.558 235.279 122.038C235.867 122.506 236.605 122.74 237.493 122.74C238.561 122.74 239.581 122.374 240.553 121.642V123.37C239.689 123.922 238.633 124.198 237.385 124.198C235.993 124.198 234.847 123.772 233.947 122.92C233.047 122.068 232.597 120.952 232.597 119.572C232.597 118.216 233.023 117.106 233.875 116.242C234.739 115.378 235.783 114.946 237.007 114.946C238.147 114.946 239.101 115.33 239.869 116.098C240.649 116.854 241.039 117.898 241.039 119.23C241.039 119.554 241.021 119.824 240.985 120.04ZM236.971 116.404C236.335 116.404 235.753 116.608 235.225 117.016C234.709 117.412 234.385 117.994 234.253 118.762H239.473C239.413 117.958 239.137 117.364 238.645 116.98C238.153 116.596 237.595 116.404 236.971 116.404ZM243.352 124V115.144H244.972V116.44L245.008 116.458C245.668 115.534 246.544 115.072 247.636 115.072C247.84 115.072 248.032 115.096 248.212 115.144V116.746C248.02 116.698 247.81 116.674 247.582 116.674C246.454 116.674 245.584 117.196 244.972 118.24V124H243.352ZM249.727 123.496V121.804C250.723 122.428 251.845 122.74 253.093 122.74C254.437 122.74 255.109 122.332 255.109 121.516C255.109 121.372 255.085 121.246 255.037 121.138C255.001 121.018 254.929 120.916 254.821 120.832C254.713 120.748 254.605 120.682 254.497 120.634C254.401 120.574 254.257 120.526 254.065 120.49C253.873 120.442 253.717 120.406 253.597 120.382C253.477 120.358 253.291 120.328 253.039 120.292C252.787 120.256 252.595 120.226 252.463 120.202C251.479 120.034 250.729 119.77 250.213 119.41C249.697 119.05 249.439 118.468 249.439 117.664C249.451 116.776 249.787 116.104 250.447 115.648C251.119 115.18 251.995 114.946 253.075 114.946C254.299 114.946 255.355 115.18 256.243 115.648V117.268C255.259 116.692 254.179 116.404 253.003 116.404C251.719 116.404 251.077 116.782 251.077 117.538C251.077 117.682 251.095 117.808 251.131 117.916C251.179 118.024 251.251 118.114 251.347 118.186C251.455 118.258 251.557 118.324 251.653 118.384C251.761 118.432 251.905 118.474 252.085 118.51C252.265 118.546 252.421 118.576 252.553 118.6C252.685 118.624 252.865 118.654 253.093 118.69C253.333 118.726 253.519 118.756 253.651 118.78C254.131 118.864 254.533 118.96 254.857 119.068C255.193 119.164 255.511 119.308 255.811 119.5C256.123 119.68 256.357 119.926 256.513 120.238C256.669 120.55 256.747 120.928 256.747 121.372C256.747 122.332 256.387 123.046 255.667 123.514C254.959 123.97 254.077 124.198 253.021 124.198C251.737 124.198 250.639 123.964 249.727 123.496ZM258.943 124V110.248H260.563V116.26L260.599 116.278C261.487 115.39 262.519 114.946 263.695 114.946C264.691 114.946 265.477 115.27 266.053 115.918C266.545 116.482 266.791 117.352 266.791 118.528V124H265.171V118.834C265.171 117.958 265.027 117.358 264.739 117.034C264.403 116.65 263.953 116.458 263.389 116.458C262.873 116.458 262.357 116.596 261.841 116.872C261.337 117.148 260.911 117.502 260.563 117.934V124H258.943ZM269.596 112.912C269.38 112.684 269.272 112.414 269.272 112.102C269.272 111.79 269.38 111.526 269.596 111.31C269.824 111.082 270.094 110.968 270.406 110.968C270.718 110.968 270.982 111.082 271.198 111.31C271.426 111.526 271.54 111.79 271.54 112.102C271.54 112.414 271.426 112.684 271.198 112.912C270.982 113.128 270.718 113.236 270.406 113.236C270.094 113.236 269.824 113.128 269.596 112.912ZM269.596 124V115.144H271.216V124H269.596ZM275.681 123.73V127.96H274.061V115.144H275.681V115.72L275.717 115.738C276.461 115.21 277.301 114.946 278.237 114.946C279.449 114.946 280.463 115.378 281.279 116.242C282.107 117.094 282.521 118.192 282.521 119.536C282.521 120.928 282.077 122.056 281.189 122.92C280.301 123.772 279.203 124.198 277.895 124.198C277.115 124.198 276.389 124.036 275.717 123.712L275.681 123.73ZM275.681 122.164C276.425 122.572 277.175 122.776 277.931 122.776C278.807 122.776 279.515 122.488 280.055 121.912C280.607 121.324 280.883 120.574 280.883 119.662C280.883 118.738 280.613 117.964 280.073 117.34C279.533 116.716 278.831 116.404 277.967 116.404C277.091 116.404 276.329 116.674 275.681 117.214V122.164ZM284.532 123.496V121.804C285.528 122.428 286.65 122.74 287.898 122.74C289.242 122.74 289.914 122.332 289.914 121.516C289.914 121.372 289.89 121.246 289.842 121.138C289.806 121.018 289.734 120.916 289.626 120.832C289.518 120.748 289.41 120.682 289.302 120.634C289.206 120.574 289.062 120.526 288.87 120.49C288.678 120.442 288.522 120.406 288.402 120.382C288.282 120.358 288.096 120.328 287.844 120.292C287.592 120.256 287.4 120.226 287.268 120.202C286.284 120.034 285.534 119.77 285.018 119.41C284.502 119.05 284.244 118.468 284.244 117.664C284.256 116.776 284.592 116.104 285.252 115.648C285.924 115.18 286.8 114.946 287.88 114.946C289.104 114.946 290.16 115.18 291.048 115.648V117.268C290.064 116.692 288.984 116.404 287.808 116.404C286.524 116.404 285.882 116.782 285.882 117.538C285.882 117.682 285.9 117.808 285.936 117.916C285.984 118.024 286.056 118.114 286.152 118.186C286.26 118.258 286.362 118.324 286.458 118.384C286.566 118.432 286.71 118.474 286.89 118.51C287.07 118.546 287.226 118.576 287.358 118.6C287.49 118.624 287.67 118.654 287.898 118.69C288.138 118.726 288.324 118.756 288.456 118.78C288.936 118.864 289.338 118.96 289.662 119.068C289.998 119.164 290.316 119.308 290.616 119.5C290.928 119.68 291.162 119.926 291.318 120.238C291.474 120.55 291.552 120.928 291.552 121.372C291.552 122.332 291.192 123.046 290.472 123.514C289.764 123.97 288.882 124.198 287.826 124.198C286.542 124.198 285.444 123.964 284.532 123.496ZM42.704 154.454L39.86 150.386C39.464 149.822 38.882 148.964 38.114 147.812L38.078 147.83C38.102 148.862 38.114 149.804 38.114 150.656V158H36.458V144.968H38.114L42.74 151.592L47.366 144.968H49.004V158H47.294V150.656C47.294 149.804 47.306 148.862 47.33 147.83L47.294 147.812C46.526 148.964 45.944 149.822 45.548 150.386L42.704 154.454ZM54.3388 158.198C53.4868 158.198 52.7848 157.988 52.2328 157.568C51.6088 157.1 51.2968 156.446 51.2968 155.606C51.2968 154.67 51.6868 153.95 52.4668 153.446C53.0788 153.05 53.9068 152.852 54.9508 152.852C55.5868 152.852 56.2168 152.93 56.8408 153.086V152.348C56.8408 151.7 56.6728 151.214 56.3368 150.89C55.9768 150.566 55.4308 150.404 54.6988 150.404C53.6908 150.404 52.7848 150.698 51.9808 151.286V149.702C52.8088 149.198 53.7928 148.946 54.9328 148.946C56.1088 148.946 56.9908 149.216 57.5788 149.756C58.1668 150.284 58.4608 151.058 58.4608 152.078V155.84C58.4608 156.464 58.6888 156.776 59.1448 156.776C59.3248 156.776 59.4988 156.734 59.6668 156.65V158C59.4028 158.108 59.1148 158.162 58.8028 158.162C57.9988 158.162 57.4288 157.85 57.0928 157.226H57.0568C56.7688 157.49 56.3788 157.718 55.8868 157.91C55.4068 158.102 54.8908 158.198 54.3388 158.198ZM54.6268 156.758C55.4548 156.758 56.1928 156.5 56.8408 155.984V154.328C56.3128 154.172 55.7368 154.094 55.1128 154.094C54.4888 154.094 53.9668 154.202 53.5468 154.418C53.1388 154.634 52.9348 154.982 52.9348 155.462C52.9348 155.882 53.0908 156.206 53.4028 156.434C53.7148 156.65 54.1228 156.758 54.6268 156.758ZM61.4708 158V149.144H63.0908V150.44L63.1268 150.458C63.7868 149.534 64.6628 149.072 65.7548 149.072C65.9588 149.072 66.1508 149.096 66.3308 149.144V150.746C66.1388 150.698 65.9288 150.674 65.7008 150.674C64.5728 150.674 63.7028 151.196 63.0908 152.24V158H61.4708ZM68.0802 158V144.248H69.7002V153.032L69.7362 153.05L73.6962 149.144H75.7662L71.7162 153.104L76.1982 158H74.0742L69.7362 153.194L69.7002 153.212V158H68.0802ZM84.575 154.04H77.807C77.927 154.892 78.281 155.558 78.869 156.038C79.457 156.506 80.195 156.74 81.083 156.74C82.151 156.74 83.171 156.374 84.143 155.642V157.37C83.279 157.922 82.223 158.198 80.975 158.198C79.583 158.198 78.437 157.772 77.537 156.92C76.637 156.068 76.187 154.952 76.187 153.572C76.187 152.216 76.613 151.106 77.465 150.242C78.329 149.378 79.373 148.946 80.597 148.946C81.737 148.946 82.691 149.33 83.459 150.098C84.239 150.854 84.629 151.898 84.629 153.23C84.629 153.554 84.611 153.824 84.575 154.04ZM80.561 150.404C79.925 150.404 79.343 150.608 78.815 151.016C78.299 151.412 77.975 151.994 77.843 152.762H83.063C83.003 151.958 82.727 151.364 82.235 150.98C81.743 150.596 81.185 150.404 80.561 150.404ZM88.1158 157.37C87.6718 156.866 87.4498 156.05 87.4498 154.922V150.602H85.8118V149.144H87.4498V146.732L89.0698 146.462V149.144H91.7338V150.602H89.0698V154.616C89.0698 155.276 89.1598 155.792 89.3398 156.164C89.5198 156.536 89.8738 156.722 90.4018 156.722C90.8938 156.722 91.3378 156.596 91.7338 156.344V157.874C91.3018 158.09 90.7678 158.198 90.1318 158.198C89.2678 158.198 88.5958 157.922 88.1158 157.37ZM93.7618 146.912C93.5458 146.684 93.4378 146.414 93.4378 146.102C93.4378 145.79 93.5458 145.526 93.7618 145.31C93.9898 145.082 94.2598 144.968 94.5718 144.968C94.8838 144.968 95.1478 145.082 95.3638 145.31C95.5918 145.526 95.7058 145.79 95.7058 146.102C95.7058 146.414 95.5918 146.684 95.3638 146.912C95.1478 147.128 94.8838 147.236 94.5718 147.236C94.2598 147.236 93.9898 147.128 93.7618 146.912ZM93.7618 158V149.144H95.3818V158H93.7618ZM98.2267 158V149.144H99.8467V150.26L99.8827 150.278C100.771 149.39 101.803 148.946 102.979 148.946C103.975 148.946 104.761 149.27 105.337 149.918C105.829 150.482 106.075 151.352 106.075 152.528V158H104.455V152.834C104.455 151.958 104.317 151.358 104.041 151.034C103.717 150.65 103.243 150.458 102.619 150.458C102.115 150.458 101.605 150.596 101.089 150.872C100.585 151.148 100.171 151.502 99.8467 151.934V158H98.2267ZM109.473 161.492V159.764C110.397 160.376 111.333 160.682 112.281 160.682C113.133 160.682 113.817 160.442 114.333 159.962C114.849 159.482 115.107 158.828 115.107 158V157.352L115.071 157.334C114.399 157.79 113.595 158.018 112.659 158.018C111.435 158.018 110.403 157.604 109.563 156.776C108.735 155.936 108.321 154.874 108.321 153.59C108.321 152.294 108.735 151.196 109.563 150.296C110.403 149.396 111.519 148.946 112.911 148.946C113.715 148.946 114.465 149.114 115.161 149.45L116.727 149.18V157.964C116.727 159.26 116.325 160.28 115.521 161.024C114.729 161.78 113.649 162.158 112.281 162.158C111.273 162.158 110.337 161.936 109.473 161.492ZM109.959 153.482C109.959 154.382 110.229 155.126 110.769 155.714C111.321 156.302 112.029 156.596 112.893 156.596C113.769 156.596 114.507 156.356 115.107 155.876V150.998C114.447 150.59 113.703 150.386 112.875 150.386C111.999 150.386 111.291 150.68 110.751 151.268C110.223 151.856 109.959 152.594 109.959 153.482ZM126.391 158.198C125.539 158.198 124.837 157.988 124.285 157.568C123.661 157.1 123.349 156.446 123.349 155.606C123.349 154.67 123.739 153.95 124.519 153.446C125.131 153.05 125.959 152.852 127.003 152.852C127.639 152.852 128.269 152.93 128.893 153.086V152.348C128.893 151.7 128.725 151.214 128.389 150.89C128.029 150.566 127.483 150.404 126.751 150.404C125.743 150.404 124.837 150.698 124.033 151.286V149.702C124.861 149.198 125.845 148.946 126.985 148.946C128.161 148.946 129.043 149.216 129.631 149.756C130.219 150.284 130.513 151.058 130.513 152.078V155.84C130.513 156.464 130.741 156.776 131.197 156.776C131.377 156.776 131.551 156.734 131.719 156.65V158C131.455 158.108 131.167 158.162 130.855 158.162C130.051 158.162 129.481 157.85 129.145 157.226H129.109C128.821 157.49 128.431 157.718 127.939 157.91C127.459 158.102 126.943 158.198 126.391 158.198ZM126.679 156.758C127.507 156.758 128.245 156.5 128.893 155.984V154.328C128.365 154.172 127.789 154.094 127.165 154.094C126.541 154.094 126.019 154.202 125.599 154.418C125.191 154.634 124.987 154.982 124.987 155.462C124.987 155.882 125.143 156.206 125.455 156.434C125.767 156.65 126.175 156.758 126.679 156.758ZM133.524 158V149.144H135.144V150.26L135.18 150.278C136.068 149.39 137.1 148.946 138.276 148.946C139.272 148.946 140.058 149.27 140.634 149.918C141.126 150.482 141.372 151.352 141.372 152.528V158H139.752V152.834C139.752 151.958 139.614 151.358 139.338 151.034C139.014 150.65 138.54 150.458 137.916 150.458C137.412 150.458 136.902 150.596 136.386 150.872C135.882 151.148 135.468 151.502 135.144 151.934V158H133.524ZM143.6 153.716C143.6 152.348 144.038 151.214 144.914 150.314C145.79 149.402 146.918 148.946 148.298 148.946C149.006 148.946 149.714 149.102 150.422 149.414L150.458 149.396V144.248H152.078V158H150.458V157.46L150.422 157.442C149.702 157.946 148.874 158.198 147.938 158.198C146.714 158.198 145.682 157.784 144.842 156.956C144.014 156.128 143.6 155.048 143.6 153.716ZM145.238 153.626C145.238 154.526 145.502 155.276 146.03 155.876C146.558 156.464 147.266 156.758 148.154 156.758C148.958 156.758 149.726 156.506 150.458 156.002V150.944C149.738 150.572 149.012 150.386 148.28 150.386C147.368 150.386 146.63 150.692 146.066 151.304C145.514 151.916 145.238 152.69 145.238 153.626ZM160.896 157.73V161.96H159.276V149.144H160.896V149.72L160.932 149.738C161.676 149.21 162.516 148.946 163.452 148.946C164.664 148.946 165.678 149.378 166.494 150.242C167.322 151.094 167.736 152.192 167.736 153.536C167.736 154.928 167.292 156.056 166.404 156.92C165.516 157.772 164.418 158.198 163.11 158.198C162.33 158.198 161.604 158.036 160.932 157.712L160.896 157.73ZM160.896 156.164C161.64 156.572 162.39 156.776 163.146 156.776C164.022 156.776 164.73 156.488 165.27 155.912C165.822 155.324 166.098 154.574 166.098 153.662C166.098 152.738 165.828 151.964 165.288 151.34C164.748 150.716 164.046 150.404 163.182 150.404C162.306 150.404 161.544 150.674 160.896 151.214V156.164ZM169.981 158V149.144H171.601V150.44L171.637 150.458C172.297 149.534 173.173 149.072 174.265 149.072C174.469 149.072 174.661 149.096 174.841 149.144V150.746C174.649 150.698 174.439 150.674 174.211 150.674C173.083 150.674 172.213 151.196 171.601 152.24V158H169.981ZM177.099 156.866C176.211 155.978 175.767 154.88 175.767 153.572C175.767 152.264 176.211 151.166 177.099 150.278C177.999 149.39 179.115 148.946 180.447 148.946C181.779 148.946 182.889 149.39 183.777 150.278C184.677 151.166 185.127 152.264 185.127 153.572C185.127 154.88 184.677 155.978 183.777 156.866C182.889 157.754 181.779 158.198 180.447 158.198C179.115 158.198 177.999 157.754 177.099 156.866ZM178.251 151.322C177.675 151.922 177.387 152.672 177.387 153.572C177.387 154.472 177.675 155.222 178.251 155.822C178.839 156.422 179.571 156.722 180.447 156.722C181.323 156.722 182.049 156.422 182.625 155.822C183.213 155.222 183.507 154.472 183.507 153.572C183.507 152.672 183.213 151.922 182.625 151.322C182.049 150.722 181.323 150.422 180.447 150.422C179.571 150.422 178.839 150.722 178.251 151.322ZM199.551 158V152.762C199.551 151.934 199.401 151.346 199.101 150.998C198.789 150.638 198.339 150.458 197.751 150.458C197.259 150.458 196.767 150.596 196.275 150.872C195.783 151.136 195.375 151.46 195.051 151.844C195.063 151.976 195.069 152.186 195.069 152.474V158H193.449V152.762C193.449 151.922 193.311 151.34 193.035 151.016C192.711 150.644 192.261 150.458 191.685 150.458C191.193 150.458 190.701 150.59 190.209 150.854C189.717 151.118 189.309 151.448 188.985 151.844V158H187.365V149.144H188.985V150.224L189.021 150.242C189.885 149.378 190.887 148.946 192.027 148.946C192.603 148.946 193.131 149.078 193.611 149.342C194.103 149.594 194.481 149.972 194.745 150.476C195.825 149.456 196.947 148.946 198.111 148.946C199.107 148.946 199.881 149.258 200.433 149.882C200.925 150.422 201.171 151.286 201.171 152.474V158H199.551ZM204.697 156.866C203.809 155.978 203.365 154.88 203.365 153.572C203.365 152.264 203.809 151.166 204.697 150.278C205.597 149.39 206.713 148.946 208.045 148.946C209.377 148.946 210.487 149.39 211.375 150.278C212.275 151.166 212.725 152.264 212.725 153.572C212.725 154.88 212.275 155.978 211.375 156.866C210.487 157.754 209.377 158.198 208.045 158.198C206.713 158.198 205.597 157.754 204.697 156.866ZM205.849 151.322C205.273 151.922 204.985 152.672 204.985 153.572C204.985 154.472 205.273 155.222 205.849 155.822C206.437 156.422 207.169 156.722 208.045 156.722C208.921 156.722 209.647 156.422 210.223 155.822C210.811 155.222 211.105 154.472 211.105 153.572C211.105 152.672 210.811 151.922 210.223 151.322C209.647 150.722 208.921 150.422 208.045 150.422C207.169 150.422 206.437 150.722 205.849 151.322ZM216.313 157.37C215.869 156.866 215.647 156.05 215.647 154.922V150.602H214.009V149.144H215.647V146.732L217.267 146.462V149.144H219.931V150.602H217.267V154.616C217.267 155.276 217.357 155.792 217.537 156.164C217.717 156.536 218.071 156.722 218.599 156.722C219.091 156.722 219.535 156.596 219.931 156.344V157.874C219.499 158.09 218.965 158.198 218.329 158.198C217.465 158.198 216.793 157.922 216.313 157.37ZM221.959 146.912C221.743 146.684 221.635 146.414 221.635 146.102C221.635 145.79 221.743 145.526 221.959 145.31C222.187 145.082 222.457 144.968 222.769 144.968C223.081 144.968 223.345 145.082 223.561 145.31C223.789 145.526 223.903 145.79 223.903 146.102C223.903 146.414 223.789 146.684 223.561 146.912C223.345 147.128 223.081 147.236 222.769 147.236C222.457 147.236 222.187 147.128 221.959 146.912ZM221.959 158V149.144H223.579V158H221.959ZM227.144 156.866C226.256 155.978 225.812 154.88 225.812 153.572C225.812 152.264 226.256 151.166 227.144 150.278C228.044 149.39 229.16 148.946 230.492 148.946C231.824 148.946 232.934 149.39 233.822 150.278C234.722 151.166 235.172 152.264 235.172 153.572C235.172 154.88 234.722 155.978 233.822 156.866C232.934 157.754 231.824 158.198 230.492 158.198C229.16 158.198 228.044 157.754 227.144 156.866ZM228.296 151.322C227.72 151.922 227.432 152.672 227.432 153.572C227.432 154.472 227.72 155.222 228.296 155.822C228.884 156.422 229.616 156.722 230.492 156.722C231.368 156.722 232.094 156.422 232.67 155.822C233.258 155.222 233.552 154.472 233.552 153.572C233.552 152.672 233.258 151.922 232.67 151.322C232.094 150.722 231.368 150.422 230.492 150.422C229.616 150.422 228.884 150.722 228.296 151.322ZM237.41 158V149.144H239.03V150.26L239.066 150.278C239.954 149.39 240.986 148.946 242.162 148.946C243.158 148.946 243.944 149.27 244.52 149.918C245.012 150.482 245.258 151.352 245.258 152.528V158H243.638V152.834C243.638 151.958 243.5 151.358 243.224 151.034C242.9 150.65 242.426 150.458 241.802 150.458C241.298 150.458 240.788 150.596 240.272 150.872C239.768 151.148 239.354 151.502 239.03 151.934V158H237.41Z" fill="#191B21"/>
<path d="M6.168 122.956C5.592 123.74 4.792 124.132 3.768 124.132C2.744 124.132 1.944 123.74 1.368 122.956C0.84 122.228 0.576 121.128 0.576 119.656C0.576 118.184 0.84 117.084 1.368 116.356C1.944 115.572 2.744 115.18 3.768 115.18C4.792 115.18 5.592 115.572 6.168 116.356C6.696 117.084 6.96 118.184 6.96 119.656C6.96 121.128 6.696 122.228 6.168 122.956ZM2.892 121.96C3.116 122.272 3.408 122.428 3.768 122.428C4.128 122.428 4.42 122.272 4.644 121.96C4.916 121.576 5.052 120.804 5.052 119.644C5.052 118.5 4.916 117.736 4.644 117.352C4.428 117.04 4.136 116.884 3.768 116.884C3.4 116.884 3.108 117.04 2.892 117.352C2.62 117.744 2.484 118.516 2.484 119.668C2.484 120.812 2.62 121.576 2.892 121.96ZM7.54716 122.14L7.53516 122.116L11.9632 115.312H13.6552V120.688H14.9752V122.14H13.6552V124H11.7592V122.14H7.54716ZM10.1752 120.688H11.7952V119.428C11.7952 119.1 11.8032 118.664 11.8192 118.12L11.7952 118.108C11.5872 118.452 11.3272 118.868 11.0152 119.356L10.1632 120.664L10.1752 120.688Z" fill="#2278D4"/>
<path d="M6.168 88.956C5.592 89.74 4.792 90.132 3.768 90.132C2.744 90.132 1.944 89.74 1.368 88.956C0.84 88.228 0.576 87.128 0.576 85.656C0.576 84.184 0.84 83.084 1.368 82.356C1.944 81.572 2.744 81.18 3.768 81.18C4.792 81.18 5.592 81.572 6.168 82.356C6.696 83.084 6.96 84.184 6.96 85.656C6.96 87.128 6.696 88.228 6.168 88.956ZM2.892 87.96C3.116 88.272 3.408 88.428 3.768 88.428C4.128 88.428 4.42 88.272 4.644 87.96C4.916 87.576 5.052 86.804 5.052 85.644C5.052 84.5 4.916 83.736 4.644 83.352C4.428 83.04 4.136 82.884 3.768 82.884C3.4 82.884 3.108 83.04 2.892 83.352C2.62 83.744 2.484 84.516 2.484 85.668C2.484 86.812 2.62 87.576 2.892 87.96ZM8.11116 89.46V87.624C9.01516 88.176 9.81916 88.452 10.5232 88.452C10.9392 88.452 11.2672 88.36 11.5072 88.176C11.7552 87.992 11.8792 87.736 11.8792 87.408C11.8792 86.728 11.3792 86.388 10.3792 86.388H9.51516V84.948H10.3312C10.7872 84.948 11.1312 84.856 11.3632 84.672C11.5952 84.48 11.7112 84.224 11.7112 83.904C11.7112 83.576 11.5912 83.32 11.3512 83.136C11.1192 82.952 10.8072 82.86 10.4152 82.86C9.83916 82.86 9.24316 83.028 8.62716 83.364V81.66C9.15516 81.34 9.79916 81.18 10.5592 81.18C11.4392 81.18 12.1672 81.412 12.7432 81.876C13.3272 82.332 13.6192 82.904 13.6192 83.592C13.6192 84.016 13.5032 84.4 13.2712 84.744C13.0392 85.08 12.7272 85.324 12.3352 85.476V85.5C12.8072 85.66 13.1672 85.928 13.4152 86.304C13.6632 86.672 13.7872 87.088 13.7872 87.552C13.7872 88.312 13.4832 88.932 12.8752 89.412C12.2672 89.892 11.5152 90.132 10.6192 90.132C9.60316 90.132 8.76716 89.908 8.11116 89.46Z" fill="#2278D4"/>
<path d="M6.168 54.956C5.592 55.74 4.792 56.132 3.768 56.132C2.744 56.132 1.944 55.74 1.368 54.956C0.84 54.228 0.576 53.128 0.576 51.656C0.576 50.184 0.84 49.084 1.368 48.356C1.944 47.572 2.744 47.18 3.768 47.18C4.792 47.18 5.592 47.572 6.168 48.356C6.696 49.084 6.96 50.184 6.96 51.656C6.96 53.128 6.696 54.228 6.168 54.956ZM2.892 53.96C3.116 54.272 3.408 54.428 3.768 54.428C4.128 54.428 4.42 54.272 4.644 53.96C4.916 53.576 5.052 52.804 5.052 51.644C5.052 50.5 4.916 49.736 4.644 49.352C4.428 49.04 4.136 48.884 3.768 48.884C3.4 48.884 3.108 49.04 2.892 49.352C2.62 49.744 2.484 50.516 2.484 51.668C2.484 52.812 2.62 53.576 2.892 53.96ZM7.73916 55.976L10.3912 52.472C10.8712 51.832 11.2072 51.34 11.3992 50.996C11.5912 50.652 11.6872 50.328 11.6872 50.024C11.6872 49.664 11.5672 49.384 11.3272 49.184C11.0952 48.984 10.7832 48.884 10.3912 48.884C9.71116 48.884 9.03516 49.144 8.36316 49.664V47.876C9.01116 47.412 9.74716 47.18 10.5712 47.18C11.4432 47.18 12.1672 47.428 12.7432 47.924C13.3272 48.412 13.6192 49.056 13.6192 49.856C13.6192 50.32 13.5072 50.792 13.2832 51.272C13.0672 51.744 12.7232 52.296 12.2512 52.928L11.2072 54.308L11.2192 54.332H13.9312V56H7.75116L7.73916 55.976Z" fill="#2278D4"/>
<path d="M6.168 21.956C5.592 22.74 4.792 23.132 3.768 23.132C2.744 23.132 1.944 22.74 1.368 21.956C0.84 21.228 0.576 20.128 0.576 18.656C0.576 17.184 0.84 16.084 1.368 15.356C1.944 14.572 2.744 14.18 3.768 14.18C4.792 14.18 5.592 14.572 6.168 15.356C6.696 16.084 6.96 17.184 6.96 18.656C6.96 20.128 6.696 21.228 6.168 21.956ZM2.892 20.96C3.116 21.272 3.408 21.428 3.768 21.428C4.128 21.428 4.42 21.272 4.644 20.96C4.916 20.576 5.052 19.804 5.052 18.644C5.052 17.5 4.916 16.736 4.644 16.352C4.428 16.04 4.136 15.884 3.768 15.884C3.4 15.884 3.108 16.04 2.892 16.352C2.62 16.744 2.484 17.516 2.484 18.668C2.484 19.812 2.62 20.576 2.892 20.96ZM10.0792 23V16.604L8.31516 17.24V15.512L11.9872 14.18V23H10.0792Z" fill="#2278D4"/>
<path d="M6.168 156.956C5.592 157.74 4.792 158.132 3.768 158.132C2.744 158.132 1.944 157.74 1.368 156.956C0.84 156.228 0.576 155.128 0.576 153.656C0.576 152.184 0.84 151.084 1.368 150.356C1.944 149.572 2.744 149.18 3.768 149.18C4.792 149.18 5.592 149.572 6.168 150.356C6.696 151.084 6.96 152.184 6.96 153.656C6.96 155.128 6.696 156.228 6.168 156.956ZM2.892 155.96C3.116 156.272 3.408 156.428 3.768 156.428C4.128 156.428 4.42 156.272 4.644 155.96C4.916 155.576 5.052 154.804 5.052 153.644C5.052 152.5 4.916 151.736 4.644 151.352C4.428 151.04 4.136 150.884 3.768 150.884C3.4 150.884 3.108 151.04 2.892 151.352C2.62 151.744 2.484 152.516 2.484 153.668C2.484 154.812 2.62 155.576 2.892 155.96ZM8.05116 157.604L8.18316 155.9C8.91916 156.268 9.62716 156.452 10.3072 156.452C10.7952 156.452 11.1872 156.356 11.4832 156.164C11.7792 155.972 11.9272 155.712 11.9272 155.384C11.9272 155.144 11.8432 154.94 11.6752 154.772C11.5152 154.604 11.2992 154.48 11.0272 154.4C10.7632 154.32 10.4992 154.264 10.2352 154.232C9.97116 154.192 9.69916 154.172 9.41916 154.172C9.05116 154.172 8.71116 154.196 8.39916 154.244L8.75916 149.312H13.4992L13.3792 150.98H10.5352L10.4032 152.708C10.7392 152.716 11.0632 152.752 11.3752 152.816C11.6952 152.88 12.0072 152.98 12.3112 153.116C12.6152 153.252 12.8752 153.42 13.0912 153.62C13.3152 153.82 13.4952 154.068 13.6312 154.364C13.7672 154.66 13.8352 154.992 13.8352 155.36C13.8352 156.192 13.5152 156.864 12.8752 157.376C12.2352 157.88 11.4152 158.132 10.4152 158.132C9.47116 158.132 8.68316 157.956 8.05116 157.604Z" fill="#2278D4"/>
</svg>
