<svg width="73" height="15" viewBox="0 0 73 15" fill="none" xmlns="http://www.w3.org/2000/svg">
<path d="M3.584 8.214C4.172 8.83 4.9 9.138 5.768 9.138C6.636 9.138 7.364 8.83 7.952 8.214C8.54 7.58867 8.834 6.828 8.834 5.932C8.834 5.036 8.54 4.28 7.952 3.664C7.364 3.03867 6.636 2.726 5.768 2.726C4.9 2.726 4.172 3.03867 3.584 3.664C2.996 4.28 2.702 5.036 2.702 5.932C2.702 6.828 2.996 7.58867 3.584 8.214ZM9.534 9.656C8.526 10.6547 7.27067 11.154 5.768 11.154C4.26533 11.154 3.00533 10.6547 1.988 9.656C0.98 8.648 0.476 7.40667 0.476 5.932C0.476 4.45733 0.98 3.22067 1.988 2.222C3.00533 1.214 4.26533 0.71 5.768 0.71C7.27067 0.71 8.526 1.214 9.534 2.222C10.5513 3.22067 11.06 4.45733 11.06 5.932C11.06 7.40667 10.5513 8.648 9.534 9.656ZM12.8411 9.502C12.3371 8.75533 12.0851 7.63533 12.0851 6.142V0.863999H14.3111V6.058C14.3111 7.16867 14.4697 7.962 14.7871 8.438C15.1137 8.914 15.7017 9.152 16.5511 9.152C17.3537 9.152 17.9231 8.914 18.2591 8.438C18.6044 7.962 18.7771 7.17333 18.7771 6.072V0.863999H20.9191V6.086C20.9191 7.64467 20.6577 8.79267 20.1351 9.53C19.7711 10.0433 19.2717 10.4447 18.6371 10.734C18.0117 11.014 17.2977 11.154 16.4951 11.154C15.6831 11.154 14.9597 11.0093 14.3251 10.72C13.6904 10.4307 13.1957 10.0247 12.8411 9.502ZM22.3894 11V0.863999H25.5674C28.4794 0.863999 29.9354 1.88133 29.9354 3.916C29.9354 4.57867 29.7581 5.15733 29.4034 5.652C29.0487 6.14667 28.5401 6.50133 27.8774 6.716L30.7334 11H28.1714L25.6094 6.996H24.6154V11H22.3894ZM24.6154 5.33H25.7354C26.3887 5.33 26.8787 5.232 27.2054 5.036C27.5414 4.84 27.7094 4.518 27.7094 4.07C27.7094 3.622 27.5367 3.3 27.1914 3.104C26.8554 2.908 26.2814 2.81 25.4694 2.81H24.6154V5.33ZM36.8601 11V2.81H33.5841V0.863999H42.3621V2.81H39.0861V11H36.8601ZM43.2193 11V0.863999H49.4773V2.81H45.4453V4.798H48.9173V6.646H45.4453V9.054H49.6313V11H43.2193ZM49.905 11L54.021 0.863999H56.177L60.293 11H57.913L57.101 8.872H53.013L52.187 11H49.905ZM54.105 6.044L53.699 7.122H56.429L56.009 5.988C55.645 4.99867 55.337 4.14 55.085 3.412H55.057C54.7583 4.26133 54.441 5.13867 54.105 6.044ZM66.0756 8.662L64.6056 6.576C64.1576 5.94133 63.663 5.218 63.1216 4.406L63.0936 4.42C63.1123 5.39067 63.1216 6.23067 63.1216 6.94V11H60.9796V0.863999H63.1216L66.1316 5.148L69.1416 0.863999H71.2556V11H69.0296V6.94C69.0296 6.23067 69.039 5.39067 69.0576 4.42L69.0296 4.406C68.4883 5.218 67.9936 5.94133 67.5456 6.576L66.0756 8.662Z" fill="white"/>
<path d="M0 14.08H72.1796V14.78H0V14.08Z" fill="white"/>
</svg>
